<?xml version="1.0" encoding="utf-8"?>
<!-- Generator: Adobe Illustrator 24.0.1, SVG Export Plug-In . SVG Version: 6.00 Build 0)  -->
<svg version="1.1" id="Layer_1" xmlns="http://www.w3.org/2000/svg" xmlns:xlink="http://www.w3.org/1999/xlink" x="0px" y="0px"
	 viewBox="0 0 115 101.8" style="enable-background:new 0 0 115 101.8;" xml:space="preserve">
<style type="text/css">
	.st0{fill:#FFFFFF;}
</style>
<path class="st0" d="M95.7,101.8H5.5c-3,0-5.5-2.5-5.5-5.5V5.5C0,2.5,2.5,0,5.5,0h104c3,0,5.5,2.5,5.5,5.5v77.1
	C115,93.2,106.4,101.8,95.7,101.8z M11,90.8h84.7c4.6,0,8.3-3.7,8.3-8.3V11H11V90.8z"/>
<path class="st0" d="M40.2,77.6H30.1c-3,0-5.5-2.5-5.5-5.5s2.5-5.5,5.5-5.5h10.2c3,0,5.5,2.5,5.5,5.5S43.3,77.6,40.2,77.6z"/>
<path class="st0" d="M86,77.6H61.8c-3,0-5.5-2.5-5.5-5.5V49.8c0-3,2.5-5.5,5.5-5.5H86c3,0,5.5,2.5,5.5,5.5v22.3
	C91.5,75.1,89.1,77.6,86,77.6z M67.3,66.6h13.3V55.3H67.3V66.6z"/>
<path class="st0" d="M40.2,55.3H30.1c-3,0-5.5-2.5-5.5-5.5s2.5-5.5,5.5-5.5h10.2c3,0,5.5,2.5,5.5,5.5S43.3,55.3,40.2,55.3z"/>
<path class="st0" d="M86,33.3H30.1c-3,0-5.5-2.5-5.5-5.5s2.5-5.5,5.5-5.5H86c3,0,5.5,2.5,5.5,5.5S89.1,33.3,86,33.3z"/>
</svg>
