<?xml version="1.0" encoding="utf-8"?>
<!-- Generator: Adobe Illustrator 24.0.1, SVG Export Plug-In . SVG Version: 6.00 Build 0)  -->
<svg version="1.1" id="Layer_1" xmlns="http://www.w3.org/2000/svg" xmlns:xlink="http://www.w3.org/1999/xlink" x="0px" y="0px"
	 viewBox="0 0 116 101.9" style="enable-background:new 0 0 116 101.9;" xml:space="preserve">
<style type="text/css">
	.st0{fill:#FFFFFF;}
</style>
<path class="st0" d="M110.5,101.9H78.8c-3,0-5.5-2.5-5.5-5.5s2.5-5.5,5.5-5.5H101L58,16.5L15,90.9h22c3,0,5.5,2.5,5.5,5.5
	s-2.5,5.5-5.5,5.5H5.5c-2,0-3.8-1-4.8-2.8s-1-3.8,0-5.5L53.2,2.8C54.2,1,56,0,58,0s3.8,1,4.8,2.8l52.5,90.9c1,1.7,1,3.8,0,5.5
	S112.5,101.9,110.5,101.9z"/>
<path class="st0" d="M57.5,78.8c-3,0-5.5-2.5-5.5-5.5V46c0-3,2.5-5.5,5.5-5.5S63,42.9,63,46v27.3C63,76.3,60.5,78.8,57.5,78.8z"/>
<circle class="st0" cx="58" cy="92.9" r="8.3"/>
</svg>
