<?xml version="1.0" encoding="UTF-8" standalone="no"?>
<!-- Generator: Adobe Illustrator 21.0.0, SVG Export Plug-In . SVG Version: 6.00 Build 0)  -->

<svg
   xmlns:dc="http://purl.org/dc/elements/1.1/"
   xmlns:cc="http://creativecommons.org/ns#"
   xmlns:rdf="http://www.w3.org/1999/02/22-rdf-syntax-ns#"
   xmlns:svg="http://www.w3.org/2000/svg"
   xmlns="http://www.w3.org/2000/svg"
   xmlns:sodipodi="http://sodipodi.sourceforge.net/DTD/sodipodi-0.dtd"
   xmlns:inkscape="http://www.inkscape.org/namespaces/inkscape"
   version="1.1"
   id="Layer_1"
   x="0px"
   y="0px"
   viewBox="0 0 540 540"
   xml:space="preserve"
   sodipodi:docname="dial_arrow_full.svg"
   style="enable-background:new 0 0 540 540;"
   inkscape:version="0.92.2 (5c3e80d, 2017-08-06)"><metadata
     id="metadata290"><rdf:RDF><cc:Work
         rdf:about=""><dc:format>image/svg+xml</dc:format><dc:type
           rdf:resource="http://purl.org/dc/dcmitype/StillImage" /><dc:title></dc:title></cc:Work></rdf:RDF></metadata><defs
     id="defs288" /><sodipodi:namedview
     pagecolor="#ffffff"
     bordercolor="#737473"
     borderopacity="1"
     objecttolerance="10"
     gridtolerance="10"
     guidetolerance="10"
     inkscape:pageopacity="0"
     inkscape:pageshadow="2"
     inkscape:window-width="1280"
     inkscape:window-height="1002"
     id="namedview286"
     showgrid="false"
     inkscape:zoom="1.2361274"
     inkscape:cx="77.730731"
     inkscape:cy="374.5961"
     inkscape:window-x="1272"
     inkscape:window-y="-8"
     inkscape:window-maximized="1"
     inkscape:current-layer="Layer_1"
     inkscape:pagecheckerboard="true" /><style
     type="text/css"
     id="style2">
	.st0{display:none;}
	.st1{display:inline;fill:none;stroke:#FFFFFF;stroke-width:3.6963;stroke-miterlimit:10;}
	.st2{display:inline;fill:#00CC00;}
	.st3{display:inline;fill:#FFFF00;}
	.st4{display:inline;fill:#FF6600;}
	.st5{display:inline;fill:#FF0000;}
	.st6{display:inline;fill:#8F3F97;}
	.st7{display:inline;fill:#660033;}
	.st8{display:inline;fill:none;stroke:#FFFFFF;stroke-width:1.8481;stroke-miterlimit:10;}
	.st9{display:inline;}
	.st10{fill:#FFFFFF;}
	.st11{display:inline;fill:#666666;}
	.st12{fill:none;}
</style><circle
     class="st0"
     cx="270.4"
     cy="270.8"
     r="268"
     id="circle4" /><g
     id="Legend_Arc_Outlines"
     class="st0"><path
       class="st1"
       d="M80.4,161.2C61.7,193.4,51,230.8,51,270.7H21.8c0-45.2,12.1-87.7,33.2-124.2l4.7,2.7L80.4,161.2z"
       id="path6" /><path
       class="st1"
       d="M160.5,81c-33.2,19.2-61,47-80.2,80.2l-4.3-2.5l-16.3-9.4l-4.7-2.7c22.6-39.2,54.3-69.8,90.9-90.9l2.7,4.7   l9.4,16.3L160.5,81z"
       id="path8" /><path
       class="st1"
       d="M270.1,22.4v29.3c-39.9,0-77.3,10.7-109.6,29.3l-2.5-4.3l-9.4-16.3l-2.7-4.7C185.1,33,227.9,22.3,270.1,22.4z"
       id="path10" /><path
       class="st1"
       d="M394.3,55.6l-2.7,4.7l-0.1,0.3L379.7,81C347.5,62.3,310,51.7,270.1,51.7V22.4   C315.4,22.4,357.8,34.5,394.3,55.6z"
       id="path12" /><path
       class="st1"
       d="M485.3,146.5l-4.7,2.7l-16.3,9.4l-4.3,2.5c-19.2-33.2-46.9-61-80.2-80.2l2.5-4.3l9.3-16.1l0.1-0.3l2.7-4.7   C433.5,78.2,464.2,110,485.3,146.5z"
       id="path14" /><path
       class="st1"
       d="M518.5,270.8h-29.3c0-39.9-10.7-77.3-29.3-109.6l4.3-2.5l16.3-9.4l4.7-2.7   C507.9,185.7,518.5,228.6,518.5,270.8z"
       id="path16" /></g><g
     id="Legend_Arc"
     class="st0"><path
       class="st2"
       d="M80.4,161.2C61.7,193.4,51,230.8,51,270.7H21.8c0-45.2,12.1-87.7,33.2-124.2L80.4,161.2z"
       id="path19" /><path
       class="st3"
       d="M160.5,81c-33.2,19.2-61,47-80.2,80.2L55,146.6c22.6-39.2,54.3-69.8,90.9-90.9L160.5,81z"
       id="path21" /><path
       class="st4"
       d="M270.1,22.4v29.3c-39.9,0-77.3,10.7-109.6,29.3l-14.6-25.3C185.1,33,227.9,22.3,270.1,22.4z"
       id="path23" /><path
       class="st5"
       d="M394.3,55.6L379.7,81C347.5,62.3,310,51.7,270.1,51.7V22.4C315.4,22.4,357.8,34.5,394.3,55.6z"
       id="path25" /><path
       class="st6"
       d="M485.3,146.5l-25.4,14.7c-19.2-33.2-46.9-61-80.2-80.2l14.6-25.4C433.5,78.2,464.2,110,485.3,146.5z"
       id="path27" /><path
       class="st7"
       d="M518.5,270.8h-29.3c0-39.9-10.7-77.3-29.3-109.6l25.4-14.7C507.9,185.7,518.5,228.6,518.5,270.8z"
       id="path29" /></g><g
     id="Legend_Arc_Divider_Lines"
     class="st0"><line
       class="st8"
       x1="55"
       y1="146.6"
       x2="80.4"
       y2="161.2"
       id="line32" /><line
       class="st8"
       x1="160.5"
       y1="81"
       x2="145.9"
       y2="55.6"
       id="line34" /><line
       class="st8"
       x1="270.1"
       y1="22.4"
       x2="270.1"
       y2="51.7"
       id="line36" /><line
       class="st8"
       x1="379.7"
       y1="81"
       x2="394.3"
       y2="55.6"
       id="line38" /><line
       class="st8"
       x1="485.3"
       y1="146.5"
       x2="459.9"
       y2="161.2"
       id="line40" /></g><g
     id="Legend_Numbers"
     class="st0"><g
       class="st9"
       id="g49"><path
         class="st10"
         d="M260,81h-1.8v-9.4c0-0.3,0-0.6,0-0.9c0-0.3,0-0.7,0-1c0-0.3,0-0.6,0-1c0-0.3,0-0.6,0-0.8    c-0.1,0.1-0.2,0.2-0.3,0.3s-0.2,0.2-0.3,0.3c-0.1,0.1-0.2,0.2-0.3,0.3c-0.1,0.1-0.2,0.2-0.4,0.3l-1.5,1.2l-1-1.3l3.9-3.1h1.5V81z"
         id="path43" /><path
         class="st10"
         d="M268.2,71.8c0.7,0,1.3,0.1,1.9,0.3c0.6,0.2,1.1,0.5,1.5,0.8c0.4,0.4,0.8,0.8,1,1.4s0.4,1.2,0.4,1.9    c0,0.8-0.1,1.5-0.3,2.1s-0.6,1.1-1,1.6c-0.5,0.4-1,0.8-1.7,1c-0.7,0.2-1.4,0.3-2.3,0.3c-0.3,0-0.7,0-1-0.1c-0.3,0-0.7-0.1-1-0.1    c-0.3-0.1-0.6-0.1-0.9-0.3s-0.5-0.2-0.8-0.4v-1.8c0.2,0.2,0.5,0.3,0.8,0.4c0.3,0.1,0.6,0.2,1,0.3s0.7,0.1,1,0.2    c0.3,0,0.7,0.1,0.9,0.1c0.5,0,1-0.1,1.4-0.2c0.4-0.1,0.8-0.3,1.1-0.6s0.5-0.6,0.7-1s0.2-0.9,0.2-1.4c0-1-0.3-1.7-0.9-2.2    c-0.6-0.5-1.5-0.8-2.6-0.8c-0.2,0-0.4,0-0.6,0c-0.2,0-0.4,0-0.6,0.1c-0.2,0-0.4,0.1-0.6,0.1c-0.2,0-0.4,0.1-0.5,0.1l-0.9-0.6    l0.6-7.1h7.1v1.7h-5.5L266,72c0.2,0,0.5-0.1,0.9-0.1C267.3,71.8,267.7,71.8,268.2,71.8z"
         id="path45" /><path
         class="st10"
         d="M284.7,73.5c0,1.2-0.1,2.3-0.3,3.3c-0.2,1-0.5,1.8-0.8,2.4c-0.4,0.7-0.9,1.2-1.5,1.5    c-0.6,0.3-1.3,0.5-2.2,0.5c-0.8,0-1.5-0.2-2.1-0.5c-0.6-0.3-1.1-0.9-1.5-1.5c-0.4-0.7-0.7-1.5-0.9-2.4c-0.2-1-0.3-2-0.3-3.3    s0.1-2.3,0.3-3.3c0.2-1,0.5-1.8,0.8-2.4c0.4-0.7,0.9-1.2,1.5-1.5c0.6-0.3,1.3-0.5,2.2-0.5c0.8,0,1.5,0.2,2.1,0.5s1.1,0.8,1.5,1.5    c0.4,0.7,0.7,1.5,0.9,2.4C284.6,71.2,284.7,72.3,284.7,73.5z M277,73.5c0,1,0.1,1.9,0.2,2.7s0.3,1.4,0.5,1.9s0.5,0.9,0.9,1.1    c0.4,0.3,0.8,0.4,1.3,0.4c0.5,0,1-0.1,1.3-0.4s0.7-0.6,0.9-1.1c0.2-0.5,0.4-1.1,0.5-1.9c0.1-0.8,0.2-1.7,0.2-2.7    c0-1-0.1-1.9-0.2-2.7c-0.1-0.8-0.3-1.4-0.5-1.9c-0.2-0.5-0.5-0.9-0.9-1.1s-0.8-0.4-1.3-0.4c-0.5,0-1,0.1-1.3,0.4    c-0.4,0.3-0.7,0.6-0.9,1.1s-0.4,1.1-0.5,1.9S277,72.5,277,73.5z"
         id="path47" /></g><g
       class="st9"
       id="g57"><path
         class="st10"
         d="M361.6,104.6l-8-4.9l0.8-1.4l5.1-1.5c0.7-0.2,1.4-0.4,2-0.6c0.6-0.2,1.1-0.4,1.6-0.6    c0.5-0.2,0.9-0.5,1.2-0.8c0.4-0.3,0.7-0.7,0.9-1.1c0.2-0.3,0.3-0.7,0.4-1s0.1-0.6,0-0.9c-0.1-0.3-0.2-0.6-0.4-0.8    c-0.2-0.2-0.4-0.5-0.8-0.7c-0.6-0.3-1.1-0.5-1.7-0.6c-0.6,0-1.2,0-1.8,0.1l-0.3-1.6c0.4-0.1,0.7-0.1,1.1-0.1c0.4,0,0.8,0,1.2,0.1    s0.8,0.1,1.2,0.3c0.4,0.1,0.8,0.3,1.2,0.5c0.6,0.3,1,0.7,1.4,1.2c0.4,0.4,0.6,0.9,0.7,1.4c0.1,0.5,0.2,1,0.1,1.5    c-0.1,0.5-0.3,1.1-0.6,1.6c-0.3,0.5-0.7,0.9-1.1,1.3c-0.4,0.4-0.9,0.7-1.4,0.9c-0.5,0.3-1.1,0.5-1.8,0.7c-0.6,0.2-1.3,0.4-2.1,0.6    l-4.1,1.1l0,0.1l6,3.7L361.6,104.6z"
         id="path51" /><path
         class="st10"
         d="M375.5,104.3c-0.6,1-1.3,1.9-1.9,2.6c-0.6,0.7-1.3,1.3-2,1.6c-0.7,0.4-1.4,0.5-2.1,0.5    c-0.7,0-1.4-0.3-2.2-0.7c-0.7-0.4-1.2-0.9-1.5-1.5c-0.3-0.6-0.5-1.3-0.5-2.1c0-0.8,0.2-1.6,0.5-2.5c0.3-0.9,0.8-1.9,1.4-2.9    c0.6-1,1.3-1.9,1.9-2.6s1.3-1.3,2-1.6c0.7-0.4,1.4-0.5,2-0.5c0.7,0,1.4,0.3,2.2,0.7c0.7,0.4,1.2,0.9,1.5,1.5    c0.3,0.6,0.5,1.3,0.5,2.1c0,0.8-0.2,1.6-0.5,2.5C376.7,102.3,376.2,103.2,375.5,104.3z M369,100.3c-0.5,0.9-1,1.7-1.3,2.4    c-0.3,0.7-0.5,1.3-0.6,1.9c-0.1,0.6,0,1,0.2,1.4c0.2,0.4,0.5,0.8,0.9,1c0.4,0.3,0.9,0.4,1.3,0.4c0.4,0,0.9-0.2,1.4-0.5    c0.5-0.3,0.9-0.8,1.4-1.4s1-1.3,1.5-2.2c0.5-0.9,1-1.7,1.3-2.4c0.3-0.7,0.5-1.3,0.6-1.9c0.1-0.6,0-1-0.2-1.4s-0.5-0.8-0.9-1    c-0.5-0.3-0.9-0.4-1.3-0.4c-0.4,0-0.9,0.2-1.3,0.5s-0.9,0.8-1.4,1.4C370,98.7,369.5,99.4,369,100.3z"
         id="path53" /><path
         class="st10"
         d="M385.4,110.3c-0.6,1-1.3,1.9-1.9,2.6c-0.6,0.7-1.3,1.3-2,1.6c-0.7,0.4-1.4,0.5-2.1,0.5    c-0.7,0-1.4-0.3-2.2-0.7c-0.7-0.4-1.2-0.9-1.5-1.5c-0.3-0.6-0.5-1.3-0.5-2.1c0-0.8,0.2-1.6,0.5-2.5c0.3-0.9,0.8-1.9,1.4-2.9    c0.6-1,1.3-1.9,1.9-2.6c0.6-0.7,1.3-1.3,2-1.6c0.7-0.4,1.4-0.5,2-0.5c0.7,0,1.4,0.3,2.2,0.7c0.7,0.4,1.2,0.9,1.5,1.5    c0.3,0.6,0.5,1.3,0.5,2.1c0,0.8-0.2,1.6-0.5,2.5C386.5,108.3,386.1,109.3,385.4,110.3z M378.9,106.3c-0.5,0.9-1,1.7-1.3,2.4    s-0.5,1.3-0.6,1.9c-0.1,0.6,0,1,0.2,1.4c0.2,0.4,0.5,0.8,0.9,1c0.4,0.3,0.9,0.4,1.3,0.4s0.9-0.2,1.4-0.5s0.9-0.8,1.4-1.4    c0.5-0.6,1-1.3,1.5-2.2c0.5-0.9,1-1.7,1.3-2.4c0.3-0.7,0.5-1.3,0.6-1.9c0.1-0.6,0-1-0.2-1.4c-0.2-0.4-0.5-0.8-0.9-1    c-0.5-0.3-0.9-0.4-1.3-0.4c-0.4,0-0.9,0.2-1.3,0.5s-0.9,0.8-1.4,1.4C379.9,104.7,379.4,105.4,378.9,106.3z"
         id="path55" /></g><g
       class="st9"
       id="g65"><path
         class="st10"
         d="M440.3,163.9c-0.4,0.2-0.9,0.4-1.3,0.5c-0.4,0.1-0.9,0-1.3,0c-0.4-0.1-0.8-0.3-1.2-0.5    c-0.4-0.2-0.7-0.6-1-0.9l-0.1,0c0.5,1.1,0.6,2.1,0.4,3c-0.2,0.9-0.8,1.5-1.6,2c-0.6,0.3-1.1,0.5-1.7,0.6c-0.6,0.1-1.2,0-1.7-0.2    s-1.1-0.5-1.6-1c-0.5-0.5-1-1.2-1.5-2c-0.4-0.6-0.7-1.3-0.9-1.9c-0.2-0.6-0.3-1.3-0.4-1.9l1.5-0.9c0,0.7,0.1,1.4,0.3,2    c0.2,0.7,0.4,1.3,0.8,1.9c0.3,0.5,0.6,1,1,1.3c0.3,0.3,0.7,0.6,1.1,0.7c0.4,0.1,0.7,0.2,1.1,0.1c0.4-0.1,0.8-0.2,1.2-0.4    c0.4-0.2,0.7-0.5,0.9-0.8c0.2-0.3,0.3-0.7,0.3-1.1c0-0.4,0-0.8-0.2-1.3c-0.1-0.5-0.4-1-0.7-1.5l-0.7-1.2l1.3-0.8l0.7,1.2    c0.3,0.5,0.6,0.9,0.9,1.2s0.7,0.5,1,0.7c0.4,0.1,0.7,0.2,1.1,0.1c0.4,0,0.7-0.2,1.1-0.4c0.3-0.2,0.6-0.4,0.7-0.6    c0.2-0.2,0.3-0.5,0.4-0.8c0.1-0.3,0.1-0.6,0-0.9c-0.1-0.3-0.2-0.7-0.4-1c-0.4-0.6-0.8-1.1-1.3-1.5c-0.5-0.4-1-0.7-1.6-0.9l0.6-1.5    c0.3,0.1,0.6,0.3,0.9,0.5s0.6,0.4,0.9,0.7s0.6,0.6,0.9,0.9c0.3,0.3,0.5,0.7,0.8,1.1c0.4,0.6,0.6,1.3,0.7,1.8    c0.1,0.6,0.1,1.1,0,1.6c-0.1,0.5-0.3,0.9-0.6,1.3C441.2,163.3,440.8,163.6,440.3,163.9z"
         id="path59" /><path
         class="st10"
         d="M442.9,176.6c-1.1,0.6-2,1.1-3,1.4c-0.9,0.3-1.8,0.5-2.5,0.5c-0.8,0-1.5-0.2-2.1-0.5    c-0.6-0.4-1.1-0.9-1.5-1.7c-0.4-0.7-0.6-1.4-0.6-2.1c0-0.7,0.2-1.4,0.6-2c0.4-0.7,0.9-1.3,1.7-2c0.7-0.6,1.6-1.3,2.7-1.9    c1.1-0.6,2-1.1,3-1.4c0.9-0.3,1.8-0.5,2.5-0.5c0.8,0,1.4,0.2,2,0.5s1.1,0.9,1.5,1.7c0.4,0.7,0.6,1.4,0.6,2.1c0,0.7-0.2,1.4-0.6,2    c-0.4,0.7-0.9,1.3-1.7,2C444.9,175.3,444,176,442.9,176.6z M439.1,169.9c-0.9,0.5-1.6,1-2.3,1.5s-1.1,0.9-1.4,1.4    s-0.5,0.9-0.6,1.3c0,0.4,0.1,0.9,0.3,1.4c0.3,0.5,0.6,0.8,1,1c0.4,0.2,0.9,0.3,1.4,0.2c0.6,0,1.2-0.2,1.9-0.5    c0.7-0.3,1.5-0.7,2.4-1.2c0.9-0.5,1.6-1,2.3-1.5c0.6-0.5,1.1-0.9,1.4-1.4c0.3-0.5,0.5-0.9,0.5-1.4c0-0.4-0.1-0.9-0.3-1.4    c-0.3-0.5-0.6-0.8-1-1s-0.9-0.3-1.4-0.2c-0.6,0.1-1.2,0.2-1.9,0.5C440.8,169,440,169.4,439.1,169.9z"
         id="path61" /><path
         class="st10"
         d="M448.6,186.6c-1.1,0.6-2,1.1-3,1.4c-0.9,0.3-1.8,0.5-2.5,0.5c-0.8,0-1.5-0.2-2.1-0.5    c-0.6-0.4-1.1-0.9-1.5-1.7c-0.4-0.7-0.6-1.4-0.6-2.1c0-0.7,0.2-1.4,0.6-2c0.4-0.7,0.9-1.3,1.7-2c0.7-0.6,1.6-1.3,2.7-1.9    c1.1-0.6,2-1.1,3-1.4s1.8-0.5,2.5-0.5c0.8,0,1.4,0.2,2,0.5c0.6,0.4,1.1,0.9,1.5,1.7c0.4,0.7,0.6,1.4,0.6,2.1c0,0.7-0.2,1.4-0.6,2    c-0.4,0.7-0.9,1.3-1.7,2C450.6,185.4,449.7,186,448.6,186.6z M444.8,179.9c-0.9,0.5-1.6,1-2.3,1.5c-0.6,0.5-1.1,0.9-1.4,1.4    c-0.3,0.4-0.5,0.9-0.6,1.3c0,0.4,0.1,0.9,0.3,1.4c0.3,0.5,0.6,0.8,1,1s0.9,0.3,1.4,0.2c0.6,0,1.2-0.2,1.9-0.5    c0.7-0.3,1.5-0.7,2.4-1.2c0.9-0.5,1.6-1,2.3-1.5c0.6-0.5,1.1-0.9,1.4-1.4c0.3-0.5,0.5-0.9,0.5-1.4c0-0.4-0.1-0.9-0.3-1.4    c-0.3-0.5-0.6-0.8-1-1c-0.4-0.2-0.9-0.3-1.4-0.2c-0.6,0.1-1.2,0.2-1.9,0.5C446.5,179,445.7,179.4,444.8,179.9z"
         id="path63" /></g><g
       class="st9"
       id="g73"><path
         class="st10"
         d="M167.1,111.4l-1.6,0.9l-4.7-8.1c-0.1-0.3-0.3-0.5-0.5-0.8c-0.2-0.3-0.3-0.6-0.5-0.9    c-0.2-0.3-0.3-0.6-0.4-0.8c-0.1-0.3-0.3-0.5-0.4-0.7c0,0.2-0.1,0.3-0.1,0.4s-0.1,0.2-0.1,0.4c0,0.1-0.1,0.2-0.1,0.4    s-0.1,0.3-0.2,0.5l-0.7,1.8l-1.5-0.6l1.9-4.6l1.3-0.8L167.1,111.4z"
         id="path67" /><path
         class="st10"
         d="M174.8,98.3c0.6,1,1.1,2,1.4,2.9c0.3,0.9,0.5,1.8,0.5,2.5c0,0.8-0.2,1.5-0.5,2.1c-0.4,0.6-0.9,1.1-1.7,1.6    c-0.7,0.4-1.4,0.6-2.1,0.6c-0.7,0-1.4-0.2-2-0.6c-0.7-0.4-1.3-0.9-2-1.7c-0.6-0.7-1.3-1.6-1.9-2.7c-0.6-1-1.1-2-1.4-2.9    c-0.3-0.9-0.5-1.8-0.5-2.5c0-0.8,0.2-1.4,0.5-2c0.4-0.6,0.9-1.1,1.6-1.5c0.7-0.4,1.4-0.6,2.1-0.6s1.4,0.2,2,0.6    c0.7,0.4,1.3,0.9,2,1.7C173.6,96.3,174.2,97.2,174.8,98.3z M168.1,102.1c0.5,0.9,1,1.6,1.5,2.3c0.5,0.6,0.9,1.1,1.4,1.4    c0.4,0.3,0.9,0.5,1.3,0.6c0.4,0,0.9-0.1,1.4-0.3c0.5-0.3,0.8-0.6,1-1c0.2-0.4,0.3-0.9,0.2-1.4s-0.2-1.2-0.5-1.9    c-0.3-0.7-0.7-1.5-1.2-2.4c-0.5-0.9-1-1.6-1.5-2.3c-0.5-0.6-0.9-1.1-1.4-1.4c-0.5-0.3-0.9-0.5-1.4-0.5c-0.4,0-0.9,0.1-1.4,0.3    c-0.5,0.3-0.8,0.6-1,1c-0.2,0.4-0.3,0.9-0.2,1.4c0.1,0.6,0.2,1.2,0.5,1.9C167.2,100.4,167.6,101.2,168.1,102.1z"
         id="path69" /><path
         class="st10"
         d="M184.8,92.5c0.6,1,1.1,2,1.4,2.9c0.3,0.9,0.5,1.8,0.5,2.5c0,0.8-0.2,1.5-0.5,2.1c-0.4,0.6-0.9,1.1-1.7,1.6    c-0.7,0.4-1.4,0.6-2.1,0.6c-0.7,0-1.4-0.2-2-0.6c-0.7-0.4-1.3-0.9-2-1.7c-0.6-0.7-1.3-1.6-1.9-2.7c-0.6-1-1.1-2-1.4-2.9    c-0.3-0.9-0.5-1.8-0.5-2.5c0-0.8,0.2-1.4,0.5-2c0.4-0.6,0.9-1.1,1.6-1.5c0.7-0.4,1.4-0.6,2.1-0.6c0.7,0,1.4,0.2,2,0.6    c0.7,0.4,1.3,0.9,2,1.7C183.6,90.6,184.2,91.5,184.8,92.5z M178.2,96.3c0.5,0.9,1,1.6,1.5,2.3s0.9,1.1,1.4,1.4s0.9,0.5,1.3,0.6    c0.4,0,0.9-0.1,1.4-0.3c0.5-0.3,0.8-0.6,1-1c0.2-0.4,0.3-0.9,0.2-1.4c0-0.6-0.2-1.2-0.5-1.9c-0.3-0.7-0.7-1.5-1.2-2.4    c-0.5-0.9-1-1.6-1.5-2.3c-0.5-0.6-0.9-1.1-1.4-1.4c-0.5-0.3-0.9-0.5-1.4-0.5c-0.4,0-0.9,0.1-1.4,0.3c-0.5,0.3-0.8,0.6-1,1    c-0.2,0.4-0.3,0.9-0.2,1.4s0.2,1.2,0.5,1.9C177.3,94.7,177.7,95.5,178.2,96.3z"
         id="path71" /></g><g
       class="st9"
       id="g79"><path
         class="st10"
         d="M94.7,177.6c0.3-0.6,0.7-1.1,1.2-1.5c0.5-0.4,1-0.7,1.5-0.9c0.5-0.2,1.1-0.3,1.7-0.2    c0.6,0.1,1.2,0.3,1.8,0.6c0.7,0.4,1.2,0.8,1.6,1.3c0.4,0.5,0.7,1.1,0.9,1.7c0.1,0.6,0.1,1.3,0,2c-0.1,0.7-0.4,1.4-0.9,2.2    c-0.2,0.3-0.4,0.6-0.6,0.9c-0.2,0.3-0.4,0.5-0.6,0.8c-0.2,0.2-0.4,0.5-0.7,0.6c-0.2,0.2-0.5,0.4-0.7,0.5l-1.5-0.9    c0.2-0.1,0.5-0.3,0.8-0.5c0.3-0.2,0.5-0.4,0.7-0.7c0.2-0.2,0.5-0.5,0.7-0.8c0.2-0.3,0.4-0.5,0.5-0.8c0.3-0.5,0.5-0.9,0.6-1.3    c0.1-0.4,0.1-0.8,0-1.2c-0.1-0.4-0.3-0.8-0.5-1.1s-0.6-0.6-1.1-0.9c-0.8-0.5-1.6-0.6-2.4-0.3c-0.7,0.3-1.4,0.9-2,1.9    c-0.1,0.2-0.2,0.3-0.3,0.5s-0.2,0.4-0.3,0.6c-0.1,0.2-0.2,0.4-0.2,0.6c-0.1,0.2-0.1,0.3-0.2,0.5l-1,0.5l-5.8-4l3.5-6.1l1.5,0.8    l-2.7,4.7l3.5,2.5c0.1-0.2,0.2-0.5,0.3-0.8S94.5,178,94.7,177.6z"
         id="path75" /><path
         class="st10"
         d="M104.4,164.1c1,0.6,1.9,1.2,2.7,1.8c0.7,0.6,1.3,1.3,1.7,1.9c0.4,0.7,0.6,1.3,0.6,2c0,0.7-0.2,1.4-0.6,2.2    c-0.4,0.7-0.9,1.2-1.5,1.6c-0.6,0.3-1.3,0.5-2.1,0.5c-0.8,0-1.6-0.1-2.5-0.4c-0.9-0.3-1.9-0.8-3-1.4c-1-0.6-1.9-1.2-2.7-1.8    c-0.7-0.6-1.3-1.3-1.7-1.9c-0.4-0.7-0.6-1.3-0.6-2c0-0.7,0.2-1.4,0.6-2.2c0.4-0.7,0.9-1.2,1.5-1.6s1.3-0.5,2.1-0.5    c0.8,0,1.6,0.1,2.5,0.4C102.4,163,103.4,163.5,104.4,164.1z M100.6,170.8c0.9,0.5,1.7,0.9,2.4,1.2s1.3,0.5,1.9,0.5    c0.6,0.1,1,0,1.4-0.2c0.4-0.2,0.7-0.5,1-1c0.3-0.5,0.4-0.9,0.3-1.4s-0.2-0.9-0.5-1.4c-0.3-0.5-0.8-0.9-1.4-1.4    c-0.6-0.5-1.4-1-2.3-1.5c-0.9-0.5-1.7-0.9-2.4-1.2c-0.7-0.3-1.4-0.5-1.9-0.5c-0.6,0-1,0-1.4,0.2c-0.4,0.2-0.7,0.5-1,1    c-0.3,0.5-0.4,0.9-0.3,1.3c0,0.4,0.2,0.9,0.5,1.3c0.3,0.4,0.8,0.9,1.4,1.4S99.7,170.2,100.6,170.8z"
         id="path77" /></g></g><g
     id="Category_Hazardous"
     class="st0"><path
       id="Category_Outline_5_"
       class="st1"
       d="M420.8,270.7c0-83-67.3-150.4-150.4-150.4S120,187.7,120,270.7H420.8z" /><path
       id="Category_Semi_Circle_5_"
       class="st7"
       d="M420.8,270.7c0-83-67.3-150.4-150.4-150.4S120,187.7,120,270.7H420.8z" /><g
       class="st9"
       id="g102"><path
         class="st10"
         d="M205.7,220.8h-3.3v-12h-11.7v12h-3.3v-25.7h3.3v10.8h11.7v-10.8h3.3V220.8z"
         id="path84" /><path
         class="st10"
         d="M223.1,220.8l-0.7-2.7h-0.1c-0.4,0.5-0.8,1-1.2,1.4s-0.8,0.7-1.3,0.9s-1,0.4-1.5,0.5s-1.2,0.2-2,0.2    c-0.8,0-1.6-0.1-2.2-0.3s-1.3-0.6-1.8-1.1s-0.9-1.1-1.2-1.8s-0.4-1.6-0.4-2.6c0-1.9,0.7-3.4,2-4.4s3.4-1.6,6.2-1.7l3.2-0.1v-1.2    c0-0.8-0.1-1.4-0.3-2s-0.4-1-0.7-1.3s-0.7-0.6-1.2-0.7s-1-0.2-1.6-0.2c-1,0-1.9,0.1-2.7,0.4s-1.6,0.6-2.4,1l-1.1-2.4    c0.9-0.5,1.8-0.9,2.9-1.2s2.2-0.5,3.4-0.5c1.2,0,2.2,0.1,3.1,0.4s1.6,0.6,2.2,1.1s1,1.2,1.3,2s0.4,1.8,0.4,2.9v13.2H223.1z     M217.2,218.5c0.7,0,1.4-0.1,2-0.3s1.1-0.6,1.6-1s0.8-1,1-1.7s0.4-1.5,0.4-2.4v-1.7l-2.5,0.1c-1.1,0-1.9,0.2-2.7,0.4    s-1.3,0.4-1.7,0.8s-0.7,0.7-0.9,1.2s-0.3,1-0.3,1.6c0,1.1,0.3,1.9,0.9,2.4S216.3,218.5,217.2,218.5z"
         id="path86" /><path
         class="st10"
         d="M242.7,220.8h-13v-2.2l9.4-14.7h-8.8v-2.4h12.1v2.6l-9.2,14.3h9.5V220.8z"
         id="path88" /><path
         class="st10"
         d="M258.1,220.8l-0.7-2.7h-0.1c-0.4,0.5-0.8,1-1.2,1.4s-0.8,0.7-1.3,0.9s-1,0.4-1.5,0.5s-1.2,0.2-2,0.2    c-0.8,0-1.6-0.1-2.2-0.3s-1.3-0.6-1.8-1.1s-0.9-1.1-1.2-1.8s-0.4-1.6-0.4-2.6c0-1.9,0.7-3.4,2-4.4s3.4-1.6,6.2-1.7l3.2-0.1v-1.2    c0-0.8-0.1-1.4-0.3-2s-0.4-1-0.7-1.3s-0.7-0.6-1.2-0.7s-1-0.2-1.6-0.2c-1,0-1.9,0.1-2.7,0.4s-1.6,0.6-2.4,1l-1.1-2.4    c0.9-0.5,1.8-0.9,2.9-1.2s2.2-0.5,3.4-0.5c1.2,0,2.2,0.1,3.1,0.4s1.6,0.6,2.2,1.1s1,1.2,1.3,2s0.4,1.8,0.4,2.9v13.2H258.1z     M252.2,218.5c0.7,0,1.4-0.1,2-0.3s1.1-0.6,1.6-1s0.8-1,1-1.7s0.4-1.5,0.4-2.4v-1.7l-2.5,0.1c-1.1,0-1.9,0.2-2.7,0.4    s-1.3,0.4-1.7,0.8s-0.7,0.7-0.9,1.2s-0.3,1-0.3,1.6c0,1.1,0.3,1.9,0.9,2.4S251.3,218.5,252.2,218.5z"
         id="path90" /><path
         class="st10"
         d="M274.7,201.1c0.3,0,0.7,0,1.1,0s0.8,0.1,1.1,0.1l-0.4,3c-0.3-0.1-0.7-0.1-1-0.1s-0.7-0.1-1-0.1    c-0.7,0-1.4,0.1-2,0.4s-1.1,0.7-1.6,1.3s-0.8,1.2-1,2s-0.4,1.6-0.4,2.6v10.4h-3.2v-19.3h2.6l0.4,3.5h0.1c0.3-0.5,0.6-1,0.9-1.5    s0.7-0.9,1.1-1.2s0.9-0.6,1.4-0.9S274,201.1,274.7,201.1z"
         id="path92" /><path
         class="st10"
         d="M292.6,218.2h-0.1c-0.3,0.4-0.6,0.8-0.9,1.1s-0.7,0.7-1.2,0.9s-1,0.5-1.5,0.6s-1.2,0.2-1.9,0.2    c-1.1,0-2.1-0.2-3-0.6s-1.7-1.1-2.3-1.9s-1.1-1.9-1.5-3.1s-0.5-2.7-0.5-4.3c0-1.7,0.2-3.1,0.5-4.4s0.8-2.3,1.5-3.1    s1.4-1.5,2.3-1.9s1.9-0.6,3-0.6c0.7,0,1.3,0.1,1.9,0.2s1.1,0.4,1.5,0.6s0.9,0.6,1.2,0.9s0.7,0.7,0.9,1.1h0.2    c0-0.4-0.1-0.8-0.1-1.1c0-0.3,0-0.6-0.1-0.9s0-0.6,0-0.8v-7.7h3.2v27.4h-2.6L292.6,218.2z M287.5,218.4c0.9,0,1.6-0.1,2.3-0.4    s1.1-0.7,1.5-1.2s0.7-1.2,0.8-2.1s0.3-1.8,0.3-2.9v-0.7c0-1.2-0.1-2.2-0.2-3.2s-0.4-1.7-0.8-2.3s-0.9-1.1-1.5-1.4    s-1.4-0.5-2.4-0.5c-1.6,0-2.7,0.6-3.5,1.9s-1.1,3.1-1.1,5.5c0,2.4,0.4,4.3,1.1,5.5S285.9,218.4,287.5,218.4z"
         id="path94" /><path
         class="st10"
         d="M317.5,211.1c0,1.6-0.2,3-0.6,4.3s-1,2.3-1.7,3.1s-1.6,1.5-2.7,1.9s-2.2,0.7-3.5,0.7c-1.2,0-2.3-0.2-3.3-0.7    s-1.9-1.1-2.6-1.9s-1.3-1.9-1.7-3.1s-0.6-2.7-0.6-4.3c0-1.6,0.2-3,0.6-4.2s1-2.3,1.7-3.1s1.6-1.5,2.7-1.9s2.2-0.7,3.5-0.7    c1.2,0,2.3,0.2,3.3,0.7s1.9,1.1,2.6,1.9s1.3,1.9,1.7,3.1S317.5,209.5,317.5,211.1z M304,211.1c0,2.4,0.4,4.3,1.2,5.5    s2.1,1.9,3.9,1.9s3.1-0.6,3.9-1.9s1.2-3.1,1.2-5.5s-0.4-4.3-1.2-5.5s-2.1-1.8-3.9-1.8s-3.1,0.6-3.9,1.8S304,208.6,304,211.1z"
         id="path96" /><path
         class="st10"
         d="M335,220.8l-0.5-2.6h-0.2c-0.3,0.5-0.6,0.9-1,1.3s-0.8,0.7-1.3,0.9s-1,0.4-1.5,0.5s-1.1,0.2-1.7,0.2    c-1.1,0-2-0.1-2.8-0.4s-1.5-0.7-2-1.3s-0.9-1.3-1.2-2.2s-0.4-2-0.4-3.2v-12.6h3.2v12.4c0,1.5,0.3,2.7,0.9,3.4s1.6,1.1,2.9,1.1    c0.9,0,1.7-0.2,2.4-0.5s1.2-0.8,1.6-1.3s0.7-1.3,0.8-2.2s0.3-1.9,0.3-3v-10h3.2v19.3H335z"
         id="path98" /><path
         class="st10"
         d="M355.3,215.5c0,0.9-0.2,1.8-0.5,2.5s-0.8,1.3-1.5,1.8s-1.4,0.8-2.3,1.1s-1.9,0.4-3,0.4    c-1.3,0-2.4-0.1-3.3-0.3s-1.7-0.5-2.4-0.9V217c0.4,0.2,0.8,0.4,1.2,0.6s0.9,0.3,1.4,0.5s1,0.3,1.5,0.3s1,0.1,1.6,0.1    c0.8,0,1.4-0.1,1.9-0.2s1-0.3,1.3-0.6s0.6-0.5,0.7-0.9s0.2-0.7,0.2-1.2c0-0.4-0.1-0.7-0.2-1s-0.3-0.6-0.6-0.9s-0.7-0.6-1.3-0.9    s-1.2-0.6-2.1-1s-1.6-0.7-2.3-1.1s-1.2-0.7-1.7-1.2s-0.8-0.9-1.1-1.5s-0.4-1.2-0.4-2c0-0.8,0.2-1.5,0.5-2.2s0.8-1.2,1.4-1.6    s1.3-0.8,2.1-1s1.7-0.3,2.7-0.3c1.1,0,2.2,0.1,3.1,0.4s1.8,0.6,2.7,1l-1.1,2.6c-0.8-0.3-1.5-0.6-2.3-0.9s-1.6-0.4-2.5-0.4    c-1.2,0-2.1,0.2-2.7,0.6s-0.9,1-0.9,1.7c0,0.4,0.1,0.8,0.2,1.1s0.4,0.6,0.7,0.9s0.8,0.5,1.3,0.8s1.2,0.6,2.1,0.9    c0.8,0.4,1.6,0.7,2.3,1.1s1.2,0.7,1.7,1.2s0.8,0.9,1.1,1.5S355.3,214.7,355.3,215.5z"
         id="path100" /></g></g><g
     id="Category_Very_Unhealthy"
     class="st0"><path
       id="Category_Outline_4_"
       class="st1"
       d="M420.8,270.7c0-83-67.3-150.4-150.4-150.4S120,187.7,120,270.7H420.8z" /><path
       id="Category_Semi_Circle_4_"
       class="st6"
       d="M420.8,270.7c0-83-67.3-150.4-150.4-150.4S120,187.7,120,270.7H420.8z" /><g
       class="st9"
       id="g133"><path
         class="st10"
         d="M254.1,176.2h3.1l-7.6,22.8h-2.9l-7.6-22.8h3.1l4.6,14.5c0.3,0.9,0.6,1.9,0.8,2.7c0.2,0.9,0.4,1.7,0.6,2.5    c0.2-0.8,0.4-1.6,0.6-2.5c0.2-0.9,0.5-1.8,0.8-2.8L254.1,176.2z"
         id="path107" /><path
         class="st10"
         d="M265.8,199.3c-1.1,0-2.2-0.2-3.1-0.6c-0.9-0.4-1.8-0.9-2.4-1.7c-0.7-0.7-1.2-1.7-1.6-2.8s-0.6-2.3-0.6-3.8    c0-1.4,0.2-2.7,0.5-3.8c0.3-1.1,0.8-2.1,1.5-2.8c0.6-0.8,1.4-1.4,2.2-1.8c0.9-0.4,1.8-0.6,2.9-0.6c1,0,2,0.2,2.8,0.6    c0.8,0.4,1.5,0.9,2.1,1.6c0.6,0.7,1,1.5,1.3,2.4c0.3,0.9,0.5,2,0.5,3.1v1.8H261c0.1,2,0.5,3.5,1.3,4.4c0.8,0.9,2,1.4,3.6,1.4    c0.5,0,1,0,1.5-0.1c0.5-0.1,0.9-0.1,1.3-0.2c0.4-0.1,0.8-0.2,1.2-0.4c0.4-0.2,0.8-0.3,1.2-0.5v2.5c-0.4,0.2-0.8,0.4-1.2,0.5    c-0.4,0.1-0.8,0.3-1.2,0.4s-0.9,0.2-1.3,0.2C266.8,199.3,266.3,199.3,265.8,199.3z M265.1,183.9c-1.2,0-2.1,0.4-2.8,1.2    c-0.7,0.8-1.1,2-1.2,3.5h7.7c0-0.7-0.1-1.4-0.2-1.9c-0.1-0.6-0.4-1.1-0.7-1.5c-0.3-0.4-0.7-0.7-1.1-1    C266.3,184,265.7,183.9,265.1,183.9z"
         id="path109" /><path
         class="st10"
         d="M283.5,181.5c0.3,0,0.6,0,1,0c0.4,0,0.7,0.1,1,0.1l-0.4,2.6c-0.3-0.1-0.6-0.1-0.9-0.1    c-0.3,0-0.6-0.1-0.9-0.1c-0.7,0-1.3,0.1-1.8,0.4c-0.5,0.3-1,0.6-1.4,1.1c-0.4,0.5-0.7,1.1-0.9,1.8c-0.2,0.7-0.3,1.5-0.3,2.3v9.3    h-2.8v-17.2h2.3l0.3,3.1h0.1c0.3-0.4,0.5-0.9,0.8-1.3c0.3-0.4,0.6-0.8,1-1.1c0.4-0.3,0.8-0.6,1.2-0.8    C282.4,181.6,282.9,181.5,283.5,181.5z"
         id="path111" /><path
         class="st10"
         d="M286.3,181.8h3l3.4,9.6c0.1,0.4,0.3,0.9,0.4,1.3c0.2,0.5,0.3,0.9,0.4,1.4c0.1,0.5,0.2,0.9,0.3,1.3    c0.1,0.4,0.2,0.8,0.2,1.2h0.1c0.1-0.3,0.1-0.6,0.3-1.1c0.1-0.4,0.2-0.9,0.4-1.4c0.1-0.5,0.3-1,0.4-1.5c0.2-0.5,0.3-0.9,0.4-1.3    l3.1-9.5h2.9l-6.8,19.4c-0.3,0.8-0.6,1.6-0.9,2.3c-0.3,0.7-0.7,1.2-1.2,1.7c-0.4,0.5-1,0.8-1.6,1.1c-0.6,0.3-1.3,0.4-2.2,0.4    c-0.5,0-1,0-1.4-0.1c-0.4-0.1-0.7-0.1-1-0.2v-2.3c0.2,0.1,0.5,0.1,0.8,0.1c0.3,0,0.7,0.1,1,0.1c0.5,0,0.9-0.1,1.3-0.2    c0.4-0.1,0.7-0.3,1-0.5c0.3-0.2,0.5-0.5,0.7-0.8c0.2-0.3,0.4-0.7,0.5-1.1l0.9-2.5L286.3,181.8z"
         id="path113" /><path
         class="st10"
         d="M216,211.3v14.8c0,1.2-0.2,2.3-0.5,3.3c-0.3,1-0.9,1.9-1.6,2.7c-0.7,0.8-1.6,1.3-2.6,1.8s-2.3,0.6-3.7,0.6    c-1.3,0-2.5-0.2-3.5-0.6c-1-0.4-1.9-1-2.6-1.7c-0.7-0.7-1.2-1.6-1.6-2.7c-0.4-1-0.5-2.2-0.5-3.5v-14.7h2.9v14.9    c0,1.8,0.5,3.2,1.4,4.2c0.9,1,2.3,1.5,4.1,1.5c0.9,0,1.7-0.1,2.4-0.4c0.7-0.3,1.2-0.7,1.6-1.2c0.4-0.5,0.7-1.1,1-1.8    c0.2-0.7,0.3-1.5,0.3-2.3v-14.9H216z"
         id="path115" /><path
         class="st10"
         d="M232.3,234.2v-11c0-1.4-0.3-2.4-0.8-3c-0.5-0.7-1.4-1-2.6-1c-0.8,0-1.6,0.1-2.1,0.4c-0.6,0.3-1,0.7-1.4,1.2    c-0.3,0.5-0.6,1.2-0.8,2c-0.2,0.8-0.2,1.7-0.2,2.7v8.9h-2.8V217h2.3l0.4,2.3h0.2c0.3-0.4,0.6-0.8,0.9-1.2s0.8-0.6,1.2-0.8    c0.4-0.2,0.9-0.4,1.4-0.5c0.5-0.1,1-0.2,1.5-0.2c1.9,0,3.3,0.5,4.3,1.5c1,1,1.4,2.6,1.4,4.8v11.2H232.3z"
         id="path117" /><path
         class="st10"
         d="M251.2,234.2v-11c0-1.4-0.3-2.4-0.8-3c-0.5-0.7-1.4-1-2.6-1c-0.8,0-1.6,0.1-2.1,0.4c-0.6,0.3-1,0.7-1.4,1.2    s-0.6,1.2-0.8,2c-0.2,0.8-0.2,1.7-0.2,2.7v8.9h-2.8v-24.3h2.8v7.2l-0.1,2.3h0.2c0.3-0.4,0.6-0.8,0.9-1.2s0.8-0.6,1.2-0.8    s0.9-0.4,1.4-0.5c0.5-0.1,1-0.2,1.5-0.2c1.9,0,3.3,0.5,4.3,1.5c1,1,1.4,2.6,1.4,4.8v11.2H251.2z"
         id="path119" /><path
         class="st10"
         d="M266.1,234.5c-1.1,0-2.2-0.2-3.1-0.6c-0.9-0.4-1.8-0.9-2.4-1.7c-0.7-0.7-1.2-1.7-1.6-2.8s-0.6-2.3-0.6-3.8    c0-1.4,0.2-2.7,0.5-3.8c0.3-1.1,0.8-2.1,1.5-2.8c0.6-0.8,1.4-1.4,2.2-1.8c0.9-0.4,1.8-0.6,2.9-0.6c1,0,2,0.2,2.8,0.6    c0.8,0.4,1.5,0.9,2.1,1.6c0.6,0.7,1,1.5,1.3,2.4c0.3,0.9,0.5,2,0.5,3.1v1.8h-10.8c0.1,2,0.5,3.5,1.3,4.4c0.8,0.9,2,1.4,3.6,1.4    c0.5,0,1,0,1.5-0.1c0.5-0.1,0.9-0.1,1.3-0.2c0.4-0.1,0.8-0.2,1.2-0.4c0.4-0.2,0.8-0.3,1.2-0.5v2.5c-0.4,0.2-0.8,0.4-1.2,0.5    c-0.4,0.1-0.8,0.3-1.2,0.4s-0.9,0.2-1.3,0.2C267.1,234.5,266.6,234.5,266.1,234.5z M265.4,219.1c-1.2,0-2.1,0.4-2.8,1.2    c-0.7,0.8-1.1,2-1.2,3.5h7.7c0-0.7-0.1-1.4-0.2-1.9c-0.1-0.6-0.4-1.1-0.7-1.5c-0.3-0.4-0.7-0.7-1.1-1    C266.6,219.2,266,219.1,265.4,219.1z"
         id="path121" /><path
         class="st10"
         d="M286.1,234.2l-0.6-2.4h-0.1c-0.3,0.5-0.7,0.9-1,1.2c-0.3,0.3-0.7,0.6-1.1,0.8s-0.9,0.4-1.4,0.5    c-0.5,0.1-1.1,0.2-1.7,0.2c-0.7,0-1.4-0.1-2-0.3c-0.6-0.2-1.1-0.5-1.6-0.9c-0.4-0.4-0.8-1-1-1.6s-0.4-1.4-0.4-2.3    c0-1.7,0.6-3,1.8-3.9c1.2-0.9,3-1.4,5.5-1.5l2.9-0.1v-1.1c0-0.7-0.1-1.3-0.2-1.8c-0.2-0.5-0.4-0.8-0.7-1.1    c-0.3-0.3-0.6-0.5-1.1-0.6s-0.9-0.2-1.4-0.2c-0.9,0-1.7,0.1-2.4,0.4c-0.7,0.3-1.5,0.6-2.1,0.9l-1-2.1c0.8-0.4,1.6-0.8,2.6-1.1    c0.9-0.3,1.9-0.4,3-0.4c1.1,0,2,0.1,2.8,0.3c0.8,0.2,1.4,0.6,1.9,1c0.5,0.5,0.9,1.1,1.1,1.8s0.4,1.6,0.4,2.6v11.8H286.1z     M280.9,232.2c0.6,0,1.2-0.1,1.8-0.3c0.5-0.2,1-0.5,1.4-0.9c0.4-0.4,0.7-0.9,0.9-1.5c0.2-0.6,0.3-1.3,0.3-2.1v-1.5l-2.2,0.1    c-0.9,0-1.7,0.1-2.4,0.3c-0.6,0.2-1.1,0.4-1.5,0.7c-0.4,0.3-0.7,0.7-0.8,1.1c-0.2,0.4-0.3,0.9-0.3,1.4c0,1,0.3,1.7,0.8,2.1    C279.4,232,280,232.2,280.9,232.2z"
         id="path123" /><path
         class="st10"
         d="M296.2,234.2h-2.8v-24.3h2.8V234.2z"
         id="path125" /><path
         class="st10"
         d="M306.9,232.2c0.2,0,0.4,0,0.6,0c0.2,0,0.5,0,0.7-0.1s0.4-0.1,0.6-0.1c0.2,0,0.3-0.1,0.4-0.1v2.2    c-0.1,0.1-0.3,0.1-0.5,0.2c-0.2,0.1-0.4,0.1-0.7,0.2s-0.5,0.1-0.8,0.1c-0.3,0-0.5,0-0.8,0c-0.6,0-1.2-0.1-1.8-0.3    c-0.6-0.2-1-0.5-1.4-0.9c-0.4-0.4-0.7-1-0.9-1.6c-0.2-0.7-0.3-1.6-0.3-2.6v-10h-2.4v-1.3l2.4-1.2l1.2-3.6h1.6v3.9h4.3v2.1h-4.3v10    c0,1,0.2,1.8,0.5,2.3C305.6,231.9,306.1,232.2,306.9,232.2z"
         id="path127" /><path
         class="st10"
         d="M323.2,234.2v-11c0-1.4-0.3-2.4-0.8-3c-0.5-0.7-1.4-1-2.6-1c-0.8,0-1.6,0.1-2.1,0.4c-0.6,0.3-1,0.7-1.4,1.2    c-0.3,0.5-0.6,1.2-0.8,2c-0.2,0.8-0.2,1.7-0.2,2.7v8.9h-2.8v-24.3h2.8v7.2l-0.1,2.3h0.2c0.3-0.4,0.6-0.8,0.9-1.2s0.8-0.6,1.2-0.8    c0.4-0.2,0.9-0.4,1.4-0.5c0.5-0.1,1-0.2,1.5-0.2c1.9,0,3.3,0.5,4.3,1.5c1,1,1.4,2.6,1.4,4.8v11.2H323.2z"
         id="path129" /><path
         class="st10"
         d="M328.8,217h3l3.4,9.6c0.1,0.4,0.3,0.9,0.4,1.3c0.2,0.5,0.3,0.9,0.4,1.4c0.1,0.5,0.2,0.9,0.3,1.3    c0.1,0.4,0.2,0.8,0.2,1.2h0.1c0.1-0.3,0.1-0.6,0.3-1.1c0.1-0.4,0.2-0.9,0.4-1.4c0.1-0.5,0.3-1,0.4-1.5c0.2-0.5,0.3-0.9,0.4-1.3    l3.1-9.5h2.9l-6.8,19.4c-0.3,0.8-0.6,1.6-0.9,2.3c-0.3,0.7-0.7,1.2-1.2,1.7c-0.4,0.5-1,0.8-1.6,1.1c-0.6,0.3-1.3,0.4-2.2,0.4    c-0.5,0-1,0-1.4-0.1c-0.4-0.1-0.7-0.1-1-0.2v-2.3c0.2,0.1,0.5,0.1,0.8,0.1c0.3,0,0.7,0.1,1,0.1c0.5,0,0.9-0.1,1.3-0.2    c0.4-0.1,0.7-0.3,1-0.5c0.3-0.2,0.5-0.5,0.7-0.8c0.2-0.3,0.4-0.7,0.5-1.1l0.9-2.5L328.8,217z"
         id="path131" /></g></g><g
     id="Category_Unhealthy"
     class="st0"><path
       id="Category_Outline_3_"
       class="st1"
       d="M420.8,270.7c0-83-67.3-150.4-150.4-150.4S120,187.7,120,270.7H420.8z" /><path
       id="Category_Semi_Circle_3_"
       class="st5"
       d="M420.8,270.7c0-83-67.3-150.4-150.4-150.4S120,187.7,120,270.7H420.8z" /><g
       class="st9"
       id="g156"><path
         class="st10"
         d="M209.2,195v16.7c0,1.3-0.2,2.6-0.6,3.7s-1,2.1-1.7,3s-1.8,1.5-2.9,2s-2.6,0.7-4.2,0.7c-1.5,0-2.8-0.2-4-0.7    s-2.1-1.1-2.9-1.9s-1.4-1.8-1.8-3s-0.6-2.5-0.6-3.9v-16.6h3.3v16.7c0,2.1,0.5,3.6,1.5,4.8s2.5,1.7,4.6,1.7c1,0,1.9-0.2,2.7-0.5    s1.4-0.8,1.8-1.3s0.8-1.3,1.1-2.1s0.4-1.7,0.4-2.6V195H209.2z"
         id="path138" /><path
         class="st10"
         d="M227.6,220.8v-12.4c0-1.5-0.3-2.7-0.9-3.4s-1.6-1.1-2.9-1.1c-0.9,0-1.7,0.2-2.4,0.5s-1.2,0.8-1.6,1.4    s-0.7,1.3-0.8,2.2s-0.3,1.9-0.3,3v10h-3.2v-19.3h2.6l0.5,2.6h0.2c0.3-0.5,0.6-0.9,1-1.3s0.8-0.7,1.3-0.9s1-0.4,1.5-0.5    s1.1-0.2,1.7-0.2c2.1,0,3.8,0.6,4.8,1.7s1.6,2.9,1.6,5.4v12.6H227.6z"
         id="path140" /><path
         class="st10"
         d="M248.8,220.8v-12.4c0-1.5-0.3-2.7-0.9-3.4s-1.6-1.1-2.9-1.1c-0.9,0-1.7,0.2-2.4,0.5s-1.2,0.8-1.6,1.4    s-0.7,1.3-0.8,2.2s-0.3,1.9-0.3,3v10h-3.2v-27.4h3.2v8.1l-0.1,2.5h0.2c0.3-0.5,0.6-0.9,1-1.3s0.8-0.7,1.3-0.9s1-0.4,1.5-0.5    s1.1-0.2,1.7-0.2c2.1,0,3.8,0.6,4.8,1.7s1.6,2.9,1.6,5.4v12.6H248.8z"
         id="path142" /><path
         class="st10"
         d="M265.5,221.1c-1.3,0-2.5-0.2-3.5-0.7s-2-1.1-2.8-1.9s-1.4-1.9-1.8-3.1s-0.6-2.6-0.6-4.2c0-1.6,0.2-3,0.6-4.3    s0.9-2.3,1.6-3.2s1.5-1.5,2.5-2s2.1-0.7,3.2-0.7c1.2,0,2.2,0.2,3.1,0.6s1.7,1,2.4,1.8s1.1,1.7,1.5,2.7s0.5,2.2,0.5,3.5v2h-12.2    c0.1,2.3,0.5,3.9,1.4,5s2.2,1.6,4,1.6c0.6,0,1.2,0,1.7-0.1s1-0.1,1.5-0.3s0.9-0.3,1.4-0.4s0.9-0.4,1.4-0.6v2.8    c-0.5,0.2-0.9,0.4-1.4,0.6s-0.9,0.3-1.4,0.4s-1,0.2-1.5,0.2S266.1,221.1,265.5,221.1z M264.7,203.8c-1.3,0-2.4,0.5-3.2,1.4    s-1.2,2.2-1.4,4h8.6c0-0.8-0.1-1.5-0.2-2.2s-0.4-1.2-0.7-1.7s-0.8-0.8-1.3-1.1S265.5,203.8,264.7,203.8z"
         id="path144" /><path
         class="st10"
         d="M288,220.8l-0.7-2.7h-0.1c-0.4,0.5-0.8,1-1.2,1.4s-0.8,0.7-1.3,0.9s-1,0.4-1.5,0.5s-1.2,0.2-2,0.2    c-0.8,0-1.6-0.1-2.2-0.3s-1.3-0.6-1.8-1.1s-0.9-1.1-1.2-1.8s-0.4-1.6-0.4-2.6c0-1.9,0.7-3.4,2-4.4s3.4-1.6,6.2-1.7l3.2-0.1v-1.2    c0-0.8-0.1-1.4-0.3-2s-0.4-1-0.7-1.3s-0.7-0.6-1.2-0.7s-1-0.2-1.6-0.2c-1,0-1.9,0.1-2.7,0.4s-1.6,0.6-2.4,1l-1.1-2.4    c0.9-0.5,1.8-0.9,2.9-1.2s2.2-0.5,3.4-0.5c1.2,0,2.2,0.1,3.1,0.4s1.6,0.6,2.2,1.1s1,1.2,1.3,2s0.4,1.8,0.4,2.9v13.2H288z     M282.2,218.5c0.7,0,1.4-0.1,2-0.3s1.1-0.6,1.6-1s0.8-1,1-1.7s0.4-1.5,0.4-2.4v-1.7l-2.5,0.1c-1.1,0-1.9,0.2-2.7,0.4    s-1.3,0.4-1.7,0.8s-0.7,0.7-0.9,1.2s-0.3,1-0.3,1.6c0,1.1,0.3,1.9,0.9,2.4S281.2,218.5,282.2,218.5z"
         id="path146" /><path
         class="st10"
         d="M299.5,220.8h-3.2v-27.4h3.2V220.8z"
         id="path148" /><path
         class="st10"
         d="M311.4,218.5c0.2,0,0.4,0,0.7,0s0.5-0.1,0.8-0.1s0.5-0.1,0.7-0.1s0.4-0.1,0.5-0.1v2.4    c-0.2,0.1-0.3,0.1-0.6,0.2s-0.5,0.1-0.8,0.2s-0.6,0.1-0.9,0.1s-0.6,0-0.9,0c-0.7,0-1.4-0.1-2-0.3s-1.2-0.5-1.6-1s-0.8-1.1-1.1-1.9    s-0.4-1.8-0.4-2.9v-11.2h-2.7v-1.4l2.7-1.4l1.4-4h1.8v4.4h4.9v2.4h-4.9v11.2c0,1.1,0.2,2,0.6,2.6S310.6,218.5,311.4,218.5z"
         id="path150" /><path
         class="st10"
         d="M329.8,220.8v-12.4c0-1.5-0.3-2.7-0.9-3.4s-1.6-1.1-2.9-1.1c-0.9,0-1.7,0.2-2.4,0.5s-1.2,0.8-1.6,1.4    s-0.7,1.3-0.8,2.2s-0.3,1.9-0.3,3v10h-3.2v-27.4h3.2v8.1l-0.1,2.5h0.2c0.3-0.5,0.6-0.9,1-1.3s0.8-0.7,1.3-0.9s1-0.4,1.5-0.5    s1.1-0.2,1.7-0.2c2.1,0,3.8,0.6,4.8,1.7s1.6,2.9,1.6,5.4v12.6H329.8z"
         id="path152" /><path
         class="st10"
         d="M336.1,201.4h3.3l3.8,10.8c0.2,0.5,0.3,1,0.5,1.5s0.3,1,0.5,1.5s0.3,1,0.4,1.5s0.2,0.9,0.2,1.3h0.1    c0.1-0.3,0.2-0.7,0.3-1.2s0.3-1,0.4-1.6s0.3-1.1,0.5-1.7s0.3-1,0.4-1.4l3.5-10.7h3.3l-7.6,21.8c-0.3,0.9-0.7,1.8-1.1,2.6    s-0.8,1.4-1.3,1.9s-1.1,0.9-1.8,1.2s-1.5,0.4-2.4,0.4c-0.6,0-1.1,0-1.6-0.1s-0.8-0.1-1.1-0.2v-2.5c0.2,0.1,0.6,0.1,0.9,0.1    s0.8,0.1,1.2,0.1c0.6,0,1-0.1,1.5-0.2s0.8-0.3,1.1-0.6s0.6-0.6,0.8-0.9s0.4-0.8,0.6-1.3l1-2.8L336.1,201.4z"
         id="path154" /></g></g><g
     id="Category_USG"
     class="st0"><path
       id="Category_Outline"
       class="st1"
       d="M420.8,270.7c0-83-67.3-150.4-150.4-150.4S120,187.7,120,270.7H420.8z" /><path
       id="Category_Semi_Circle"
       class="st4"
       d="M420.8,270.7c0-83-67.3-150.4-150.4-150.4S120,187.7,120,270.7H420.8z" /><g
       class="st9"
       id="g215"><path
         class="st10"
         d="M205.9,183.4v12c0,1-0.1,1.9-0.4,2.7s-0.7,1.5-1.3,2.2s-1.3,1.1-2.1,1.4s-1.9,0.5-3,0.5    c-1.1,0-2-0.2-2.9-0.5s-1.5-0.8-2.1-1.4s-1-1.3-1.3-2.2s-0.4-1.8-0.4-2.8v-12h2.4v12.1c0,1.5,0.4,2.6,1.1,3.4s1.8,1.2,3.3,1.2    c0.8,0,1.4-0.1,1.9-0.3s1-0.6,1.3-1s0.6-0.9,0.8-1.5s0.3-1.2,0.3-1.9v-12.1H205.9z"
         id="path161" /><path
         class="st10"
         d="M219.1,202v-9c0-1.1-0.2-1.9-0.7-2.5s-1.1-0.8-2.1-0.8c-0.7,0-1.3,0.1-1.7,0.3s-0.8,0.5-1.1,1    s-0.5,1-0.6,1.6s-0.2,1.3-0.2,2.2v7.2h-2.3v-13.9h1.9l0.3,1.9h0.1c0.2-0.4,0.5-0.7,0.8-0.9s0.6-0.5,1-0.7s0.7-0.3,1.1-0.4    s0.8-0.1,1.2-0.1c1.5,0,2.7,0.4,3.5,1.2s1.2,2.1,1.2,3.9v9.1H219.1z"
         id="path163" /><path
         class="st10"
         d="M234.4,202v-9c0-1.1-0.2-1.9-0.7-2.5s-1.1-0.8-2.1-0.8c-0.7,0-1.3,0.1-1.7,0.3s-0.8,0.5-1.1,1    s-0.5,1-0.6,1.6s-0.2,1.3-0.2,2.2v7.2h-2.3v-19.8h2.3v5.9l-0.1,1.8h0.1c0.2-0.4,0.5-0.7,0.8-0.9s0.6-0.5,1-0.7s0.7-0.3,1.1-0.4    s0.8-0.1,1.2-0.1c1.5,0,2.7,0.4,3.5,1.2s1.2,2.1,1.2,3.9v9.1H234.4z"
         id="path165" /><path
         class="st10"
         d="M246.5,202.3c-0.9,0-1.8-0.2-2.6-0.5c-0.8-0.3-1.4-0.8-2-1.4c-0.6-0.6-1-1.3-1.3-2.2s-0.5-1.9-0.5-3    c0-1.2,0.1-2.2,0.4-3.1s0.7-1.7,1.2-2.3s1.1-1.1,1.8-1.4c0.7-0.3,1.5-0.5,2.3-0.5c0.8,0,1.6,0.2,2.3,0.5c0.7,0.3,1.2,0.7,1.7,1.3    c0.5,0.5,0.8,1.2,1.1,2c0.2,0.8,0.4,1.6,0.4,2.5v1.4h-8.8c0,1.6,0.4,2.8,1,3.6s1.6,1.2,2.9,1.2c0.4,0,0.8,0,1.2-0.1    c0.4,0,0.7-0.1,1.1-0.2c0.3-0.1,0.7-0.2,1-0.3c0.3-0.1,0.6-0.3,1-0.4v2.1c-0.3,0.2-0.7,0.3-1,0.4c-0.3,0.1-0.7,0.2-1,0.3    c-0.3,0.1-0.7,0.1-1.1,0.2C247.4,202.2,247,202.3,246.5,202.3z M246,189.7c-1,0-1.7,0.3-2.3,1c-0.6,0.7-0.9,1.6-1,2.9h6.2    c0-0.6-0.1-1.1-0.2-1.6c-0.1-0.5-0.3-0.9-0.5-1.2c-0.2-0.3-0.5-0.6-0.9-0.8C246.9,189.8,246.5,189.7,246,189.7z"
         id="path167" /><path
         class="st10"
         d="M262.8,202l-0.5-1.9h-0.1c-0.3,0.4-0.6,0.7-0.8,1s-0.6,0.5-0.9,0.7s-0.7,0.3-1.1,0.4s-0.9,0.1-1.4,0.1    c-0.6,0-1.1-0.1-1.6-0.2s-0.9-0.4-1.3-0.8c-0.4-0.3-0.6-0.8-0.8-1.3s-0.3-1.1-0.3-1.8c0-1.4,0.5-2.5,1.5-3.2    c1-0.7,2.5-1.2,4.5-1.2l2.3-0.1v-0.9c0-0.6-0.1-1-0.2-1.4c-0.1-0.4-0.3-0.7-0.5-0.9c-0.2-0.2-0.5-0.4-0.9-0.5    c-0.3-0.1-0.7-0.2-1.2-0.2c-0.7,0-1.4,0.1-2,0.3c-0.6,0.2-1.2,0.4-1.7,0.7l-0.8-1.7c0.6-0.3,1.3-0.6,2.1-0.9s1.6-0.4,2.4-0.4    c0.9,0,1.6,0.1,2.2,0.3c0.6,0.2,1.2,0.4,1.6,0.8c0.4,0.4,0.7,0.9,0.9,1.4s0.3,1.3,0.3,2.1v9.5H262.8z M258.6,200.4    c0.5,0,1-0.1,1.4-0.2s0.8-0.4,1.1-0.7s0.6-0.7,0.8-1.2c0.2-0.5,0.3-1.1,0.3-1.7v-1.3l-1.8,0.1c-0.8,0-1.4,0.1-1.9,0.3    s-0.9,0.3-1.2,0.6c-0.3,0.2-0.5,0.5-0.7,0.9s-0.2,0.7-0.2,1.2c0,0.8,0.2,1.4,0.6,1.7C257.4,200.2,257.9,200.4,258.6,200.4z"
         id="path169" /><path
         class="st10"
         d="M271.1,202h-2.3v-19.8h2.3V202z"
         id="path171" /><path
         class="st10"
         d="M279.7,200.4c0.2,0,0.3,0,0.5,0c0.2,0,0.4,0,0.6-0.1s0.3-0.1,0.5-0.1c0.1,0,0.3-0.1,0.3-0.1v1.8    c-0.1,0.1-0.3,0.1-0.4,0.2s-0.4,0.1-0.6,0.1s-0.4,0.1-0.6,0.1s-0.4,0-0.6,0c-0.5,0-1-0.1-1.5-0.2s-0.8-0.4-1.2-0.7    c-0.3-0.3-0.6-0.8-0.8-1.3s-0.3-1.3-0.3-2.1v-8.1h-2v-1l2-1l1-2.9h1.3v3.2h3.5v1.7H278v8.1c0,0.8,0.1,1.4,0.4,1.9    C278.6,200.2,279.1,200.4,279.7,200.4z"
         id="path173" /><path
         class="st10"
         d="M293,202v-9c0-1.1-0.2-1.9-0.7-2.5c-0.4-0.6-1.1-0.8-2.1-0.8c-0.7,0-1.3,0.1-1.7,0.3s-0.8,0.5-1.1,1    c-0.3,0.4-0.5,1-0.6,1.6c-0.1,0.6-0.2,1.3-0.2,2.2v7.2h-2.3v-19.8h2.3v5.9l-0.1,1.8h0.1c0.2-0.4,0.5-0.7,0.8-0.9    c0.3-0.3,0.6-0.5,1-0.7s0.7-0.3,1.1-0.4s0.8-0.1,1.2-0.1c1.5,0,2.7,0.4,3.5,1.2c0.8,0.8,1.2,2.1,1.2,3.9v9.1H293z"
         id="path175" /><path
         class="st10"
         d="M297.5,188.1h2.4l2.7,7.8c0.1,0.3,0.2,0.7,0.4,1.1c0.1,0.4,0.2,0.7,0.3,1.1c0.1,0.4,0.2,0.7,0.3,1.1    s0.1,0.7,0.2,1h0.1c0-0.2,0.1-0.5,0.2-0.9s0.2-0.8,0.3-1.2c0.1-0.4,0.2-0.8,0.4-1.2c0.1-0.4,0.2-0.7,0.3-1l2.5-7.8h2.4l-5.5,15.8    c-0.2,0.7-0.5,1.3-0.8,1.8c-0.3,0.5-0.6,1-1,1.4s-0.8,0.7-1.3,0.9s-1.1,0.3-1.8,0.3c-0.4,0-0.8,0-1.1-0.1s-0.6-0.1-0.8-0.1v-1.8    c0.2,0,0.4,0.1,0.7,0.1s0.6,0,0.9,0c0.4,0,0.8,0,1.1-0.1s0.6-0.2,0.8-0.4s0.4-0.4,0.6-0.7c0.2-0.3,0.3-0.6,0.4-0.9l0.7-2    L297.5,188.1z"
         id="path177" /><path
         class="st10"
         d="M325.1,189.8H322V202h-2.3v-12.2h-2.5v-1l2.5-0.9v-1.2c0-0.9,0.1-1.7,0.3-2.3c0.2-0.6,0.5-1.1,0.8-1.4    c0.4-0.4,0.8-0.6,1.3-0.8s1.1-0.2,1.8-0.2c0.5,0,1,0,1.4,0.1c0.4,0.1,0.8,0.2,1.1,0.3l-0.6,1.8c-0.3-0.1-0.5-0.2-0.9-0.2    c-0.3-0.1-0.6-0.1-1-0.1s-0.6,0-0.9,0.1s-0.4,0.2-0.6,0.4s-0.3,0.5-0.4,0.8c-0.1,0.4-0.1,0.8-0.1,1.4v1.3h3.1V189.8z"
         id="path179" /><path
         class="st10"
         d="M339,195c0,1.2-0.1,2.2-0.4,3.1c-0.3,0.9-0.7,1.7-1.2,2.3c-0.5,0.6-1.2,1.1-1.9,1.4s-1.6,0.5-2.5,0.5    c-0.9,0-1.7-0.2-2.4-0.5s-1.4-0.8-1.9-1.4c-0.5-0.6-1-1.4-1.3-2.3c-0.3-0.9-0.5-1.9-0.5-3.1c0-1.2,0.1-2.2,0.4-3.1    c0.3-0.9,0.7-1.6,1.2-2.3s1.2-1.1,1.9-1.4c0.8-0.3,1.6-0.5,2.5-0.5c0.9,0,1.7,0.2,2.4,0.5s1.4,0.8,1.9,1.4c0.5,0.6,1,1.4,1.3,2.3    C338.8,192.8,339,193.9,339,195z M329.2,195c0,1.8,0.3,3.1,0.9,4c0.6,0.9,1.5,1.3,2.8,1.3s2.2-0.4,2.8-1.3c0.6-0.9,0.9-2.2,0.9-4    s-0.3-3.1-0.9-4c-0.6-0.9-1.5-1.3-2.8-1.3s-2.2,0.4-2.8,1.3C329.5,191.9,329.2,193.2,329.2,195z"
         id="path181" /><path
         class="st10"
         d="M348.7,187.8c0.2,0,0.5,0,0.8,0s0.6,0.1,0.8,0.1l-0.3,2.1c-0.2,0-0.5-0.1-0.7-0.1c-0.2,0-0.5,0-0.7,0    c-0.5,0-1,0.1-1.5,0.3s-0.8,0.5-1.1,0.9c-0.3,0.4-0.6,0.9-0.7,1.4c-0.2,0.6-0.3,1.2-0.3,1.9v7.5h-2.3v-13.9h1.9l0.3,2.6h0.1    c0.2-0.4,0.4-0.7,0.7-1.1c0.2-0.3,0.5-0.6,0.8-0.9c0.3-0.3,0.6-0.5,1-0.6S348.2,187.8,348.7,187.8z"
         id="path183" /><path
         class="st10"
         d="M185,224.2c0,0.8-0.1,1.6-0.4,2.2s-0.7,1.2-1.3,1.6s-1.2,0.8-2,1s-1.7,0.3-2.6,0.3c-0.9,0-1.8-0.1-2.6-0.2    s-1.5-0.4-2.1-0.7v-2.3c0.3,0.1,0.6,0.3,1,0.4s0.8,0.2,1.2,0.3s0.8,0.2,1.3,0.2s0.9,0.1,1.3,0.1c1.4,0,2.4-0.3,3-0.8s1-1.2,1-2.2    c0-0.5-0.1-0.9-0.2-1.2s-0.3-0.6-0.6-0.9s-0.7-0.6-1.2-0.8s-1.2-0.6-2-0.9c-0.8-0.3-1.4-0.6-2-1s-1-0.7-1.4-1.2s-0.6-0.9-0.8-1.5    s-0.3-1.2-0.3-1.9c0-0.7,0.1-1.4,0.4-2s0.7-1.1,1.1-1.5s1.1-0.7,1.8-0.9s1.4-0.3,2.3-0.3c1,0,1.9,0.1,2.7,0.3s1.5,0.4,2.1,0.7    l-0.9,2c-0.6-0.2-1.2-0.5-1.9-0.6s-1.4-0.3-2.2-0.3c-1,0-1.8,0.2-2.4,0.7s-0.9,1.1-0.9,1.9c0,0.5,0.1,0.9,0.2,1.3s0.3,0.7,0.6,1    s0.7,0.6,1.2,0.8s1.1,0.5,1.8,0.8c0.8,0.3,1.4,0.6,2,0.9s1.1,0.7,1.5,1.1s0.7,0.9,0.9,1.4S185,223.5,185,224.2z"
         id="path185" /><path
         class="st10"
         d="M193.9,229.5c-0.9,0-1.8-0.2-2.6-0.5s-1.4-0.8-2-1.4s-1-1.3-1.3-2.2s-0.5-1.9-0.5-3c0-1.2,0.1-2.2,0.4-3.1    s0.7-1.7,1.2-2.3s1.1-1.1,1.8-1.4s1.5-0.5,2.3-0.5c0.8,0,1.6,0.2,2.3,0.5s1.2,0.7,1.7,1.3s0.8,1.2,1.1,2s0.4,1.6,0.4,2.5v1.4H190    c0,1.6,0.4,2.8,1,3.6s1.6,1.2,2.9,1.2c0.4,0,0.8,0,1.2-0.1s0.7-0.1,1.1-0.2s0.7-0.2,1-0.3s0.6-0.3,1-0.4v2.1    c-0.3,0.2-0.7,0.3-1,0.4s-0.7,0.2-1,0.3s-0.7,0.1-1.1,0.2S194.3,229.5,193.9,229.5z M193.3,216.9c-1,0-1.7,0.3-2.3,1    s-0.9,1.6-1,2.9h6.2c0-0.6-0.1-1.1-0.2-1.6s-0.3-0.9-0.5-1.2s-0.5-0.6-0.9-0.8S193.9,216.9,193.3,216.9z"
         id="path187" /><path
         class="st10"
         d="M211,229.2v-9c0-1.1-0.2-1.9-0.7-2.5s-1.1-0.8-2.1-0.8c-0.7,0-1.3,0.1-1.7,0.3s-0.8,0.5-1.1,1    s-0.5,1-0.6,1.6s-0.2,1.3-0.2,2.2v7.2h-2.3v-13.9h1.9l0.3,1.9h0.1c0.2-0.4,0.5-0.7,0.8-0.9s0.6-0.5,1-0.7s0.7-0.3,1.1-0.4    s0.8-0.1,1.2-0.1c1.5,0,2.7,0.4,3.5,1.2s1.2,2.1,1.2,3.9v9.1H211z"
         id="path189" /><path
         class="st10"
         d="M226,225.4c0,0.7-0.1,1.3-0.4,1.8s-0.6,0.9-1.1,1.3s-1,0.6-1.7,0.8s-1.4,0.3-2.2,0.3c-0.9,0-1.7-0.1-2.4-0.2    s-1.2-0.4-1.7-0.7v-2.1c0.3,0.1,0.6,0.3,0.9,0.4s0.7,0.2,1,0.3s0.7,0.2,1.1,0.2s0.8,0.1,1.1,0.1c0.6,0,1,0,1.4-0.1    s0.7-0.2,0.9-0.4s0.4-0.4,0.5-0.6s0.2-0.5,0.2-0.8c0-0.3,0-0.5-0.1-0.7s-0.2-0.4-0.5-0.6s-0.5-0.4-0.9-0.6s-0.9-0.4-1.5-0.7    s-1.2-0.5-1.6-0.8s-0.9-0.5-1.2-0.9s-0.6-0.7-0.8-1.1s-0.3-0.9-0.3-1.5c0-0.6,0.1-1.1,0.3-1.6s0.6-0.8,1-1.2s0.9-0.6,1.5-0.7    s1.3-0.2,2-0.2c0.8,0,1.6,0.1,2.3,0.3s1.3,0.4,1.9,0.7l-0.8,1.9c-0.6-0.2-1.1-0.5-1.7-0.6s-1.2-0.3-1.8-0.3    c-0.9,0-1.5,0.1-1.9,0.4s-0.6,0.7-0.6,1.2c0,0.3,0,0.6,0.1,0.8s0.3,0.4,0.5,0.6s0.6,0.4,1,0.6s0.9,0.4,1.5,0.7    c0.6,0.3,1.2,0.5,1.6,0.8s0.9,0.5,1.2,0.9s0.6,0.7,0.8,1.1S226,224.8,226,225.4z"
         id="path191" /><path
         class="st10"
         d="M229.2,211.5c0-0.5,0.1-0.9,0.4-1.1s0.6-0.3,1-0.3c0.2,0,0.4,0,0.5,0.1s0.3,0.1,0.4,0.3s0.2,0.3,0.3,0.5    s0.1,0.4,0.1,0.7c0,0.5-0.1,0.9-0.4,1.1s-0.6,0.4-1,0.4c-0.4,0-0.7-0.1-1-0.4S229.2,212,229.2,211.5z M231.7,229.2h-2.3v-13.9h2.3    V229.2z"
         id="path193" /><path
         class="st10"
         d="M240.3,227.6c0.2,0,0.3,0,0.5,0s0.4,0,0.6-0.1s0.3-0.1,0.5-0.1c0.1,0,0.3-0.1,0.3-0.1v1.8    c-0.1,0.1-0.2,0.1-0.4,0.2c-0.2,0.1-0.4,0.1-0.6,0.1s-0.4,0.1-0.6,0.1c-0.2,0-0.4,0-0.6,0c-0.5,0-1-0.1-1.5-0.2s-0.8-0.4-1.2-0.7    s-0.6-0.8-0.8-1.3s-0.3-1.3-0.3-2.1V217h-2v-1l2-1l1-2.9h1.3v3.2h3.5v1.7h-3.5v8.1c0,0.8,0.1,1.4,0.4,1.9S239.7,227.6,240.3,227.6    z"
         id="path195" /><path
         class="st10"
         d="M244.7,211.5c0-0.5,0.1-0.9,0.4-1.1c0.3-0.2,0.6-0.3,1-0.3c0.2,0,0.4,0,0.5,0.1c0.2,0.1,0.3,0.1,0.4,0.3    c0.1,0.1,0.2,0.3,0.3,0.5c0.1,0.2,0.1,0.4,0.1,0.7c0,0.5-0.1,0.9-0.4,1.1c-0.3,0.2-0.6,0.4-1,0.4c-0.4,0-0.7-0.1-1-0.4    C244.8,212.4,244.7,212,244.7,211.5z M247.2,229.2h-2.3v-13.9h2.3V229.2z"
         id="path197" /><path
         class="st10"
         d="M254.2,229.2l-4.8-13.9h2.4l2.5,7.8c0.1,0.3,0.2,0.6,0.3,1.1s0.3,0.9,0.4,1.3s0.2,0.9,0.3,1.3    c0.1,0.4,0.2,0.7,0.2,0.9h0.1c0-0.2,0.1-0.5,0.2-0.9s0.2-0.8,0.3-1.3s0.3-0.9,0.4-1.3s0.2-0.8,0.3-1.1l2.5-7.8h2.4l-4.8,13.9    H254.2z"
         id="path199" /><path
         class="st10"
         d="M269.6,229.5c-0.9,0-1.8-0.2-2.6-0.5s-1.4-0.8-2-1.4c-0.6-0.6-1-1.3-1.3-2.2s-0.5-1.9-0.5-3    c0-1.2,0.1-2.2,0.4-3.1s0.7-1.7,1.2-2.3s1.1-1.1,1.8-1.4c0.7-0.3,1.5-0.5,2.3-0.5c0.8,0,1.6,0.2,2.3,0.5s1.2,0.7,1.7,1.3    s0.8,1.2,1.1,2c0.2,0.8,0.4,1.6,0.4,2.5v1.4h-8.8c0,1.6,0.4,2.8,1,3.6c0.6,0.8,1.6,1.2,2.9,1.2c0.4,0,0.8,0,1.2-0.1    c0.4,0,0.7-0.1,1.1-0.2c0.3-0.1,0.7-0.2,1-0.3s0.6-0.3,1-0.4v2.1c-0.3,0.2-0.7,0.3-1,0.4c-0.3,0.1-0.7,0.2-1,0.3    c-0.3,0.1-0.7,0.1-1.1,0.2C270.4,229.4,270,229.5,269.6,229.5z M269,216.9c-1,0-1.7,0.3-2.3,1c-0.6,0.7-0.9,1.6-1,2.9h6.2    c0-0.6-0.1-1.1-0.2-1.6c-0.1-0.5-0.3-0.9-0.5-1.2c-0.2-0.3-0.5-0.6-0.9-0.8S269.5,216.9,269,216.9z"
         id="path201" /><path
         class="st10"
         d="M292.5,219.4h6.1v9.1c-0.5,0.2-0.9,0.3-1.4,0.4s-1,0.2-1.5,0.3s-1,0.1-1.6,0.2s-1.1,0.1-1.8,0.1    c-1.3,0-2.5-0.2-3.5-0.7s-1.9-1.1-2.6-1.9s-1.2-1.8-1.6-3s-0.5-2.5-0.5-4c0-1.5,0.2-2.8,0.6-3.9c0.4-1.2,1-2.2,1.8-3    s1.7-1.5,2.9-1.9c1.1-0.4,2.4-0.7,3.9-0.7c0.9,0,1.8,0.1,2.7,0.3s1.7,0.5,2.4,0.8l-0.9,2.1c-0.3-0.1-0.6-0.3-1-0.4    c-0.4-0.1-0.7-0.2-1.1-0.3s-0.8-0.2-1.1-0.2c-0.4-0.1-0.8-0.1-1.2-0.1c-1,0-1.9,0.2-2.7,0.5s-1.5,0.8-2,1.5    c-0.5,0.6-0.9,1.4-1.2,2.3s-0.4,2-0.4,3.1c0,1.1,0.1,2.1,0.3,3c0.2,0.9,0.6,1.7,1.1,2.4s1.2,1.2,2,1.5s1.8,0.5,2.9,0.5    c0.4,0,0.7,0,1,0c0.3,0,0.6,0,0.9-0.1s0.5-0.1,0.7-0.1c0.2,0,0.5-0.1,0.7-0.1v-5.5h-3.8V219.4z"
         id="path203" /><path
         class="st10"
         d="M308.7,215c0.2,0,0.5,0,0.8,0s0.6,0.1,0.8,0.1l-0.3,2.1c-0.2,0-0.5-0.1-0.7-0.1c-0.2,0-0.5,0-0.7,0    c-0.5,0-1,0.1-1.5,0.3s-0.8,0.5-1.1,0.9c-0.3,0.4-0.6,0.9-0.7,1.4c-0.2,0.6-0.3,1.2-0.3,1.9v7.5h-2.3v-13.9h1.9l0.3,2.6h0.1    c0.2-0.4,0.4-0.7,0.7-1.1c0.2-0.3,0.5-0.6,0.8-0.9c0.3-0.3,0.6-0.5,1-0.6S308.2,215,308.7,215z"
         id="path205" /><path
         class="st10"
         d="M324.4,222.2c0,1.2-0.1,2.2-0.4,3.1c-0.3,0.9-0.7,1.7-1.2,2.3c-0.5,0.6-1.2,1.1-1.9,1.4s-1.6,0.5-2.5,0.5    c-0.9,0-1.7-0.2-2.4-0.5s-1.4-0.8-1.9-1.4c-0.5-0.6-1-1.4-1.3-2.3c-0.3-0.9-0.5-1.9-0.5-3.1c0-1.2,0.1-2.2,0.4-3.1    c0.3-0.9,0.7-1.6,1.2-2.3s1.2-1.1,1.9-1.4c0.8-0.3,1.6-0.5,2.5-0.5c0.9,0,1.7,0.2,2.4,0.5s1.4,0.8,1.9,1.4c0.5,0.6,1,1.4,1.3,2.3    C324.3,220,324.4,221.1,324.4,222.2z M314.7,222.2c0,1.8,0.3,3.1,0.9,4c0.6,0.9,1.5,1.3,2.8,1.3s2.2-0.4,2.8-1.3    c0.6-0.9,0.9-2.2,0.9-4s-0.3-3.1-0.9-4c-0.6-0.9-1.5-1.3-2.8-1.3s-2.2,0.4-2.8,1.3C315,219.1,314.7,220.4,314.7,222.2z"
         id="path207" /><path
         class="st10"
         d="M337.1,229.2l-0.3-1.9h-0.1c-0.2,0.4-0.5,0.7-0.8,0.9c-0.3,0.3-0.6,0.5-1,0.7s-0.7,0.3-1.1,0.4    s-0.8,0.1-1.2,0.1c-0.8,0-1.4-0.1-2-0.3s-1.1-0.5-1.5-0.9s-0.7-0.9-0.9-1.6c-0.2-0.6-0.3-1.4-0.3-2.3v-9.1h2.3v9    c0,1.1,0.2,1.9,0.7,2.5s1.1,0.8,2.1,0.8c0.7,0,1.3-0.1,1.7-0.3s0.8-0.5,1.1-1c0.3-0.4,0.5-1,0.6-1.6c0.1-0.6,0.2-1.3,0.2-2.2v-7.2    h2.3v13.9H337.1z"
         id="path209" /><path
         class="st10"
         d="M349.7,229.5c-0.5,0-1-0.1-1.4-0.2s-0.8-0.3-1.1-0.4c-0.3-0.2-0.6-0.4-0.9-0.6c-0.2-0.2-0.5-0.5-0.7-0.8    h-0.2c0,0.3,0.1,0.6,0.1,0.8c0,0.2,0,0.4,0.1,0.7s0,0.4,0,0.6v6h-2.3v-20.2h1.9l0.3,1.9h0.1c0.2-0.3,0.4-0.6,0.7-0.8    s0.5-0.5,0.9-0.7c0.3-0.2,0.7-0.3,1.1-0.5s0.9-0.2,1.4-0.2c0.8,0,1.5,0.2,2.2,0.5s1.2,0.8,1.7,1.4c0.5,0.6,0.8,1.4,1.1,2.3    s0.4,1.9,0.4,3.1c0,1.2-0.1,2.2-0.4,3.1s-0.6,1.7-1.1,2.3c-0.5,0.6-1,1.1-1.7,1.4S350.5,229.5,349.7,229.5z M349.2,216.9    c-0.6,0-1.2,0.1-1.6,0.3c-0.4,0.2-0.8,0.5-1.1,0.9c-0.3,0.4-0.5,0.9-0.6,1.5c-0.1,0.6-0.2,1.3-0.2,2.1v0.5c0,0.9,0.1,1.6,0.2,2.3    c0.1,0.7,0.3,1.2,0.6,1.7c0.3,0.5,0.6,0.8,1.1,1s1,0.3,1.7,0.3c1.1,0,2-0.5,2.5-1.4c0.5-0.9,0.8-2.2,0.8-4c0-1.8-0.3-3.1-0.8-3.9    C351.2,217.4,350.4,216.9,349.2,216.9z"
         id="path211" /><path
         class="st10"
         d="M367,225.4c0,0.7-0.1,1.3-0.4,1.8s-0.6,0.9-1.1,1.3c-0.5,0.3-1,0.6-1.7,0.8s-1.4,0.3-2.2,0.3    c-0.9,0-1.7-0.1-2.4-0.2s-1.2-0.4-1.7-0.7v-2.1c0.3,0.1,0.6,0.3,0.9,0.4s0.7,0.2,1,0.3s0.7,0.2,1.1,0.2c0.4,0.1,0.8,0.1,1.1,0.1    c0.5,0,1,0,1.4-0.1c0.4-0.1,0.7-0.2,0.9-0.4c0.2-0.2,0.4-0.4,0.5-0.6s0.2-0.5,0.2-0.8c0-0.3,0-0.5-0.1-0.7s-0.2-0.4-0.5-0.6    c-0.2-0.2-0.5-0.4-0.9-0.6s-0.9-0.4-1.5-0.7s-1.2-0.5-1.6-0.8c-0.5-0.3-0.9-0.5-1.2-0.9s-0.6-0.7-0.8-1.1    c-0.2-0.4-0.3-0.9-0.3-1.5c0-0.6,0.1-1.1,0.3-1.6c0.2-0.5,0.6-0.8,1-1.2s0.9-0.6,1.5-0.7s1.3-0.2,2-0.2c0.8,0,1.6,0.1,2.3,0.3    c0.7,0.2,1.3,0.4,1.9,0.7l-0.8,1.9c-0.5-0.2-1.1-0.5-1.7-0.6c-0.6-0.2-1.2-0.3-1.8-0.3c-0.9,0-1.5,0.1-1.9,0.4s-0.6,0.7-0.6,1.2    c0,0.3,0,0.6,0.1,0.8c0.1,0.2,0.3,0.4,0.5,0.6s0.6,0.4,1,0.6s0.9,0.4,1.5,0.7c0.6,0.3,1.2,0.5,1.6,0.8c0.5,0.3,0.9,0.5,1.2,0.9    s0.6,0.7,0.8,1.1S367,224.8,367,225.4z"
         id="path213" /></g></g><g
     id="Category_Moderate"
     class="st0"><path
       id="Category_Outline_2_"
       class="st1"
       d="M420.8,270.7c0-83-67.3-150.4-150.4-150.4S120,187.7,120,270.7H420.8z" /><path
       id="Category_Semi_Circle_2_"
       class="st3"
       d="M420.8,270.7c0-83-67.3-150.4-150.4-150.4S120,187.7,120,270.7H420.8z" /><g
       class="st9"
       id="g236"><path
         d="M206,220.8l-7.8-22.5h-0.1c0.1,0.9,0.1,1.7,0.2,2.6c0,0.7,0.1,1.5,0.1,2.3s0,1.6,0,2.2v15.4h-3v-25.7h4.9l7.2,21h0.1    l7.3-21h4.9v25.7h-3.3v-15.6c0-0.6,0-1.3,0-2.1s0.1-1.5,0.1-2.3c0-0.8,0.1-1.7,0.1-2.5h-0.1l-7.9,22.5H206z"
         id="path220" /><path
         d="M242,211.1c0,1.6-0.2,3-0.6,4.3s-1,2.3-1.7,3.1s-1.6,1.5-2.7,1.9s-2.2,0.7-3.5,0.7c-1.2,0-2.3-0.2-3.3-0.7    s-1.9-1.1-2.6-1.9s-1.3-1.9-1.7-3.1s-0.6-2.7-0.6-4.3c0-1.6,0.2-3,0.6-4.2s1-2.3,1.7-3.1s1.6-1.5,2.7-1.9s2.2-0.7,3.5-0.7    c1.2,0,2.3,0.2,3.3,0.7s1.9,1.1,2.6,1.9s1.3,1.9,1.7,3.1S242,209.5,242,211.1z M228.5,211.1c0,2.4,0.4,4.3,1.2,5.5    s2.1,1.9,3.9,1.9s3.1-0.6,3.9-1.9s1.2-3.1,1.2-5.5s-0.4-4.3-1.2-5.5s-2.1-1.8-3.9-1.8s-3.1,0.6-3.9,1.8S228.5,208.6,228.5,211.1z"
         id="path222" /><path
         d="M259,218.2h-0.1c-0.3,0.4-0.6,0.8-0.9,1.1s-0.7,0.7-1.2,0.9s-1,0.5-1.5,0.6s-1.2,0.2-1.9,0.2c-1.1,0-2.1-0.2-3-0.6    s-1.7-1.1-2.3-1.9s-1.1-1.9-1.5-3.1s-0.5-2.7-0.5-4.3c0-1.7,0.2-3.1,0.5-4.4s0.8-2.3,1.5-3.1s1.4-1.5,2.3-1.9s1.9-0.6,3-0.6    c0.7,0,1.3,0.1,1.9,0.2s1.1,0.4,1.5,0.6s0.9,0.6,1.2,0.9s0.7,0.7,0.9,1.1h0.2c0-0.4-0.1-0.8-0.1-1.1c0-0.3,0-0.6-0.1-0.9    s0-0.6,0-0.8v-7.7h3.2v27.4h-2.6L259,218.2z M253.9,218.4c0.9,0,1.6-0.1,2.3-0.4s1.1-0.7,1.5-1.2s0.7-1.2,0.8-2.1s0.3-1.8,0.3-2.9    v-0.7c0-1.2-0.1-2.2-0.2-3.2s-0.4-1.7-0.8-2.3s-0.9-1.1-1.5-1.4s-1.4-0.5-2.4-0.5c-1.6,0-2.7,0.6-3.5,1.9s-1.1,3.1-1.1,5.5    c0,2.4,0.4,4.3,1.1,5.5S252.3,218.4,253.9,218.4z"
         id="path224" /><path
         d="M275.8,221.1c-1.3,0-2.5-0.2-3.5-0.7s-2-1.1-2.8-1.9s-1.4-1.9-1.8-3.1s-0.6-2.6-0.6-4.2c0-1.6,0.2-3,0.6-4.3    s0.9-2.3,1.6-3.2s1.5-1.5,2.5-2s2.1-0.7,3.2-0.7c1.2,0,2.2,0.2,3.1,0.6s1.7,1,2.4,1.8s1.1,1.7,1.5,2.7s0.5,2.2,0.5,3.5v2h-12.2    c0.1,2.3,0.5,3.9,1.4,5s2.2,1.6,4,1.6c0.6,0,1.2,0,1.7-0.1s1-0.1,1.5-0.3s0.9-0.3,1.4-0.4s0.9-0.4,1.4-0.6v2.8    c-0.5,0.2-0.9,0.4-1.4,0.6s-0.9,0.3-1.4,0.4s-1,0.2-1.5,0.2S276.4,221.1,275.8,221.1z M275,203.8c-1.3,0-2.4,0.5-3.2,1.4    s-1.2,2.2-1.4,4h8.6c0-0.8-0.1-1.5-0.2-2.2s-0.4-1.2-0.7-1.7s-0.8-0.8-1.3-1.1S275.7,203.8,275,203.8z"
         id="path226" /><path
         d="M295.8,201.1c0.3,0,0.7,0,1.1,0s0.8,0.1,1.1,0.1l-0.4,3c-0.3-0.1-0.7-0.1-1-0.1s-0.7-0.1-1-0.1c-0.7,0-1.4,0.1-2,0.4    s-1.1,0.7-1.6,1.3s-0.8,1.2-1,2s-0.4,1.6-0.4,2.6v10.4h-3.2v-19.3h2.6l0.4,3.5h0.1c0.3-0.5,0.6-1,0.9-1.5s0.7-0.9,1.1-1.2    s0.9-0.6,1.4-0.9S295.1,201.1,295.8,201.1z"
         id="path228" /><path
         d="M312.3,220.8l-0.7-2.7h-0.1c-0.4,0.5-0.8,1-1.2,1.4s-0.8,0.7-1.3,0.9s-1,0.4-1.5,0.5s-1.2,0.2-2,0.2    c-0.8,0-1.6-0.1-2.2-0.3s-1.3-0.6-1.8-1.1s-0.9-1.1-1.2-1.8s-0.4-1.6-0.4-2.6c0-1.9,0.7-3.4,2-4.4s3.4-1.6,6.2-1.7l3.2-0.1v-1.2    c0-0.8-0.1-1.4-0.3-2s-0.4-1-0.7-1.3s-0.7-0.6-1.2-0.7s-1-0.2-1.6-0.2c-1,0-1.9,0.1-2.7,0.4s-1.6,0.6-2.4,1l-1.1-2.4    c0.9-0.5,1.8-0.9,2.9-1.2s2.2-0.5,3.4-0.5c1.2,0,2.2,0.1,3.1,0.4s1.6,0.6,2.2,1.1s1,1.2,1.3,2s0.4,1.8,0.4,2.9v13.2H312.3z     M306.4,218.5c0.7,0,1.4-0.1,2-0.3s1.1-0.6,1.6-1s0.8-1,1-1.7s0.4-1.5,0.4-2.4v-1.7l-2.5,0.1c-1.1,0-1.9,0.2-2.7,0.4    s-1.3,0.4-1.7,0.8s-0.7,0.7-0.9,1.2s-0.3,1-0.3,1.6c0,1.1,0.3,1.9,0.9,2.4S305.5,218.5,306.4,218.5z"
         id="path230" /><path
         d="M326.4,218.5c0.2,0,0.4,0,0.7,0s0.5-0.1,0.8-0.1s0.5-0.1,0.7-0.1s0.4-0.1,0.5-0.1v2.4c-0.2,0.1-0.3,0.1-0.6,0.2    s-0.5,0.1-0.8,0.2s-0.6,0.1-0.9,0.1s-0.6,0-0.9,0c-0.7,0-1.4-0.1-2-0.3s-1.2-0.5-1.6-1s-0.8-1.1-1.1-1.9s-0.4-1.8-0.4-2.9v-11.2    h-2.7v-1.4l2.7-1.4l1.4-4h1.8v4.4h4.9v2.4H324v11.2c0,1.1,0.2,2,0.6,2.6S325.5,218.5,326.4,218.5z"
         id="path232" /><path
         d="M340.4,221.1c-1.3,0-2.5-0.2-3.5-0.7s-2-1.1-2.8-1.9s-1.4-1.9-1.8-3.1s-0.6-2.6-0.6-4.2c0-1.6,0.2-3,0.6-4.3    s0.9-2.3,1.6-3.2s1.5-1.5,2.5-2s2.1-0.7,3.2-0.7c1.2,0,2.2,0.2,3.1,0.6s1.7,1,2.4,1.8s1.1,1.7,1.5,2.7s0.5,2.2,0.5,3.5v2H335    c0.1,2.3,0.5,3.9,1.4,5s2.2,1.6,4,1.6c0.6,0,1.2,0,1.7-0.1s1-0.1,1.5-0.3s0.9-0.3,1.4-0.4s0.9-0.4,1.4-0.6v2.8    c-0.5,0.2-0.9,0.4-1.4,0.6s-0.9,0.3-1.4,0.4s-1,0.2-1.5,0.2S341,221.1,340.4,221.1z M339.6,203.8c-1.3,0-2.4,0.5-3.2,1.4    s-1.2,2.2-1.4,4h8.6c0-0.8-0.1-1.5-0.2-2.2s-0.4-1.2-0.7-1.7s-0.8-0.8-1.3-1.1S340.3,203.8,339.6,203.8z"
         id="path234" /></g></g><g
     id="Category_Good"
     class="st0"><path
       id="Category_Outline_1_"
       class="st1"
       d="M420.8,270.7c0-83-67.3-150.4-150.4-150.4S120,187.7,120,270.7H420.8z" /><path
       id="Category_Semi_Circle_1_"
       class="st2"
       d="M420.8,270.7c0-83-67.3-150.4-150.4-150.4S120,187.7,120,270.7H420.8z" /><g
       class="st9"
       id="g249"><path
         class="st10"
         d="M230.4,205.2h11.3V222c-0.9,0.3-1.7,0.5-2.6,0.8s-1.8,0.4-2.7,0.6s-1.9,0.3-2.9,0.3s-2.1,0.1-3.3,0.1    c-2.5,0-4.6-0.4-6.5-1.2s-3.5-2-4.8-3.5s-2.3-3.4-3-5.6s-1-4.6-1-7.3c0-2.7,0.4-5.1,1.1-7.3s1.8-4,3.2-5.5s3.2-2.7,5.3-3.5    s4.5-1.2,7.1-1.2c1.7,0,3.4,0.2,5,0.5s3.1,0.8,4.5,1.5l-1.7,3.8c-0.6-0.3-1.2-0.5-1.8-0.8s-1.3-0.4-2-0.6s-1.4-0.3-2.1-0.4    s-1.4-0.2-2.2-0.2c-1.9,0-3.6,0.3-5.1,0.9s-2.7,1.5-3.7,2.7s-1.7,2.6-2.3,4.3s-0.8,3.6-0.8,5.8c0,2,0.2,3.9,0.6,5.6    s1.1,3.1,2.1,4.4s2.1,2.2,3.6,2.8s3.3,1,5.4,1c0.7,0,1.3,0,1.9-0.1s1.1-0.1,1.6-0.2s0.9-0.1,1.4-0.2s0.8-0.2,1.3-0.2V209h-7V205.2    z"
         id="path241" /><path
         class="st10"
         d="M270.3,210.3c0,2.1-0.3,4-0.8,5.7s-1.3,3.1-2.3,4.2s-2.2,2-3.6,2.6s-3,0.9-4.7,0.9c-1.6,0-3.1-0.3-4.5-0.9    s-2.5-1.5-3.5-2.6s-1.8-2.5-2.3-4.2s-0.8-3.6-0.8-5.7c0-2.1,0.3-4,0.8-5.7s1.3-3,2.2-4.2s2.2-2,3.6-2.6s3-0.9,4.7-0.9    c1.6,0,3.1,0.3,4.5,0.9s2.5,1.4,3.5,2.6s1.8,2.5,2.3,4.2S270.3,208.2,270.3,210.3z M252.3,210.3c0,3.3,0.5,5.7,1.6,7.4    s2.8,2.5,5.2,2.5s4.1-0.8,5.2-2.5s1.6-4.1,1.6-7.4s-0.5-5.7-1.6-7.3s-2.8-2.4-5.2-2.4s-4.1,0.8-5.2,2.4S252.3,207.1,252.3,210.3z"
         id="path243" /><path
         class="st10"
         d="M298,210.3c0,2.1-0.3,4-0.8,5.7s-1.3,3.1-2.3,4.2s-2.2,2-3.6,2.6s-3,0.9-4.7,0.9c-1.6,0-3.1-0.3-4.5-0.9    s-2.5-1.5-3.5-2.6s-1.8-2.5-2.3-4.2s-0.8-3.6-0.8-5.7c0-2.1,0.3-4,0.8-5.7s1.3-3,2.2-4.2s2.2-2,3.6-2.6s3-0.9,4.7-0.9    c1.6,0,3.1,0.3,4.5,0.9s2.5,1.4,3.5,2.6s1.8,2.5,2.3,4.2S298,208.2,298,210.3z M280,210.3c0,3.3,0.5,5.7,1.6,7.4s2.8,2.5,5.2,2.5    s4.1-0.8,5.2-2.5s1.6-4.1,1.6-7.4s-0.5-5.7-1.6-7.3s-2.8-2.4-5.2-2.4s-4.1,0.8-5.2,2.4S280,207.1,280,210.3z"
         id="path245" /><path
         class="st10"
         d="M320.6,219.8h-0.2c-0.3,0.5-0.7,1-1.2,1.5s-1,0.9-1.6,1.3s-1.3,0.6-2,0.8s-1.6,0.3-2.5,0.3    c-1.5,0-2.8-0.3-4-0.8s-2.2-1.4-3.1-2.5s-1.5-2.5-2-4.2s-0.7-3.6-0.7-5.8c0-2.2,0.2-4.1,0.7-5.8s1.1-3.1,2-4.2s1.9-2,3.1-2.5    s2.5-0.9,4-0.9c0.9,0,1.8,0.1,2.5,0.3s1.4,0.5,2,0.8s1.1,0.7,1.6,1.2s0.9,0.9,1.2,1.4h0.3c0-0.5-0.1-1-0.1-1.5    c0-0.4-0.1-0.8-0.1-1.3s0-0.8,0-1v-10.2h4.3v36.5h-3.4L320.6,219.8z M313.9,220.2c1.2,0,2.2-0.2,3-0.5s1.5-0.9,2-1.6    s0.9-1.7,1.1-2.8s0.4-2.4,0.4-3.9v-1c0-1.6-0.1-3-0.3-4.2s-0.6-2.3-1.1-3.1s-1.2-1.5-2-1.9s-1.9-0.6-3.2-0.6    c-2.1,0-3.7,0.9-4.7,2.6s-1.5,4.1-1.5,7.3c0,3.3,0.5,5.7,1.5,7.3S311.7,220.2,313.9,220.2z"
         id="path247" /></g></g><g
     id="Category_Very_Unhealthy_1_"
     class="st0"><path
       id="Category_Outline_6_"
       class="st1"
       d="M420.8,270.7c0-83-67.3-150.4-150.4-150.4S120,187.7,120,270.7H420.8z" /><path
       id="Category_Semi_Circle_6_"
       class="st11"
       d="M420.8,270.7c0-83-67.3-150.4-150.4-150.4S120,187.7,120,270.7H420.8z" /><g
       class="st9"
       id="g278"><path
         class="st10"
         d="M264.3,199H261l-11.2-18.9h-0.1c0.1,0.8,0.1,1.6,0.2,2.4c0,0.7,0.1,1.4,0.1,2.1c0,0.7,0,1.4,0,2V199h-2.7    v-22.8h3.3l11.2,18.8h0.1c0-0.8-0.1-1.6-0.1-2.3c0-0.3,0-0.7,0-1c0-0.3,0-0.7,0-1c0-0.3,0-0.7,0-1c0-0.3,0-0.6,0-0.9v-12.5h2.7    V199z"
         id="path254" /><path
         class="st10"
         d="M284.1,190.4c0,1.4-0.2,2.7-0.5,3.8c-0.3,1.1-0.8,2-1.5,2.8c-0.7,0.8-1.4,1.3-2.4,1.7    c-0.9,0.4-2,0.6-3.1,0.6c-1.1,0-2.1-0.2-3-0.6s-1.7-1-2.4-1.7c-0.7-0.8-1.2-1.7-1.5-2.8c-0.4-1.1-0.6-2.4-0.6-3.8    c0-1.4,0.2-2.7,0.5-3.8c0.3-1.1,0.8-2,1.5-2.8c0.6-0.8,1.4-1.3,2.4-1.7c0.9-0.4,2-0.6,3.1-0.6c1.1,0,2.1,0.2,3,0.6s1.7,1,2.4,1.7    c0.7,0.8,1.2,1.7,1.5,2.8C283.9,187.7,284.1,189,284.1,190.4z M272.1,190.4c0,2.2,0.4,3.8,1.1,4.9c0.7,1.1,1.9,1.6,3.5,1.6    c1.6,0,2.8-0.5,3.5-1.6c0.7-1.1,1.1-2.7,1.1-4.9c0-2.2-0.4-3.8-1.1-4.9c-0.7-1.1-1.9-1.6-3.5-1.6c-1.6,0-2.8,0.5-3.5,1.6    S272.1,188.2,272.1,190.4z"
         id="path256" /><path
         class="st10"
         d="M293.8,197c0.2,0,0.4,0,0.6,0c0.2,0,0.5,0,0.7-0.1s0.4-0.1,0.6-0.1c0.2,0,0.3-0.1,0.4-0.1v2.2    c-0.1,0.1-0.3,0.1-0.5,0.2c-0.2,0.1-0.4,0.1-0.7,0.2s-0.5,0.1-0.8,0.1c-0.3,0-0.5,0-0.8,0c-0.6,0-1.2-0.1-1.8-0.3    c-0.6-0.2-1-0.5-1.4-0.9c-0.4-0.4-0.7-1-0.9-1.6c-0.2-0.7-0.3-1.6-0.3-2.6v-10h-2.4v-1.3l2.4-1.2l1.2-3.6h1.6v3.9h4.3v2.1h-4.3v10    c0,1,0.2,1.8,0.5,2.3C292.5,196.7,293,197,293.8,197z"
         id="path258" /><path
         class="st10"
         d="M222.2,234.2l-2.5-7.1h-8.5l-2.5,7.1h-2.9l8.4-22.9h2.7l8.4,22.9H222.2z M218.7,224.5l-2.3-6.6    c-0.1-0.2-0.1-0.4-0.2-0.7c-0.1-0.3-0.2-0.6-0.3-0.9s-0.2-0.6-0.3-1c-0.1-0.3-0.2-0.7-0.3-1c-0.1,0.3-0.2,0.7-0.3,1    s-0.2,0.7-0.3,1c-0.1,0.3-0.2,0.6-0.3,0.9c-0.1,0.3-0.2,0.5-0.2,0.7l-2.3,6.6H218.7z"
         id="path260" /><path
         class="st10"
         d="M231,234.2l-5.9-17.2h2.9l3.1,9.5c0.1,0.3,0.3,0.8,0.4,1.3c0.2,0.5,0.3,1.1,0.5,1.7s0.3,1.1,0.4,1.6    c0.1,0.5,0.2,0.9,0.3,1.1h0.1c0.1-0.3,0.1-0.6,0.3-1.1s0.3-1,0.4-1.6s0.3-1.1,0.5-1.7c0.2-0.5,0.3-1,0.4-1.3l3.1-9.5h2.9    l-5.9,17.2H231z"
         id="path262" /><path
         class="st10"
         d="M252.9,234.2l-0.6-2.4h-0.1c-0.3,0.5-0.7,0.9-1,1.2c-0.3,0.3-0.7,0.6-1.1,0.8s-0.9,0.4-1.4,0.5    c-0.5,0.1-1.1,0.2-1.7,0.2c-0.7,0-1.4-0.1-2-0.3c-0.6-0.2-1.1-0.5-1.6-0.9s-0.8-1-1-1.6s-0.4-1.4-0.4-2.3c0-1.7,0.6-3,1.8-3.9    c1.2-0.9,3-1.4,5.5-1.5l2.9-0.1v-1.1c0-0.7-0.1-1.3-0.2-1.8c-0.2-0.5-0.4-0.8-0.7-1.1c-0.3-0.3-0.6-0.5-1.1-0.6s-0.9-0.2-1.4-0.2    c-0.9,0-1.7,0.1-2.4,0.4c-0.7,0.3-1.5,0.6-2.1,0.9l-1-2.1c0.8-0.4,1.6-0.8,2.6-1.1c0.9-0.3,1.9-0.4,3-0.4c1.1,0,2,0.1,2.8,0.3    c0.8,0.2,1.4,0.6,1.9,1c0.5,0.5,0.9,1.1,1.1,1.8s0.4,1.6,0.4,2.6v11.8H252.9z M247.6,232.2c0.6,0,1.2-0.1,1.8-0.3    c0.5-0.2,1-0.5,1.4-0.9c0.4-0.4,0.7-0.9,0.9-1.5c0.2-0.6,0.3-1.3,0.3-2.1v-1.5l-2.2,0.1c-0.9,0-1.7,0.1-2.4,0.3    c-0.6,0.2-1.1,0.4-1.5,0.7c-0.4,0.3-0.7,0.7-0.8,1.1s-0.3,0.9-0.3,1.4c0,1,0.3,1.7,0.8,2.1C246.1,232,246.8,232.2,247.6,232.2z"
         id="path264" /><path
         class="st10"
         d="M259.9,212.4c0-0.6,0.2-1.1,0.5-1.4c0.3-0.3,0.7-0.4,1.2-0.4c0.2,0,0.4,0,0.6,0.1c0.2,0.1,0.4,0.2,0.5,0.3    c0.2,0.1,0.3,0.3,0.4,0.6c0.1,0.2,0.1,0.5,0.1,0.8c0,0.6-0.2,1.1-0.5,1.4s-0.7,0.4-1.2,0.4c-0.5,0-0.9-0.1-1.2-0.4    C260.1,213.5,259.9,213,259.9,212.4z M263,234.2h-2.8V217h2.8V234.2z"
         id="path266" /><path
         class="st10"
         d="M271.3,234.2h-2.8v-24.3h2.8V234.2z"
         id="path268" /><path
         class="st10"
         d="M286.4,234.2l-0.6-2.4h-0.1c-0.3,0.5-0.7,0.9-1,1.2c-0.3,0.3-0.7,0.6-1.1,0.8s-0.9,0.4-1.4,0.5    c-0.5,0.1-1.1,0.2-1.7,0.2c-0.7,0-1.4-0.1-2-0.3c-0.6-0.2-1.1-0.5-1.6-0.9c-0.4-0.4-0.8-1-1-1.6s-0.4-1.4-0.4-2.3    c0-1.7,0.6-3,1.8-3.9c1.2-0.9,3-1.4,5.5-1.5l2.9-0.1v-1.1c0-0.7-0.1-1.3-0.2-1.8c-0.2-0.5-0.4-0.8-0.7-1.1    c-0.3-0.3-0.6-0.5-1.1-0.6s-0.9-0.2-1.4-0.2c-0.9,0-1.7,0.1-2.4,0.4c-0.7,0.3-1.5,0.6-2.1,0.9l-1-2.1c0.8-0.4,1.6-0.8,2.6-1.1    c0.9-0.3,1.9-0.4,3-0.4c1.1,0,2,0.1,2.8,0.3c0.8,0.2,1.4,0.6,1.9,1c0.5,0.5,0.9,1.1,1.1,1.8s0.4,1.6,0.4,2.6v11.8H286.4z     M281.2,232.2c0.6,0,1.2-0.1,1.8-0.3c0.5-0.2,1-0.5,1.4-0.9c0.4-0.4,0.7-0.9,0.9-1.5c0.2-0.6,0.3-1.3,0.3-2.1v-1.5l-2.2,0.1    c-0.9,0-1.7,0.1-2.4,0.3c-0.6,0.2-1.1,0.4-1.5,0.7c-0.4,0.3-0.7,0.7-0.8,1.1c-0.2,0.4-0.3,0.9-0.3,1.4c0,1,0.3,1.7,0.8,2.1    C279.7,232,280.4,232.2,281.2,232.2z"
         id="path270" /><path
         class="st10"
         d="M301.5,216.7c1,0,1.9,0.2,2.7,0.6c0.8,0.4,1.5,0.9,2.1,1.7c0.6,0.7,1,1.7,1.3,2.8c0.3,1.1,0.5,2.4,0.5,3.8    c0,1.5-0.2,2.8-0.5,3.9s-0.8,2-1.3,2.8c-0.6,0.8-1.3,1.3-2.1,1.7c-0.8,0.4-1.7,0.6-2.7,0.6c-0.6,0-1.2-0.1-1.7-0.2s-1-0.3-1.4-0.5    c-0.4-0.2-0.8-0.5-1.1-0.8c-0.3-0.3-0.6-0.6-0.8-1h-0.2l-0.6,2.2h-2.1v-24.3h2.8v5.9c0,0.4,0,0.8,0,1.2c0,0.4,0,0.8,0,1.1    c0,0.4,0,0.8-0.1,1.2h0.1c0.2-0.4,0.5-0.7,0.8-1c0.3-0.3,0.7-0.6,1.1-0.8c0.4-0.2,0.9-0.4,1.4-0.5    C300.3,216.8,300.8,216.7,301.5,216.7z M300.9,219.1c-0.8,0-1.5,0.1-2.1,0.4c-0.6,0.3-1,0.7-1.3,1.2c-0.3,0.5-0.6,1.2-0.7,2    s-0.2,1.8-0.2,2.9c0,1.1,0.1,2,0.2,2.8c0.1,0.8,0.4,1.5,0.7,2.1c0.3,0.6,0.8,1,1.4,1.3c0.6,0.3,1.3,0.4,2.1,0.4    c1.4,0,2.4-0.6,3.1-1.7c0.7-1.1,1-2.8,1-4.9c0-2.2-0.3-3.8-1-4.9C303.4,219.6,302.3,219.1,300.9,219.1z"
         id="path272" /><path
         class="st10"
         d="M315.3,234.2h-2.8v-24.3h2.8V234.2z"
         id="path274" /><path
         class="st10"
         d="M327.5,234.5c-1.1,0-2.2-0.2-3.1-0.6c-0.9-0.4-1.8-0.9-2.4-1.7c-0.7-0.7-1.2-1.7-1.6-2.8s-0.6-2.3-0.6-3.8    c0-1.4,0.2-2.7,0.5-3.8c0.3-1.1,0.8-2.1,1.5-2.8c0.6-0.8,1.4-1.4,2.2-1.8c0.9-0.4,1.8-0.6,2.9-0.6c1,0,2,0.2,2.8,0.6    c0.8,0.4,1.5,0.9,2.1,1.6c0.6,0.7,1,1.5,1.3,2.4c0.3,0.9,0.5,2,0.5,3.1v1.8h-10.8c0.1,2,0.5,3.5,1.3,4.4c0.8,0.9,2,1.4,3.6,1.4    c0.5,0,1,0,1.5-0.1c0.5-0.1,0.9-0.1,1.3-0.2c0.4-0.1,0.8-0.2,1.2-0.4c0.4-0.2,0.8-0.3,1.2-0.5v2.5c-0.4,0.2-0.8,0.4-1.2,0.5    c-0.4,0.1-0.8,0.3-1.2,0.4s-0.9,0.2-1.3,0.2C328.5,234.5,328.1,234.5,327.5,234.5z M326.8,219.1c-1.2,0-2.1,0.4-2.8,1.2    c-0.7,0.8-1.1,2-1.2,3.5h7.7c0-0.7-0.1-1.4-0.2-1.9c-0.1-0.6-0.4-1.1-0.7-1.5c-0.3-0.4-0.7-0.7-1.1-1    C328,219.2,327.5,219.1,326.8,219.1z"
         id="path276" /></g></g><circle
     class="st12"
     cx="-270.79999"
     cy="270.39999"
     r="268"
     id="circle281"
     transform="rotate(-90)"
     style="fill:none" /><polygon
     class="st10"
     points="255.5,126 283.5,126 270.5,89 "
     id="polygon283"
     transform="rotate(-90,270.39999,270.79999)"
     style="fill:#ffffff" /><path
     style="fill:#ffffff;stroke-width:0.20224452"
     d="m 125.95217,285.70877 c -6.14859,-0.90468 -10.93918,-6.49976 -11.26148,-13.15264 -0.13303,-2.74595 0.26719,-4.67133 1.5073,-7.2513 0.77594,-1.6143 1.19012,-2.18138 2.66411,-3.6476 1.31679,-1.30986 2.11775,-1.91848 3.26216,-2.47881 7.57859,-3.71068 16.18425,0.44356 18.5361,8.94799 0.26565,0.96062 0.35967,1.9953 0.34919,3.84265 -0.0123,2.16748 -0.0907,2.75882 -0.54971,4.14601 -1.29537,3.91485 -3.62402,6.66889 -7.11123,8.41029 -2.36825,1.18263 -4.77961,1.56844 -7.39644,1.18341 z"
     id="path174"
     inkscape:connector-curvature="0" /><path
     style="fill:#ffffff;stroke-width:0.20224452"
     d="m 124.75235,285.34206 c -2.11173,-0.57027 -4.15118,-1.76237 -5.75242,-3.36243 -1.65478,-1.65354 -2.57287,-3.11587 -3.40697,-5.42661 -0.50214,-1.39108 -0.61212,-2.04996 -0.69765,-4.17948 -0.12197,-3.03697 0.13396,-4.26678 1.46492,-7.03909 0.74958,-1.56135 1.19013,-2.16853 2.58669,-3.56508 1.35977,-1.35978 2.01139,-1.83902 3.39094,-2.49392 2.19982,-1.0443 3.24557,-1.2817 5.63341,-1.27886 3.5004,0.004 6.32723,1.22131 8.92067,3.84101 1.07469,1.08556 1.76427,2.01059 2.35125,3.15402 1.43869,2.80257 1.58949,3.4579 1.58235,6.87631 -0.006,2.97635 -0.0197,3.06807 -0.71252,4.85387 -1.43036,3.68686 -3.59684,6.08034 -7.05811,7.79766 -2.42507,1.2032 -5.69386,1.52706 -8.30256,0.8226 z"
     id="path176"
     inkscape:connector-curvature="0" /></svg>