<?xml version="1.0" encoding="UTF-8"?>
<svg version="1.1" viewBox="0 0 540 540" xmlns="http://www.w3.org/2000/svg">
<style type="text/css">
	.st10{fill:#FFFFFF;}
	.st11{fill:none;stroke:#FFFFFF;stroke-width:3.6963;stroke-miterlimit:10;}
	.st12{fill:#FF0000;}
</style>
<path class="st11" d="M420.8,270.7c0-83-67.3-150.4-150.4-150.4S120,187.7,120,270.7H420.8z"/>
<path class="st12" d="M420.8,270.7c0-83-67.3-150.4-150.4-150.4S120,187.7,120,270.7H420.8z"/>
<path class="st10" d="m209.2 195v16.7c0 1.3-0.2 2.6-0.6 3.7s-1 2.1-1.7 3-1.8 1.5-2.9 2-2.6 0.7-4.2 0.7c-1.5 0-2.8-0.2-4-0.7s-2.1-1.1-2.9-1.9-1.4-1.8-1.8-3-0.6-2.5-0.6-3.9v-16.6h3.3v16.7c0 2.1 0.5 3.6 1.5 4.8s2.5 1.7 4.6 1.7c1 0 1.9-0.2 2.7-0.5s1.4-0.8 1.8-1.3 0.8-1.3 1.1-2.1 0.4-1.7 0.4-2.6v-16.7h3.3z"/>
<path class="st10" d="m227.6 220.8v-12.4c0-1.5-0.3-2.7-0.9-3.4s-1.6-1.1-2.9-1.1c-0.9 0-1.7 0.2-2.4 0.5s-1.2 0.8-1.6 1.4-0.7 1.3-0.8 2.2-0.3 1.9-0.3 3v10h-3.2v-19.3h2.6l0.5 2.6h0.2c0.3-0.5 0.6-0.9 1-1.3s0.8-0.7 1.3-0.9 1-0.4 1.5-0.5 1.1-0.2 1.7-0.2c2.1 0 3.8 0.6 4.8 1.7s1.6 2.9 1.6 5.4v12.6h-3.1z"/>
<path class="st10" d="m248.8 220.8v-12.4c0-1.5-0.3-2.7-0.9-3.4s-1.6-1.1-2.9-1.1c-0.9 0-1.7 0.2-2.4 0.5s-1.2 0.8-1.6 1.4-0.7 1.3-0.8 2.2-0.3 1.9-0.3 3v10h-3.2v-27.4h3.2v8.1l-0.1 2.5h0.2c0.3-0.5 0.6-0.9 1-1.3s0.8-0.7 1.3-0.9 1-0.4 1.5-0.5 1.1-0.2 1.7-0.2c2.1 0 3.8 0.6 4.8 1.7s1.6 2.9 1.6 5.4v12.6h-3.1z"/>
<path class="st10" d="m265.5 221.1c-1.3 0-2.5-0.2-3.5-0.7s-2-1.1-2.8-1.9-1.4-1.9-1.8-3.1-0.6-2.6-0.6-4.2 0.2-3 0.6-4.3 0.9-2.3 1.6-3.2 1.5-1.5 2.5-2 2.1-0.7 3.2-0.7c1.2 0 2.2 0.2 3.1 0.6s1.7 1 2.4 1.8 1.1 1.7 1.5 2.7 0.5 2.2 0.5 3.5v2h-12.2c0.1 2.3 0.5 3.9 1.4 5s2.2 1.6 4 1.6c0.6 0 1.2 0 1.7-0.1s1-0.1 1.5-0.3 0.9-0.3 1.4-0.4 0.9-0.4 1.4-0.6v2.8c-0.5 0.2-0.9 0.4-1.4 0.6s-0.9 0.3-1.4 0.4-1 0.2-1.5 0.2-1 0.3-1.6 0.3zm-0.8-17.3c-1.3 0-2.4 0.5-3.2 1.4s-1.2 2.2-1.4 4h8.6c0-0.8-0.1-1.5-0.2-2.2s-0.4-1.2-0.7-1.7-0.8-0.8-1.3-1.1-1-0.4-1.8-0.4z"/>
<path class="st10" d="m288 220.8l-0.7-2.7h-0.1c-0.4 0.5-0.8 1-1.2 1.4s-0.8 0.7-1.3 0.9-1 0.4-1.5 0.5-1.2 0.2-2 0.2-1.6-0.1-2.2-0.3-1.3-0.6-1.8-1.1-0.9-1.1-1.2-1.8-0.4-1.6-0.4-2.6c0-1.9 0.7-3.4 2-4.4s3.4-1.6 6.2-1.7l3.2-0.1v-1.2c0-0.8-0.1-1.4-0.3-2s-0.4-1-0.7-1.3-0.7-0.6-1.2-0.7-1-0.2-1.6-0.2c-1 0-1.9 0.1-2.7 0.4s-1.6 0.6-2.4 1l-1.1-2.4c0.9-0.5 1.8-0.9 2.9-1.2s2.2-0.5 3.4-0.5 2.2 0.1 3.1 0.4 1.6 0.6 2.2 1.1 1 1.2 1.3 2 0.4 1.8 0.4 2.9v13.2h-2.3zm-5.8-2.3c0.7 0 1.4-0.1 2-0.3s1.1-0.6 1.6-1 0.8-1 1-1.7 0.4-1.5 0.4-2.4v-1.7l-2.5 0.1c-1.1 0-1.9 0.2-2.7 0.4s-1.3 0.4-1.7 0.8-0.7 0.7-0.9 1.2-0.3 1-0.3 1.6c0 1.1 0.3 1.9 0.9 2.4s1.2 0.6 2.2 0.6z"/>
<path class="st10" d="m299.5 220.8h-3.2v-27.4h3.2v27.4z"/>
<path class="st10" d="m311.4 218.5h0.7s0.5-0.1 0.8-0.1 0.5-0.1 0.7-0.1 0.4-0.1 0.5-0.1v2.4c-0.2 0.1-0.3 0.1-0.6 0.2s-0.5 0.1-0.8 0.2-0.6 0.1-0.9 0.1-0.6 0-0.9 0c-0.7 0-1.4-0.1-2-0.3s-1.2-0.5-1.6-1-0.8-1.1-1.1-1.9-0.4-1.8-0.4-2.9v-11.2h-2.7v-1.4l2.7-1.4 1.4-4h1.8v4.4h4.9v2.4h-4.9v11.2c0 1.1 0.2 2 0.6 2.6s1 0.9 1.8 0.9z"/>
<path class="st10" d="m329.8 220.8v-12.4c0-1.5-0.3-2.7-0.9-3.4s-1.6-1.1-2.9-1.1c-0.9 0-1.7 0.2-2.4 0.5s-1.2 0.8-1.6 1.4-0.7 1.3-0.8 2.2-0.3 1.9-0.3 3v10h-3.2v-27.4h3.2v8.1l-0.1 2.5h0.2c0.3-0.5 0.6-0.9 1-1.3s0.8-0.7 1.3-0.9 1-0.4 1.5-0.5 1.1-0.2 1.7-0.2c2.1 0 3.8 0.6 4.8 1.7s1.6 2.9 1.6 5.4v12.6h-3.1z"/>
<path class="st10" d="m336.1 201.4h3.3l3.8 10.8c0.2 0.5 0.3 1 0.5 1.5s0.3 1 0.5 1.5 0.3 1 0.4 1.5 0.2 0.9 0.2 1.3h0.1c0.1-0.3 0.2-0.7 0.3-1.2s0.3-1 0.4-1.6 0.3-1.1 0.5-1.7 0.3-1 0.4-1.4l3.5-10.7h3.3l-7.6 21.8c-0.3 0.9-0.7 1.8-1.1 2.6s-0.8 1.4-1.3 1.9-1.1 0.9-1.8 1.2-1.5 0.4-2.4 0.4c-0.6 0-1.1 0-1.6-0.1s-0.8-0.1-1.1-0.2v-2.5c0.2 0.1 0.6 0.1 0.9 0.1s0.8 0.1 1.2 0.1c0.6 0 1-0.1 1.5-0.2s0.8-0.3 1.1-0.6 0.6-0.6 0.8-0.9 0.4-0.8 0.6-1.3l1-2.8-7.4-19.5z"/>
</svg>
