<?xml version="1.0" encoding="utf-8"?>
<svg version="1.1" viewBox="0 0 540 540" xmlns="http://www.w3.org/2000/svg">
<style type="text/css">
	.st10{fill:#FFFFFF;}
	.st11{fill:none;stroke:#FFFFFF;stroke-width:3.6963;stroke-miterlimit:10;}
	.st12{fill:#666666;}
</style>

<g>
	<path class="st11" d="M420.8,270.7c0-83-67.3-150.4-150.4-150.4S120,187.7,120,270.7H420.8z"/>
	<path class="st12" d="M420.8,270.7c0-83-67.3-150.4-150.4-150.4S120,187.7,120,270.7H420.8z"/>
	<g>
		<path class="st10" d="M264.3,199H261l-11.2-18.9h-0.1c0.1,0.8,0.1,1.6,0.2,2.4c0,0.7,0.1,1.4,0.1,2.1c0,0.7,0,1.4,0,2V199h-2.7
			v-22.8h3.3l11.2,18.8h0.1c0-0.8-0.1-1.6-0.1-2.3c0-0.3,0-0.7,0-1c0-0.3,0-0.7,0-1c0-0.3,0-0.7,0-1c0-0.3,0-0.6,0-0.9v-12.5h2.7
			V199z"/>
		<path class="st10" d="M284.1,190.4c0,1.4-0.2,2.7-0.5,3.8c-0.3,1.1-0.8,2-1.5,2.8c-0.7,0.8-1.4,1.3-2.4,1.7
			c-0.9,0.4-2,0.6-3.1,0.6c-1.1,0-2.1-0.2-3-0.6s-1.7-1-2.4-1.7c-0.7-0.8-1.2-1.7-1.5-2.8c-0.4-1.1-0.6-2.4-0.6-3.8
			c0-1.4,0.2-2.7,0.5-3.8c0.3-1.1,0.8-2,1.5-2.8c0.6-0.8,1.4-1.3,2.4-1.7c0.9-0.4,2-0.6,3.1-0.6c1.1,0,2.1,0.2,3,0.6s1.7,1,2.4,1.7
			c0.7,0.8,1.2,1.7,1.5,2.8C283.9,187.7,284.1,189,284.1,190.4z M272.1,190.4c0,2.2,0.4,3.8,1.1,4.9c0.7,1.1,1.9,1.6,3.5,1.6
			c1.6,0,2.8-0.5,3.5-1.6c0.7-1.1,1.1-2.7,1.1-4.9c0-2.2-0.4-3.8-1.1-4.9c-0.7-1.1-1.9-1.6-3.5-1.6c-1.6,0-2.8,0.5-3.5,1.6
			S272.1,188.2,272.1,190.4z"/>
		<path class="st10" d="M293.8,197c0.2,0,0.4,0,0.6,0c0.2,0,0.5,0,0.7-0.1s0.4-0.1,0.6-0.1c0.2,0,0.3-0.1,0.4-0.1v2.2
			c-0.1,0.1-0.3,0.1-0.5,0.2c-0.2,0.1-0.4,0.1-0.7,0.2s-0.5,0.1-0.8,0.1c-0.3,0-0.5,0-0.8,0c-0.6,0-1.2-0.1-1.8-0.3
			c-0.6-0.2-1-0.5-1.4-0.9c-0.4-0.4-0.7-1-0.9-1.6c-0.2-0.7-0.3-1.6-0.3-2.6v-10h-2.4v-1.3l2.4-1.2l1.2-3.6h1.6v3.9h4.3v2.1h-4.3v10
			c0,1,0.2,1.8,0.5,2.3C292.5,196.7,293,197,293.8,197z"/>
		<path class="st10" d="M222.2,234.2l-2.5-7.1h-8.5l-2.5,7.1h-2.9l8.4-22.9h2.7l8.4,22.9H222.2z M218.7,224.5l-2.3-6.6
			c-0.1-0.2-0.1-0.4-0.2-0.7c-0.1-0.3-0.2-0.6-0.3-0.9s-0.2-0.6-0.3-1c-0.1-0.3-0.2-0.7-0.3-1c-0.1,0.3-0.2,0.7-0.3,1
			s-0.2,0.7-0.3,1c-0.1,0.3-0.2,0.6-0.3,0.9c-0.1,0.3-0.2,0.5-0.2,0.7l-2.3,6.6H218.7z"/>
		<path class="st10" d="M231,234.2l-5.9-17.2h2.9l3.1,9.5c0.1,0.3,0.3,0.8,0.4,1.3c0.2,0.5,0.3,1.1,0.5,1.7s0.3,1.1,0.4,1.6
			c0.1,0.5,0.2,0.9,0.3,1.1h0.1c0.1-0.3,0.1-0.6,0.3-1.1s0.3-1,0.4-1.6s0.3-1.1,0.5-1.7c0.2-0.5,0.3-1,0.4-1.3l3.1-9.5h2.9
			l-5.9,17.2H231z"/>
		<path class="st10" d="M252.9,234.2l-0.6-2.4h-0.1c-0.3,0.5-0.7,0.9-1,1.2c-0.3,0.3-0.7,0.6-1.1,0.8s-0.9,0.4-1.4,0.5
			c-0.5,0.1-1.1,0.2-1.7,0.2c-0.7,0-1.4-0.1-2-0.3c-0.6-0.2-1.1-0.5-1.6-0.9s-0.8-1-1-1.6s-0.4-1.4-0.4-2.3c0-1.7,0.6-3,1.8-3.9
			c1.2-0.9,3-1.4,5.5-1.5l2.9-0.1v-1.1c0-0.7-0.1-1.3-0.2-1.8c-0.2-0.5-0.4-0.8-0.7-1.1c-0.3-0.3-0.6-0.5-1.1-0.6s-0.9-0.2-1.4-0.2
			c-0.9,0-1.7,0.1-2.4,0.4c-0.7,0.3-1.5,0.6-2.1,0.9l-1-2.1c0.8-0.4,1.6-0.8,2.6-1.1c0.9-0.3,1.9-0.4,3-0.4c1.1,0,2,0.1,2.8,0.3
			c0.8,0.2,1.4,0.6,1.9,1c0.5,0.5,0.9,1.1,1.1,1.8s0.4,1.6,0.4,2.6v11.8H252.9z M247.6,232.2c0.6,0,1.2-0.1,1.8-0.3
			c0.5-0.2,1-0.5,1.4-0.9c0.4-0.4,0.7-0.9,0.9-1.5c0.2-0.6,0.3-1.3,0.3-2.1v-1.5l-2.2,0.1c-0.9,0-1.7,0.1-2.4,0.3
			c-0.6,0.2-1.1,0.4-1.5,0.7c-0.4,0.3-0.7,0.7-0.8,1.1s-0.3,0.9-0.3,1.4c0,1,0.3,1.7,0.8,2.1C246.1,232,246.8,232.2,247.6,232.2z"/>
		<path class="st10" d="M259.9,212.4c0-0.6,0.2-1.1,0.5-1.4c0.3-0.3,0.7-0.4,1.2-0.4c0.2,0,0.4,0,0.6,0.1c0.2,0.1,0.4,0.2,0.5,0.3
			c0.2,0.1,0.3,0.3,0.4,0.6c0.1,0.2,0.1,0.5,0.1,0.8c0,0.6-0.2,1.1-0.5,1.4s-0.7,0.4-1.2,0.4c-0.5,0-0.9-0.1-1.2-0.4
			C260.1,213.5,259.9,213,259.9,212.4z M263,234.2h-2.8V217h2.8V234.2z"/>
		<path class="st10" d="M271.3,234.2h-2.8v-24.3h2.8V234.2z"/>
		<path class="st10" d="M286.4,234.2l-0.6-2.4h-0.1c-0.3,0.5-0.7,0.9-1,1.2c-0.3,0.3-0.7,0.6-1.1,0.8s-0.9,0.4-1.4,0.5
			c-0.5,0.1-1.1,0.2-1.7,0.2c-0.7,0-1.4-0.1-2-0.3c-0.6-0.2-1.1-0.5-1.6-0.9c-0.4-0.4-0.8-1-1-1.6s-0.4-1.4-0.4-2.3
			c0-1.7,0.6-3,1.8-3.9c1.2-0.9,3-1.4,5.5-1.5l2.9-0.1v-1.1c0-0.7-0.1-1.3-0.2-1.8c-0.2-0.5-0.4-0.8-0.7-1.1
			c-0.3-0.3-0.6-0.5-1.1-0.6s-0.9-0.2-1.4-0.2c-0.9,0-1.7,0.1-2.4,0.4c-0.7,0.3-1.5,0.6-2.1,0.9l-1-2.1c0.8-0.4,1.6-0.8,2.6-1.1
			c0.9-0.3,1.9-0.4,3-0.4c1.1,0,2,0.1,2.8,0.3c0.8,0.2,1.4,0.6,1.9,1c0.5,0.5,0.9,1.1,1.1,1.8s0.4,1.6,0.4,2.6v11.8H286.4z
			 M281.2,232.2c0.6,0,1.2-0.1,1.8-0.3c0.5-0.2,1-0.5,1.4-0.9c0.4-0.4,0.7-0.9,0.9-1.5c0.2-0.6,0.3-1.3,0.3-2.1v-1.5l-2.2,0.1
			c-0.9,0-1.7,0.1-2.4,0.3c-0.6,0.2-1.1,0.4-1.5,0.7c-0.4,0.3-0.7,0.7-0.8,1.1c-0.2,0.4-0.3,0.9-0.3,1.4c0,1,0.3,1.7,0.8,2.1
			C279.7,232,280.4,232.2,281.2,232.2z"/>
		<path class="st10" d="M301.5,216.7c1,0,1.9,0.2,2.7,0.6c0.8,0.4,1.5,0.9,2.1,1.7c0.6,0.7,1,1.7,1.3,2.8c0.3,1.1,0.5,2.4,0.5,3.8
			c0,1.5-0.2,2.8-0.5,3.9s-0.8,2-1.3,2.8c-0.6,0.8-1.3,1.3-2.1,1.7c-0.8,0.4-1.7,0.6-2.7,0.6c-0.6,0-1.2-0.1-1.7-0.2s-1-0.3-1.4-0.5
			c-0.4-0.2-0.8-0.5-1.1-0.8c-0.3-0.3-0.6-0.6-0.8-1h-0.2l-0.6,2.2h-2.1v-24.3h2.8v5.9c0,0.4,0,0.8,0,1.2c0,0.4,0,0.8,0,1.1
			c0,0.4,0,0.8-0.1,1.2h0.1c0.2-0.4,0.5-0.7,0.8-1c0.3-0.3,0.7-0.6,1.1-0.8c0.4-0.2,0.9-0.4,1.4-0.5
			C300.3,216.8,300.8,216.7,301.5,216.7z M300.9,219.1c-0.8,0-1.5,0.1-2.1,0.4c-0.6,0.3-1,0.7-1.3,1.2c-0.3,0.5-0.6,1.2-0.7,2
			s-0.2,1.8-0.2,2.9c0,1.1,0.1,2,0.2,2.8c0.1,0.8,0.4,1.5,0.7,2.1c0.3,0.6,0.8,1,1.4,1.3c0.6,0.3,1.3,0.4,2.1,0.4
			c1.4,0,2.4-0.6,3.1-1.7c0.7-1.1,1-2.8,1-4.9c0-2.2-0.3-3.8-1-4.9C303.4,219.6,302.3,219.1,300.9,219.1z"/>
		<path class="st10" d="M315.3,234.2h-2.8v-24.3h2.8V234.2z"/>
		<path class="st10" d="M327.5,234.5c-1.1,0-2.2-0.2-3.1-0.6c-0.9-0.4-1.8-0.9-2.4-1.7c-0.7-0.7-1.2-1.7-1.6-2.8s-0.6-2.3-0.6-3.8
			c0-1.4,0.2-2.7,0.5-3.8c0.3-1.1,0.8-2.1,1.5-2.8c0.6-0.8,1.4-1.4,2.2-1.8c0.9-0.4,1.8-0.6,2.9-0.6c1,0,2,0.2,2.8,0.6
			c0.8,0.4,1.5,0.9,2.1,1.6c0.6,0.7,1,1.5,1.3,2.4c0.3,0.9,0.5,2,0.5,3.1v1.8h-10.8c0.1,2,0.5,3.5,1.3,4.4c0.8,0.9,2,1.4,3.6,1.4
			c0.5,0,1,0,1.5-0.1c0.5-0.1,0.9-0.1,1.3-0.2c0.4-0.1,0.8-0.2,1.2-0.4c0.4-0.2,0.8-0.3,1.2-0.5v2.5c-0.4,0.2-0.8,0.4-1.2,0.5
			c-0.4,0.1-0.8,0.3-1.2,0.4s-0.9,0.2-1.3,0.2C328.5,234.5,328.1,234.5,327.5,234.5z M326.8,219.1c-1.2,0-2.1,0.4-2.8,1.2
			c-0.7,0.8-1.1,2-1.2,3.5h7.7c0-0.7-0.1-1.4-0.2-1.9c-0.1-0.6-0.4-1.1-0.7-1.5c-0.3-0.4-0.7-0.7-1.1-1
			C328,219.2,327.5,219.1,326.8,219.1z"/>
	</g>
</g>
</svg>
