<?xml version="1.0" encoding="UTF-8"?>
<svg version="1.1" viewBox="0 0 540 540" xmlns="http://www.w3.org/2000/svg">
<style type="text/css">
	.st10{fill:#FFFFFF;}
	.st11{fill:none;stroke:#FFFFFF;stroke-width:3.6963;stroke-miterlimit:10;}
	.st12{fill:#7e0023;}
</style>
<path class="st11" d="M420.8,270.7c0-83-67.3-150.4-150.4-150.4S120,187.7,120,270.7H420.8z"/>
<path class="st12" d="M420.8,270.7c0-83-67.3-150.4-150.4-150.4S120,187.7,120,270.7H420.8z" fill="#7e0023"/>
<path class="st10" d="m205.7 220.8h-3.3v-12h-11.7v12h-3.3v-25.7h3.3v10.8h11.7v-10.8h3.3v25.7z"/>
<path class="st10" d="m223.1 220.8l-0.7-2.7h-0.1c-0.4 0.5-0.8 1-1.2 1.4s-0.8 0.7-1.3 0.9-1 0.4-1.5 0.5-1.2 0.2-2 0.2-1.6-0.1-2.2-0.3-1.3-0.6-1.8-1.1-0.9-1.1-1.2-1.8-0.4-1.6-0.4-2.6c0-1.9 0.7-3.4 2-4.4s3.4-1.6 6.2-1.7l3.2-0.1v-1.2c0-0.8-0.1-1.4-0.3-2s-0.4-1-0.7-1.3-0.7-0.6-1.2-0.7-1-0.2-1.6-0.2c-1 0-1.9 0.1-2.7 0.4s-1.6 0.6-2.4 1l-1.1-2.4c0.9-0.5 1.8-0.9 2.9-1.2s2.2-0.5 3.4-0.5 2.2 0.1 3.1 0.4 1.6 0.6 2.2 1.1 1 1.2 1.3 2 0.4 1.8 0.4 2.9v13.2h-2.3zm-5.9-2.3c0.7 0 1.4-0.1 2-0.3s1.1-0.6 1.6-1 0.8-1 1-1.7 0.4-1.5 0.4-2.4v-1.7l-2.5 0.1c-1.1 0-1.9 0.2-2.7 0.4s-1.3 0.4-1.7 0.8-0.7 0.7-0.9 1.2-0.3 1-0.3 1.6c0 1.1 0.3 1.9 0.9 2.4s1.3 0.6 2.2 0.6z"/>
<path class="st10" d="m242.7 220.8h-13v-2.2l9.4-14.7h-8.8v-2.4h12.1v2.6l-9.2 14.3h9.5v2.4z"/>
<path class="st10" d="m258.1 220.8l-0.7-2.7h-0.1c-0.4 0.5-0.8 1-1.2 1.4s-0.8 0.7-1.3 0.9-1 0.4-1.5 0.5-1.2 0.2-2 0.2-1.6-0.1-2.2-0.3-1.3-0.6-1.8-1.1-0.9-1.1-1.2-1.8-0.4-1.6-0.4-2.6c0-1.9 0.7-3.4 2-4.4s3.4-1.6 6.2-1.7l3.2-0.1v-1.2c0-0.8-0.1-1.4-0.3-2s-0.4-1-0.7-1.3-0.7-0.6-1.2-0.7-1-0.2-1.6-0.2c-1 0-1.9 0.1-2.7 0.4s-1.6 0.6-2.4 1l-1.1-2.4c0.9-0.5 1.8-0.9 2.9-1.2s2.2-0.5 3.4-0.5 2.2 0.1 3.1 0.4 1.6 0.6 2.2 1.1 1 1.2 1.3 2 0.4 1.8 0.4 2.9v13.2h-2.3zm-5.9-2.3c0.7 0 1.4-0.1 2-0.3s1.1-0.6 1.6-1 0.8-1 1-1.7 0.4-1.5 0.4-2.4v-1.7l-2.5 0.1c-1.1 0-1.9 0.2-2.7 0.4s-1.3 0.4-1.7 0.8-0.7 0.7-0.9 1.2-0.3 1-0.3 1.6c0 1.1 0.3 1.9 0.9 2.4s1.3 0.6 2.2 0.6z"/>
<path class="st10" d="m274.7 201.1h1.1s0.8 0.1 1.1 0.1l-0.4 3c-0.3-0.1-0.7-0.1-1-0.1s-0.7-0.1-1-0.1c-0.7 0-1.4 0.1-2 0.4s-1.1 0.7-1.6 1.3-0.8 1.2-1 2-0.4 1.6-0.4 2.6v10.4h-3.2v-19.3h2.6l0.4 3.5h0.1c0.3-0.5 0.6-1 0.9-1.5s0.7-0.9 1.1-1.2 0.9-0.6 1.4-0.9 1.2-0.2 1.9-0.2z"/>
<path class="st10" d="m292.6 218.2h-0.1c-0.3 0.4-0.6 0.8-0.9 1.1s-0.7 0.7-1.2 0.9-1 0.5-1.5 0.6-1.2 0.2-1.9 0.2c-1.1 0-2.1-0.2-3-0.6s-1.7-1.1-2.3-1.9-1.1-1.9-1.5-3.1-0.5-2.7-0.5-4.3c0-1.7 0.2-3.1 0.5-4.4s0.8-2.3 1.5-3.1 1.4-1.5 2.3-1.9 1.9-0.6 3-0.6c0.7 0 1.3 0.1 1.9 0.2s1.1 0.4 1.5 0.6 0.9 0.6 1.2 0.9 0.7 0.7 0.9 1.1h0.2c0-0.4-0.1-0.8-0.1-1.1s0-0.6-0.1-0.9 0-0.6 0-0.8v-7.7h3.2v27.4h-2.6l-0.5-2.6zm-5.1 0.2c0.9 0 1.6-0.1 2.3-0.4s1.1-0.7 1.5-1.2 0.7-1.2 0.8-2.1 0.3-1.8 0.3-2.9v-0.7c0-1.2-0.1-2.2-0.2-3.2s-0.4-1.7-0.8-2.3-0.9-1.1-1.5-1.4-1.4-0.5-2.4-0.5c-1.6 0-2.7 0.6-3.5 1.9s-1.1 3.1-1.1 5.5 0.4 4.3 1.1 5.5 1.9 1.8 3.5 1.8z"/>
<path class="st10" d="m317.5 211.1c0 1.6-0.2 3-0.6 4.3s-1 2.3-1.7 3.1-1.6 1.5-2.7 1.9-2.2 0.7-3.5 0.7c-1.2 0-2.3-0.2-3.3-0.7s-1.9-1.1-2.6-1.9-1.3-1.9-1.7-3.1-0.6-2.7-0.6-4.3 0.2-3 0.6-4.2 1-2.3 1.7-3.1 1.6-1.5 2.7-1.9 2.2-0.7 3.5-0.7c1.2 0 2.3 0.2 3.3 0.7s1.9 1.1 2.6 1.9 1.3 1.9 1.7 3.1 0.6 2.6 0.6 4.2zm-13.5 0c0 2.4 0.4 4.3 1.2 5.5s2.1 1.9 3.9 1.9 3.1-0.6 3.9-1.9 1.2-3.1 1.2-5.5-0.4-4.3-1.2-5.5-2.1-1.8-3.9-1.8-3.1 0.6-3.9 1.8-1.2 3-1.2 5.5z"/>
<path class="st10" d="m335 220.8l-0.5-2.6h-0.2c-0.3 0.5-0.6 0.9-1 1.3s-0.8 0.7-1.3 0.9-1 0.4-1.5 0.5-1.1 0.2-1.7 0.2c-1.1 0-2-0.1-2.8-0.4s-1.5-0.7-2-1.3-0.9-1.3-1.2-2.2-0.4-2-0.4-3.2v-12.6h3.2v12.4c0 1.5 0.3 2.7 0.9 3.4s1.6 1.1 2.9 1.1c0.9 0 1.7-0.2 2.4-0.5s1.2-0.8 1.6-1.3 0.7-1.3 0.8-2.2 0.3-1.9 0.3-3v-10h3.2v19.3h-2.7z"/>
<path class="st10" d="m355.3 215.5c0 0.9-0.2 1.8-0.5 2.5s-0.8 1.3-1.5 1.8-1.4 0.8-2.3 1.1-1.9 0.4-3 0.4c-1.3 0-2.4-0.1-3.3-0.3s-1.7-0.5-2.4-0.9v-3.1l1.2 0.6s0.9 0.3 1.4 0.5 1 0.3 1.5 0.3 1 0.1 1.6 0.1c0.8 0 1.4-0.1 1.9-0.2s1-0.3 1.3-0.6 0.6-0.5 0.7-0.9 0.2-0.7 0.2-1.2c0-0.4-0.1-0.7-0.2-1s-0.3-0.6-0.6-0.9-0.7-0.6-1.3-0.9-1.2-0.6-2.1-1-1.6-0.7-2.3-1.1-1.2-0.7-1.7-1.2-0.8-0.9-1.1-1.5-0.4-1.2-0.4-2 0.2-1.5 0.5-2.2 0.8-1.2 1.4-1.6 1.3-0.8 2.1-1 1.7-0.3 2.7-0.3c1.1 0 2.2 0.1 3.1 0.4s1.8 0.6 2.7 1l-1.1 2.6c-0.8-0.3-1.5-0.6-2.3-0.9s-1.6-0.4-2.5-0.4c-1.2 0-2.1 0.2-2.7 0.6s-0.9 1-0.9 1.7c0 0.4 0.1 0.8 0.2 1.1s0.4 0.6 0.7 0.9 0.8 0.5 1.3 0.8 1.2 0.6 2.1 0.9c0.8 0.4 1.6 0.7 2.3 1.1s1.2 0.7 1.7 1.2 0.8 0.9 1.1 1.5 0.5 1.3 0.5 2.1z"/>
</svg>
