<?xml version="1.0" encoding="UTF-8"?>
<svg version="1.1" viewBox="0 0 540 540" xmlns="http://www.w3.org/2000/svg">
<style type="text/css">
	.st10{fill:#FFFFFF;}
	.st11{fill:none;stroke:#FFFFFF;stroke-width:3.6963;stroke-miterlimit:10;}
	.st12{fill:#8F3F97;}
</style>
<path class="st11" d="M420.8,270.7c0-83-67.3-150.4-150.4-150.4S120,187.7,120,270.7H420.8z"/>
<path class="st12" d="M420.8,270.7c0-83-67.3-150.4-150.4-150.4S120,187.7,120,270.7H420.8z"/>
<path class="st10" d="m254.1 176.2h3.1l-7.6 22.8h-2.9l-7.6-22.8h3.1l4.6 14.5c0.3 0.9 0.6 1.9 0.8 2.7 0.2 0.9 0.4 1.7 0.6 2.5 0.2-0.8 0.4-1.6 0.6-2.5s0.5-1.8 0.8-2.8l4.5-14.4z"/>
<path class="st10" d="m265.8 199.3c-1.1 0-2.2-0.2-3.1-0.6s-1.8-0.9-2.4-1.7c-0.7-0.7-1.2-1.7-1.6-2.8s-0.6-2.3-0.6-3.8c0-1.4 0.2-2.7 0.5-3.8s0.8-2.1 1.5-2.8c0.6-0.8 1.4-1.4 2.2-1.8 0.9-0.4 1.8-0.6 2.9-0.6 1 0 2 0.2 2.8 0.6s1.5 0.9 2.1 1.6 1 1.5 1.3 2.4 0.5 2 0.5 3.1v1.8h-10.9c0.1 2 0.5 3.5 1.3 4.4s2 1.4 3.6 1.4c0.5 0 1 0 1.5-0.1s0.9-0.1 1.3-0.2 0.8-0.2 1.2-0.4 0.8-0.3 1.2-0.5v2.5c-0.4 0.2-0.8 0.4-1.2 0.5s-0.8 0.3-1.2 0.4-0.9 0.2-1.3 0.2c-0.6 0.2-1.1 0.2-1.6 0.2zm-0.7-15.4c-1.2 0-2.1 0.4-2.8 1.2s-1.1 2-1.2 3.5h7.7c0-0.7-0.1-1.4-0.2-1.9-0.1-0.6-0.4-1.1-0.7-1.5s-0.7-0.7-1.1-1c-0.5-0.2-1.1-0.3-1.7-0.3z"/>
<path class="st10" d="m283.5 181.5h1c0.4 0 0.7 0.1 1 0.1l-0.4 2.6c-0.3-0.1-0.6-0.1-0.9-0.1s-0.6-0.1-0.9-0.1c-0.7 0-1.3 0.1-1.8 0.4s-1 0.6-1.4 1.1-0.7 1.1-0.9 1.8-0.3 1.5-0.3 2.3v9.3h-2.8v-17.2h2.3l0.3 3.1h0.1c0.3-0.4 0.5-0.9 0.8-1.3s0.6-0.8 1-1.1 0.8-0.6 1.2-0.8c0.6 0 1.1-0.1 1.7-0.1z"/>
<path class="st10" d="m286.3 181.8h3l3.4 9.6c0.1 0.4 0.3 0.9 0.4 1.3 0.2 0.5 0.3 0.9 0.4 1.4s0.2 0.9 0.3 1.3 0.2 0.8 0.2 1.2h0.1c0.1-0.3 0.1-0.6 0.3-1.1 0.1-0.4 0.2-0.9 0.4-1.4 0.1-0.5 0.3-1 0.4-1.5 0.2-0.5 0.3-0.9 0.4-1.3l3.1-9.5h2.9l-6.8 19.4c-0.3 0.8-0.6 1.6-0.9 2.3s-0.7 1.2-1.2 1.7c-0.4 0.5-1 0.8-1.6 1.1s-1.3 0.4-2.2 0.4c-0.5 0-1 0-1.4-0.1s-0.7-0.1-1-0.2v-2.3c0.2 0.1 0.5 0.1 0.8 0.1s0.7 0.1 1 0.1c0.5 0 0.9-0.1 1.3-0.2s0.7-0.3 1-0.5 0.5-0.5 0.7-0.8 0.4-0.7 0.5-1.1l0.9-2.5-6.4-17.4z"/>
<path class="st10" d="m216 211.3v14.8c0 1.2-0.2 2.3-0.5 3.3s-0.9 1.9-1.6 2.7-1.6 1.3-2.6 1.8-2.3 0.6-3.7 0.6c-1.3 0-2.5-0.2-3.5-0.6s-1.9-1-2.6-1.7-1.2-1.6-1.6-2.7c-0.4-1-0.5-2.2-0.5-3.5v-14.7h2.9v14.9c0 1.8 0.5 3.2 1.4 4.2s2.3 1.5 4.1 1.5c0.9 0 1.7-0.1 2.4-0.4s1.2-0.7 1.6-1.2 0.7-1.1 1-1.8c0.2-0.7 0.3-1.5 0.3-2.3v-14.9h2.9z"/>
<path class="st10" d="m232.3 234.2v-11c0-1.4-0.3-2.4-0.8-3-0.5-0.7-1.4-1-2.6-1-0.8 0-1.6 0.1-2.1 0.4-0.6 0.3-1 0.7-1.4 1.2-0.3 0.5-0.6 1.2-0.8 2s-0.2 1.7-0.2 2.7v8.9h-2.8v-17.4h2.3l0.4 2.3h0.2c0.3-0.4 0.6-0.8 0.9-1.2s0.8-0.6 1.2-0.8 0.9-0.4 1.4-0.5 1-0.2 1.5-0.2c1.9 0 3.3 0.5 4.3 1.5s1.4 2.6 1.4 4.8v11.2h-2.9z"/>
<path class="st10" d="m251.2 234.2v-11c0-1.4-0.3-2.4-0.8-3-0.5-0.7-1.4-1-2.6-1-0.8 0-1.6 0.1-2.1 0.4-0.6 0.3-1 0.7-1.4 1.2s-0.6 1.2-0.8 2-0.2 1.7-0.2 2.7v8.9h-2.8v-24.3h2.8v7.2l-0.1 2.3h0.2c0.3-0.4 0.6-0.8 0.9-1.2s0.8-0.6 1.2-0.8 0.9-0.4 1.4-0.5 1-0.2 1.5-0.2c1.9 0 3.3 0.5 4.3 1.5s1.4 2.6 1.4 4.8v11.2h-2.9z"/>
<path class="st10" d="m266.1 234.5c-1.1 0-2.2-0.2-3.1-0.6s-1.8-0.9-2.4-1.7c-0.7-0.7-1.2-1.7-1.6-2.8s-0.6-2.3-0.6-3.8c0-1.4 0.2-2.7 0.5-3.8s0.8-2.1 1.5-2.8c0.6-0.8 1.4-1.4 2.2-1.8 0.9-0.4 1.8-0.6 2.9-0.6 1 0 2 0.2 2.8 0.6s1.5 0.9 2.1 1.6 1 1.5 1.3 2.4 0.5 2 0.5 3.1v1.8h-10.8c0.1 2 0.5 3.5 1.3 4.4s2 1.4 3.6 1.4c0.5 0 1 0 1.5-0.1s0.9-0.1 1.3-0.2 0.8-0.2 1.2-0.4 0.8-0.3 1.2-0.5v2.5c-0.4 0.2-0.8 0.4-1.2 0.5s-0.8 0.3-1.2 0.4-0.9 0.2-1.3 0.2c-0.7 0.2-1.2 0.2-1.7 0.2zm-0.7-15.4c-1.2 0-2.1 0.4-2.8 1.2s-1.1 2-1.2 3.5h7.7c0-0.7-0.1-1.4-0.2-1.9-0.1-0.6-0.4-1.1-0.7-1.5s-0.7-0.7-1.1-1c-0.5-0.2-1.1-0.3-1.7-0.3z"/>
<path class="st10" d="m286.1 234.2l-0.6-2.4h-0.1c-0.3 0.5-0.7 0.9-1 1.2s-0.7 0.6-1.1 0.8-0.9 0.4-1.4 0.5-1.1 0.2-1.7 0.2c-0.7 0-1.4-0.1-2-0.3s-1.1-0.5-1.6-0.9c-0.4-0.4-0.8-1-1-1.6s-0.4-1.4-0.4-2.3c0-1.7 0.6-3 1.8-3.9s3-1.4 5.5-1.5l2.9-0.1v-1.1c0-0.7-0.1-1.3-0.2-1.8-0.2-0.5-0.4-0.8-0.7-1.1s-0.6-0.5-1.1-0.6-0.9-0.2-1.4-0.2c-0.9 0-1.7 0.1-2.4 0.4s-1.5 0.6-2.1 0.9l-1-2.1c0.8-0.4 1.6-0.8 2.6-1.1 0.9-0.3 1.9-0.4 3-0.4s2 0.1 2.8 0.3 1.4 0.6 1.9 1c0.5 0.5 0.9 1.1 1.1 1.8s0.4 1.6 0.4 2.6v11.8h-2.2zm-5.2-2c0.6 0 1.2-0.1 1.8-0.3 0.5-0.2 1-0.5 1.4-0.9s0.7-0.9 0.9-1.5 0.3-1.3 0.3-2.1v-1.5l-2.2 0.1c-0.9 0-1.7 0.1-2.4 0.3-0.6 0.2-1.1 0.4-1.5 0.7s-0.7 0.7-0.8 1.1c-0.2 0.4-0.3 0.9-0.3 1.4 0 1 0.3 1.7 0.8 2.1s1.1 0.6 2 0.6z"/>
<path class="st10" d="m296.2 234.2h-2.8v-24.3h2.8v24.3z"/>
<path class="st10" d="m306.9 232.2h0.6c0.2 0 0.5 0 0.7-0.1s0.4-0.1 0.6-0.1 0.3-0.1 0.4-0.1v2.2c-0.1 0.1-0.3 0.1-0.5 0.2s-0.4 0.1-0.7 0.2-0.5 0.1-0.8 0.1h-0.8c-0.6 0-1.2-0.1-1.8-0.3s-1-0.5-1.4-0.9-0.7-1-0.9-1.6c-0.2-0.7-0.3-1.6-0.3-2.6v-10h-2.4v-1.3l2.4-1.2 1.2-3.6h1.6v3.9h4.3v2.1h-4.3v10c0 1 0.2 1.8 0.5 2.3s0.8 0.8 1.6 0.8z"/>
<path class="st10" d="m323.2 234.2v-11c0-1.4-0.3-2.4-0.8-3-0.5-0.7-1.4-1-2.6-1-0.8 0-1.6 0.1-2.1 0.4-0.6 0.3-1 0.7-1.4 1.2-0.3 0.5-0.6 1.2-0.8 2s-0.2 1.7-0.2 2.7v8.9h-2.8v-24.3h2.8v7.2l-0.1 2.3h0.2c0.3-0.4 0.6-0.8 0.9-1.2s0.8-0.6 1.2-0.8 0.9-0.4 1.4-0.5 1-0.2 1.5-0.2c1.9 0 3.3 0.5 4.3 1.5s1.4 2.6 1.4 4.8v11.2h-2.9z"/>
<path class="st10" d="m328.8 217h3l3.4 9.6c0.1 0.4 0.3 0.9 0.4 1.3 0.2 0.5 0.3 0.9 0.4 1.4s0.2 0.9 0.3 1.3 0.2 0.8 0.2 1.2h0.1c0.1-0.3 0.1-0.6 0.3-1.1 0.1-0.4 0.2-0.9 0.4-1.4 0.1-0.5 0.3-1 0.4-1.5 0.2-0.5 0.3-0.9 0.4-1.3l3.1-9.5h2.9l-6.8 19.4c-0.3 0.8-0.6 1.6-0.9 2.3s-0.7 1.2-1.2 1.7c-0.4 0.5-1 0.8-1.6 1.1s-1.3 0.4-2.2 0.4c-0.5 0-1 0-1.4-0.1s-0.7-0.1-1-0.2v-2.3c0.2 0.1 0.5 0.1 0.8 0.1s0.7 0.1 1 0.1c0.5 0 0.9-0.1 1.3-0.2s0.7-0.3 1-0.5 0.5-0.5 0.7-0.8 0.4-0.7 0.5-1.1l0.9-2.5-6.4-17.4z"/>
</svg>
