<?xml version="1.0" encoding="UTF-8" standalone="no"?>
<svg
   xmlns:dc="http://purl.org/dc/elements/1.1/"
   xmlns:cc="http://creativecommons.org/ns#"
   xmlns:rdf="http://www.w3.org/1999/02/22-rdf-syntax-ns#"
   xmlns:svg="http://www.w3.org/2000/svg"
   xmlns="http://www.w3.org/2000/svg"
   xmlns:sodipodi="http://sodipodi.sourceforge.net/DTD/sodipodi-0.dtd"
   xmlns:inkscape="http://www.inkscape.org/namespaces/inkscape"
   version="1.1"
   viewBox="0 0 540 540"
   id="svg16"
   sodipodi:docname="dial_good.svg"
   inkscape:version="0.92.2 (5c3e80d, 2017-08-06)">
  <metadata
     id="metadata22">
    <rdf:RDF>
      <cc:Work
         rdf:about="">
        <dc:format>image/svg+xml</dc:format>
        <dc:type
           rdf:resource="http://purl.org/dc/dcmitype/StillImage" />
      </cc:Work>
    </rdf:RDF>
  </metadata>
  <defs
     id="defs20" />
  <sodipodi:namedview
     pagecolor="#ffffff"
     bordercolor="#666666"
     borderopacity="1"
     objecttolerance="10"
     gridtolerance="10"
     guidetolerance="10"
     inkscape:pageopacity="0"
     inkscape:pageshadow="2"
     inkscape:window-width="1920"
     inkscape:window-height="1028"
     id="namedview18"
     showgrid="false"
     inkscape:zoom="0.43703704"
     inkscape:cx="270"
     inkscape:cy="270"
     inkscape:window-x="1272"
     inkscape:window-y="-8"
     inkscape:window-maximized="1"
     inkscape:current-layer="svg16" />
  <style
     type="text/css"
     id="style2">
	.st10{fill:#FFFFFF;}
	.st11{fill:none;stroke:#FFFFFF;stroke-width:3.6963;stroke-miterlimit:10;}
	.st12{fill:#00CC00;}
</style>
  <path
     class="st11"
     d="M420.8,270.7c0-83-67.3-150.4-150.4-150.4S120,187.7,120,270.7H420.8z"
     id="path4" />
  <path
     class="st12"
     d="M420.8,270.7c0-83-67.3-150.4-150.4-150.4S120,187.7,120,270.7H420.8z"
     fill="#00e400"
     id="path6"
     style="fill:#00e400;fill-opacity:1" />
  <path
     class="st10"
     d="m230.4 205.2h11.3v16.8c-0.9 0.3-1.7 0.5-2.6 0.8s-1.8 0.4-2.7 0.6-1.9 0.3-2.9 0.3-2.1 0.1-3.3 0.1c-2.5 0-4.6-0.4-6.5-1.2s-3.5-2-4.8-3.5-2.3-3.4-3-5.6-1-4.6-1-7.3 0.4-5.1 1.1-7.3 1.8-4 3.2-5.5 3.2-2.7 5.3-3.5 4.5-1.2 7.1-1.2c1.7 0 3.4 0.2 5 0.5s3.1 0.8 4.5 1.5l-1.7 3.8c-0.6-0.3-1.2-0.5-1.8-0.8s-1.3-0.4-2-0.6-1.4-0.3-2.1-0.4-1.4-0.2-2.2-0.2c-1.9 0-3.6 0.3-5.1 0.9s-2.7 1.5-3.7 2.7-1.7 2.6-2.3 4.3-0.8 3.6-0.8 5.8c0 2 0.2 3.9 0.6 5.6s1.1 3.1 2.1 4.4 2.1 2.2 3.6 2.8 3.3 1 5.4 1c0.7 0 1.3 0 1.9-0.1s1.1-0.1 1.6-0.2 0.9-0.1 1.4-0.2 0.8-0.2 1.3-0.2v-10.3h-7v-3.8z"
     id="path8" />
  <path
     class="st10"
     d="m270.3 210.3c0 2.1-0.3 4-0.8 5.7s-1.3 3.1-2.3 4.2-2.2 2-3.6 2.6-3 0.9-4.7 0.9c-1.6 0-3.1-0.3-4.5-0.9s-2.5-1.5-3.5-2.6-1.8-2.5-2.3-4.2-0.8-3.6-0.8-5.7 0.3-4 0.8-5.7 1.3-3 2.2-4.2 2.2-2 3.6-2.6 3-0.9 4.7-0.9c1.6 0 3.1 0.3 4.5 0.9s2.5 1.4 3.5 2.6 1.8 2.5 2.3 4.2 0.9 3.6 0.9 5.7zm-18 0c0 3.3 0.5 5.7 1.6 7.4s2.8 2.5 5.2 2.5 4.1-0.8 5.2-2.5 1.6-4.1 1.6-7.4-0.5-5.7-1.6-7.3-2.8-2.4-5.2-2.4-4.1 0.8-5.2 2.4-1.6 4.1-1.6 7.3z"
     id="path10" />
  <path
     class="st10"
     d="m298 210.3c0 2.1-0.3 4-0.8 5.7s-1.3 3.1-2.3 4.2-2.2 2-3.6 2.6-3 0.9-4.7 0.9c-1.6 0-3.1-0.3-4.5-0.9s-2.5-1.5-3.5-2.6-1.8-2.5-2.3-4.2-0.8-3.6-0.8-5.7 0.3-4 0.8-5.7 1.3-3 2.2-4.2 2.2-2 3.6-2.6 3-0.9 4.7-0.9c1.6 0 3.1 0.3 4.5 0.9s2.5 1.4 3.5 2.6 1.8 2.5 2.3 4.2 0.9 3.6 0.9 5.7zm-18 0c0 3.3 0.5 5.7 1.6 7.4s2.8 2.5 5.2 2.5 4.1-0.8 5.2-2.5 1.6-4.1 1.6-7.4-0.5-5.7-1.6-7.3-2.8-2.4-5.2-2.4-4.1 0.8-5.2 2.4-1.6 4.1-1.6 7.3z"
     id="path12" />
  <path
     class="st10"
     d="m320.6 219.8h-0.2c-0.3 0.5-0.7 1-1.2 1.5s-1 0.9-1.6 1.3-1.3 0.6-2 0.8-1.6 0.3-2.5 0.3c-1.5 0-2.8-0.3-4-0.8s-2.2-1.4-3.1-2.5-1.5-2.5-2-4.2-0.7-3.6-0.7-5.8 0.2-4.1 0.7-5.8 1.1-3.1 2-4.2 1.9-2 3.1-2.5 2.5-0.9 4-0.9c0.9 0 1.8 0.1 2.5 0.3s1.4 0.5 2 0.8 1.1 0.7 1.6 1.2 0.9 0.9 1.2 1.4h0.3c0-0.5-0.1-1-0.1-1.5 0-0.4-0.1-0.8-0.1-1.3s0-0.8 0-1v-10.2h4.3v36.5h-3.4l-0.8-3.4zm-6.7 0.4c1.2 0 2.2-0.2 3-0.5s1.5-0.9 2-1.6 0.9-1.7 1.1-2.8 0.4-2.4 0.4-3.9v-1c0-1.6-0.1-3-0.3-4.2s-0.6-2.3-1.1-3.1-1.2-1.5-2-1.9-1.9-0.6-3.2-0.6c-2.1 0-3.7 0.9-4.7 2.6s-1.5 4.1-1.5 7.3c0 3.3 0.5 5.7 1.5 7.3s2.6 2.4 4.8 2.4z"
     id="path14" />
  <path
     style="fill:#00e400;fill-opacity:1;stroke-width:18.30508423;stroke-linecap:round;stroke-miterlimit:4;stroke-dasharray:none"
     d="m 121.27119,261.6711 c 0,-13.21919 8.02757,-41.96157 16.49942,-59.07547 8.89155,-17.96173 33.10278,-44.86133 51.17414,-56.85642 41.13986,-27.30708 97.85219,-31.52198 143.36113,-10.6547 19.73115,9.04735 40.73392,25.14868 53.37395,40.91798 18.96251,23.65709 33.04898,59.24524 33.04898,83.49519 v 10.95995 H 270 121.27119 Z M 242.1019,213.82627 c 0.68545,-9.47371 0.52312,-9.72458 -6.29237,-9.72458 -7.29171,0 -9.50876,3.75565 -3.56377,6.03696 5.59549,2.14719 4.00412,7.69186 -2.20763,7.69186 -5.53942,0 -10.37711,-5.59286 -10.37711,-11.99699 0,-6.24732 6.35064,-11.87791 13.48198,-11.95336 3.90294,-0.0413 7.35704,-1.10474 7.67578,-2.36321 0.98608,-3.89334 -14.27244,-3.97222 -20.17564,-0.1043 -4.63917,3.0397 -5.55839,5.50384 -5.55839,14.90018 0,13.48155 5.57133,18.92654 18.30508,17.88995 7.66594,-0.62405 8.03857,-1.06787 8.71207,-10.37651 z m 27.33281,3.64336 c 6.03355,-12.64901 -5.88855,-26.3143 -16.74916,-19.19815 -6.65662,4.36159 -7.68302,17.11603 -1.84704,22.95202 5.46723,5.46723 15.12797,3.5171 18.5962,-3.75387 z m 27.64077,-0.3821 c 2.46881,-5.17426 2.5309,-7.79829 0.31134,-13.15678 -1.52489,-3.68141 -3.59305,-6.69346 -4.59592,-6.69346 -1.00287,0 -3.37249,-0.59444 -5.26583,-1.32099 -4.87822,-1.87194 -12.9488,7.03929 -12.9488,14.2976 0,14.37788 16.51181,19.42232 22.49921,6.87363 z m 27.83977,-12.21251 c 0,-11.19352 -0.94566,-19.07841 -2.28813,-19.07841 -1.25848,0 -2.28814,2.57415 -2.28814,5.72034 0,4.81542 -1.07316,5.72034 -6.7839,5.72034 -7.47492,0 -11.52118,5.11316 -11.52118,14.55902 0,8.06745 5.6898,12.80341 14.96324,12.45478 l 7.91811,-0.29767 z"
     id="path829"
     inkscape:connector-curvature="0" />
</svg>
