<?xml version="1.0" encoding="UTF-8" standalone="no"?>
<svg
   xmlns:dc="http://purl.org/dc/elements/1.1/"
   xmlns:cc="http://creativecommons.org/ns#"
   xmlns:rdf="http://www.w3.org/1999/02/22-rdf-syntax-ns#"
   xmlns:svg="http://www.w3.org/2000/svg"
   xmlns="http://www.w3.org/2000/svg"
   xmlns:sodipodi="http://sodipodi.sourceforge.net/DTD/sodipodi-0.dtd"
   xmlns:inkscape="http://www.inkscape.org/namespaces/inkscape"
   version="1.1"
   viewBox="0 0 540 540"
   id="svg66"
   sodipodi:docname="dial_legend.svg"
   inkscape:version="0.92.2 (5c3e80d, 2017-08-06)">
  <metadata
     id="metadata72">
    <rdf:RDF>
      <cc:Work
         rdf:about="">
        <dc:format>image/svg+xml</dc:format>
        <dc:type
           rdf:resource="http://purl.org/dc/dcmitype/StillImage" />
      </cc:Work>
    </rdf:RDF>
  </metadata>
  <defs
     id="defs70" />
  <sodipodi:namedview
     pagecolor="#ffffff"
     bordercolor="#666666"
     borderopacity="1"
     objecttolerance="10"
     gridtolerance="10"
     guidetolerance="10"
     inkscape:pageopacity="0"
     inkscape:pageshadow="2"
     inkscape:window-width="1920"
     inkscape:window-height="1028"
     id="namedview68"
     showgrid="false"
     inkscape:zoom="0.43703704"
     inkscape:cx="270"
     inkscape:cy="270"
     inkscape:window-x="1272"
     inkscape:window-y="-8"
     inkscape:window-maximized="1"
     inkscape:current-layer="svg66" />
  <style
     type="text/css"
     id="style2">
	.st1{fill:none;stroke:#FFFFFF;stroke-width:3.6963;stroke-miterlimit:10;}
	.st2{fill:#00e400;}
	.st3{fill:#FFFF00;}
	.st4{fill:#FF6600;}
	.st5{fill:#FF0000;}
	.st6{fill:#8F3F97;}
	.st7{fill:#660033;}
	.st8{fill:none;stroke:#FFFFFF;stroke-width:1.8481;stroke-miterlimit:10;}
	.st9{fill:#FFFFFF;}
</style>
  <path
     class="st1"
     d="M80.4,161.2C61.7,193.4,51,230.8,51,270.7H21.8c0-45.2,12.1-87.7,33.2-124.2l4.7,2.7L80.4,161.2z"
     id="path4" />
  <path
     class="st1"
     d="m160.5 81c-33.2 19.2-61 47-80.2 80.2l-4.3-2.5-16.3-9.4-4.7-2.7c22.6-39.2 54.3-69.8 90.9-90.9l2.7 4.7 9.4 16.3 2.5 4.3z"
     id="path6" />
  <path
     class="st1"
     d="m270.1 22.4v29.3c-39.9 0-77.3 10.7-109.6 29.3l-2.5-4.3-9.4-16.3-2.7-4.7c39.2-22.7 82-33.4 124.2-33.3z"
     id="path8" />
  <path
     class="st1"
     d="m394.3 55.6l-2.7 4.7-0.1 0.3-11.8 20.4c-32.2-18.7-69.7-29.3-109.6-29.3v-29.3c45.3 0 87.7 12.1 124.2 33.2z"
     id="path10" />
  <path
     class="st1"
     d="m485.3 146.5l-4.7 2.7-16.3 9.4-4.3 2.5c-19.2-33.2-46.9-61-80.2-80.2l2.5-4.3 9.3-16.1 0.1-0.3 2.7-4.7c39.1 22.7 69.8 54.5 90.9 91z"
     id="path12" />
  <path
     class="st1"
     d="m518.5 270.8h-29.3c0-39.9-10.7-77.3-29.3-109.6l4.3-2.5 16.3-9.4 4.7-2.7c22.7 39.1 33.3 82 33.3 124.2z"
     id="path14" />
  <path
     class="st2"
     d="M80.4,161.2C61.7,193.4,51,230.8,51,270.7H21.8c0-45.2,12.1-87.7,33.2-124.2L80.4,161.2z"
     fill="#00e400"
     id="path16" />
  <path
     class="st3"
     d="M160.5,81c-33.2,19.2-61,47-80.2,80.2L55,146.6c22.6-39.2,54.3-69.8,90.9-90.9L160.5,81z"
     id="path18" />
  <path
     class="st4"
     d="m270.1 22.4v29.3c-39.9 0-77.3 10.7-109.6 29.3l-14.6-25.3c39.2-22.7 82-33.4 124.2-33.3z"
     fill="#ff7e00"
     id="path20"
     style="fill:#ff7e00;fill-opacity:1" />
  <path
     class="st5"
     d="m394.3 55.6l-14.6 25.4c-32.2-18.7-69.7-29.3-109.6-29.3v-29.3c45.3 0 87.7 12.1 124.2 33.2z"
     id="path22" />
  <path
     class="st6"
     d="m485.3 146.5l-25.4 14.7c-19.2-33.2-46.9-61-80.2-80.2l14.6-25.4c39.2 22.6 69.9 54.4 91 90.9z"
     id="path24" />
  <path
     class="st7"
     d="m518.5 270.8h-29.3c0-39.9-10.7-77.3-29.3-109.6l25.4-14.7c22.6 39.2 33.2 82.1 33.2 124.3z"
     fill="#7e0023"
     id="path26"
     style="fill:#7e0023;fill-opacity:1" />
  <line
     class="st8"
     x1="55"
     x2="80.4"
     y1="146.6"
     y2="161.2"
     id="line28" />
  <line
     class="st8"
     x1="160.5"
     x2="145.9"
     y1="81"
     y2="55.6"
     id="line30" />
  <line
     class="st8"
     x1="270.1"
     x2="270.1"
     y1="22.4"
     y2="51.7"
     id="line32" />
  <line
     class="st8"
     x1="379.7"
     x2="394.3"
     y1="81"
     y2="55.6"
     id="line34" />
  <line
     class="st8"
     x1="485.3"
     x2="459.9"
     y1="146.5"
     y2="161.2"
     id="line36" />
  <path
     class="st9"
     d="m260 81h-1.8v-9.4-0.9-1-1-0.8l-0.3 0.3s-0.2 0.2-0.3 0.3l-0.3 0.3c-0.1 0.1-0.2 0.2-0.4 0.3l-1.5 1.2-1-1.3 3.9-3.1h1.5v15.1z"
     id="path38" />
  <path
     class="st9"
     d="m268.2 71.8c0.7 0 1.3 0.1 1.9 0.3s1.1 0.5 1.5 0.8c0.4 0.4 0.8 0.8 1 1.4s0.4 1.2 0.4 1.9c0 0.8-0.1 1.5-0.3 2.1s-0.6 1.1-1 1.6c-0.5 0.4-1 0.8-1.7 1s-1.4 0.3-2.3 0.3c-0.3 0-0.7 0-1-0.1-0.3 0-0.7-0.1-1-0.1-0.3-0.1-0.6-0.1-0.9-0.3s-0.5-0.2-0.8-0.4v-1.8c0.2 0.2 0.5 0.3 0.8 0.4s0.6 0.2 1 0.3 0.7 0.1 1 0.2c0.3 0 0.7 0.1 0.9 0.1 0.5 0 1-0.1 1.4-0.2s0.8-0.3 1.1-0.6 0.5-0.6 0.7-1 0.2-0.9 0.2-1.4c0-1-0.3-1.7-0.9-2.2s-1.5-0.8-2.6-0.8h-0.6c-0.2 0-0.4 0-0.6 0.1-0.2 0-0.4 0.1-0.6 0.1s-0.4 0.1-0.5 0.1l-0.9-0.6 0.6-7.1h7.1v1.7h-5.5l-0.6 4.4c0.2 0 0.5-0.1 0.9-0.1 0.4-0.1 0.8-0.1 1.3-0.1z"
     id="path40" />
  <path
     class="st9"
     d="m284.7 73.5c0 1.2-0.1 2.3-0.3 3.3s-0.5 1.8-0.8 2.4c-0.4 0.7-0.9 1.2-1.5 1.5s-1.3 0.5-2.2 0.5c-0.8 0-1.5-0.2-2.1-0.5s-1.1-0.9-1.5-1.5c-0.4-0.7-0.7-1.5-0.9-2.4-0.2-1-0.3-2-0.3-3.3s0.1-2.3 0.3-3.3 0.5-1.8 0.8-2.4c0.4-0.7 0.9-1.2 1.5-1.5s1.3-0.5 2.2-0.5c0.8 0 1.5 0.2 2.1 0.5s1.1 0.8 1.5 1.5 0.7 1.5 0.9 2.4c0.2 1 0.3 2.1 0.3 3.3zm-7.7 0c0 1 0.1 1.9 0.2 2.7s0.3 1.4 0.5 1.9 0.5 0.9 0.9 1.1c0.4 0.3 0.8 0.4 1.3 0.4s1-0.1 1.3-0.4 0.7-0.6 0.9-1.1 0.4-1.1 0.5-1.9 0.2-1.7 0.2-2.7-0.1-1.9-0.2-2.7-0.3-1.4-0.5-1.9-0.5-0.9-0.9-1.1-0.8-0.4-1.3-0.4-1 0.1-1.3 0.4c-0.4 0.3-0.7 0.6-0.9 1.1s-0.4 1.1-0.5 1.9-0.2 1.7-0.2 2.7z"
     id="path42" />
  <path
     class="st9"
     d="m361.6 104.6l-8-4.9 0.8-1.4 5.1-1.5c0.7-0.2 1.4-0.4 2-0.6s1.1-0.4 1.6-0.6 0.9-0.5 1.2-0.8c0.4-0.3 0.7-0.7 0.9-1.1 0.2-0.3 0.3-0.7 0.4-1s0.1-0.6 0-0.9-0.2-0.6-0.4-0.8-0.4-0.5-0.8-0.7c-0.6-0.3-1.1-0.5-1.7-0.6-0.6 0-1.2 0-1.8 0.1l-0.3-1.6c0.4-0.1 0.7-0.1 1.1-0.1s0.8 0 1.2 0.1 0.8 0.1 1.2 0.3c0.4 0.1 0.8 0.3 1.2 0.5 0.6 0.3 1 0.7 1.4 1.2 0.4 0.4 0.6 0.9 0.7 1.4s0.2 1 0.1 1.5-0.3 1.1-0.6 1.6-0.7 0.9-1.1 1.3-0.9 0.7-1.4 0.9c-0.5 0.3-1.1 0.5-1.8 0.7-0.6 0.2-1.3 0.4-2.1 0.6l-4.1 1.1v0.1l6 3.7-0.8 1.5z"
     id="path44" />
  <path
     class="st9"
     d="m375.5 104.3c-0.6 1-1.3 1.9-1.9 2.6s-1.3 1.3-2 1.6c-0.7 0.4-1.4 0.5-2.1 0.5s-1.4-0.3-2.2-0.7c-0.7-0.4-1.2-0.9-1.5-1.5s-0.5-1.3-0.5-2.1 0.2-1.6 0.5-2.5 0.8-1.9 1.4-2.9 1.3-1.9 1.9-2.6 1.3-1.3 2-1.6c0.7-0.4 1.4-0.5 2-0.5 0.7 0 1.4 0.3 2.2 0.7 0.7 0.4 1.2 0.9 1.5 1.5s0.5 1.3 0.5 2.1-0.2 1.6-0.5 2.5c-0.1 0.9-0.6 1.8-1.3 2.9zm-6.5-4c-0.5 0.9-1 1.7-1.3 2.4s-0.5 1.3-0.6 1.9 0 1 0.2 1.4 0.5 0.8 0.9 1c0.4 0.3 0.9 0.4 1.3 0.4s0.9-0.2 1.4-0.5 0.9-0.8 1.4-1.4 1-1.3 1.5-2.2 1-1.7 1.3-2.4 0.5-1.3 0.6-1.9 0-1-0.2-1.4-0.5-0.8-0.9-1c-0.5-0.3-0.9-0.4-1.3-0.4s-0.9 0.2-1.3 0.5-0.9 0.8-1.4 1.4c-0.6 0.6-1.1 1.3-1.6 2.2z"
     id="path46" />
  <path
     class="st9"
     d="m385.4 110.3c-0.6 1-1.3 1.9-1.9 2.6s-1.3 1.3-2 1.6c-0.7 0.4-1.4 0.5-2.1 0.5s-1.4-0.3-2.2-0.7c-0.7-0.4-1.2-0.9-1.5-1.5s-0.5-1.3-0.5-2.1 0.2-1.6 0.5-2.5 0.8-1.9 1.4-2.9 1.3-1.9 1.9-2.6 1.3-1.3 2-1.6c0.7-0.4 1.4-0.5 2-0.5 0.7 0 1.4 0.3 2.2 0.7 0.7 0.4 1.2 0.9 1.5 1.5s0.5 1.3 0.5 2.1-0.2 1.6-0.5 2.5c-0.2 0.9-0.6 1.9-1.3 2.9zm-6.5-4c-0.5 0.9-1 1.7-1.3 2.4s-0.5 1.3-0.6 1.9 0 1 0.2 1.4 0.5 0.8 0.9 1c0.4 0.3 0.9 0.4 1.3 0.4s0.9-0.2 1.4-0.5 0.9-0.8 1.4-1.4 1-1.3 1.5-2.2 1-1.7 1.3-2.4 0.5-1.3 0.6-1.9 0-1-0.2-1.4-0.5-0.8-0.9-1c-0.5-0.3-0.9-0.4-1.3-0.4s-0.9 0.2-1.3 0.5-0.9 0.8-1.4 1.4c-0.6 0.6-1.1 1.3-1.6 2.2z"
     id="path48" />
  <path
     class="st9"
     d="m440.3 163.9c-0.4 0.2-0.9 0.4-1.3 0.5s-0.9 0-1.3 0c-0.4-0.1-0.8-0.3-1.2-0.5s-0.7-0.6-1-0.9h-0.1c0.5 1.1 0.6 2.1 0.4 3s-0.8 1.5-1.6 2c-0.6 0.3-1.1 0.5-1.7 0.6s-1.2 0-1.7-0.2-1.1-0.5-1.6-1-1-1.2-1.5-2c-0.4-0.6-0.7-1.3-0.9-1.9s-0.3-1.3-0.4-1.9l1.5-0.9c0 0.7 0.1 1.4 0.3 2 0.2 0.7 0.4 1.3 0.8 1.9 0.3 0.5 0.6 1 1 1.3 0.3 0.3 0.7 0.6 1.1 0.7s0.7 0.2 1.1 0.1 0.8-0.2 1.2-0.4 0.7-0.5 0.9-0.8 0.3-0.7 0.3-1.1 0-0.8-0.2-1.3c-0.1-0.5-0.4-1-0.7-1.5l-0.7-1.2 1.3-0.8 0.7 1.2c0.3 0.5 0.6 0.9 0.9 1.2s0.7 0.5 1 0.7c0.4 0.1 0.7 0.2 1.1 0.1 0.4 0 0.7-0.2 1.1-0.4 0.3-0.2 0.6-0.4 0.7-0.6 0.2-0.2 0.3-0.5 0.4-0.8s0.1-0.6 0-0.9-0.2-0.7-0.4-1c-0.4-0.6-0.8-1.1-1.3-1.5s-1-0.7-1.6-0.9l0.6-1.5c0.3 0.1 0.6 0.3 0.9 0.5s0.6 0.4 0.9 0.7 0.6 0.6 0.9 0.9 0.5 0.7 0.8 1.1c0.4 0.6 0.6 1.3 0.7 1.8 0.1 0.6 0.1 1.1 0 1.6s-0.3 0.9-0.6 1.3c0.1 0.2-0.3 0.5-0.8 0.8z"
     id="path50" />
  <path
     class="st9"
     d="m442.9 176.6c-1.1 0.6-2 1.1-3 1.4-0.9 0.3-1.8 0.5-2.5 0.5-0.8 0-1.5-0.2-2.1-0.5-0.6-0.4-1.1-0.9-1.5-1.7-0.4-0.7-0.6-1.4-0.6-2.1s0.2-1.4 0.6-2c0.4-0.7 0.9-1.3 1.7-2 0.7-0.6 1.6-1.3 2.7-1.9s2-1.1 3-1.4c0.9-0.3 1.8-0.5 2.5-0.5 0.8 0 1.4 0.2 2 0.5s1.1 0.9 1.5 1.7c0.4 0.7 0.6 1.4 0.6 2.1s-0.2 1.4-0.6 2c-0.4 0.7-0.9 1.3-1.7 2-0.6 0.6-1.5 1.3-2.6 1.9zm-3.8-6.7c-0.9 0.5-1.6 1-2.3 1.5s-1.1 0.9-1.4 1.4-0.5 0.9-0.6 1.3c0 0.4 0.1 0.9 0.3 1.4 0.3 0.5 0.6 0.8 1 1s0.9 0.3 1.4 0.2c0.6 0 1.2-0.2 1.9-0.5s1.5-0.7 2.4-1.2 1.6-1 2.3-1.5c0.6-0.5 1.1-0.9 1.4-1.4s0.5-0.9 0.5-1.4c0-0.4-0.1-0.9-0.3-1.4-0.3-0.5-0.6-0.8-1-1s-0.9-0.3-1.4-0.2c-0.6 0.1-1.2 0.2-1.9 0.5-0.6 0.4-1.4 0.8-2.3 1.3z"
     id="path52" />
  <path
     class="st9"
     d="m448.6 186.6c-1.1 0.6-2 1.1-3 1.4-0.9 0.3-1.8 0.5-2.5 0.5-0.8 0-1.5-0.2-2.1-0.5-0.6-0.4-1.1-0.9-1.5-1.7-0.4-0.7-0.6-1.4-0.6-2.1s0.2-1.4 0.6-2c0.4-0.7 0.9-1.3 1.7-2 0.7-0.6 1.6-1.3 2.7-1.9s2-1.1 3-1.4 1.8-0.5 2.5-0.5c0.8 0 1.4 0.2 2 0.5 0.6 0.4 1.1 0.9 1.5 1.7 0.4 0.7 0.6 1.4 0.6 2.1s-0.2 1.4-0.6 2c-0.4 0.7-0.9 1.3-1.7 2-0.6 0.7-1.5 1.3-2.6 1.9zm-3.8-6.7c-0.9 0.5-1.6 1-2.3 1.5-0.6 0.5-1.1 0.9-1.4 1.4-0.3 0.4-0.5 0.9-0.6 1.3 0 0.4 0.1 0.9 0.3 1.4 0.3 0.5 0.6 0.8 1 1s0.9 0.3 1.4 0.2c0.6 0 1.2-0.2 1.9-0.5s1.5-0.7 2.4-1.2 1.6-1 2.3-1.5c0.6-0.5 1.1-0.9 1.4-1.4s0.5-0.9 0.5-1.4c0-0.4-0.1-0.9-0.3-1.4-0.3-0.5-0.6-0.8-1-1s-0.9-0.3-1.4-0.2c-0.6 0.1-1.2 0.2-1.9 0.5-0.6 0.4-1.4 0.8-2.3 1.3z"
     id="path54" />
  <path
     class="st9"
     d="m167.1 111.4l-1.6 0.9-4.7-8.1c-0.1-0.3-0.3-0.5-0.5-0.8s-0.3-0.6-0.5-0.9-0.3-0.6-0.4-0.8c-0.1-0.3-0.3-0.5-0.4-0.7 0 0.2-0.1 0.3-0.1 0.4s-0.1 0.2-0.1 0.4c0 0.1-0.1 0.2-0.1 0.4s-0.1 0.3-0.2 0.5l-0.7 1.8-1.5-0.6 1.9-4.6 1.3-0.8 7.6 12.9z"
     id="path56" />
  <path
     class="st9"
     d="m174.8 98.3c0.6 1 1.1 2 1.4 2.9s0.5 1.8 0.5 2.5c0 0.8-0.2 1.5-0.5 2.1-0.4 0.6-0.9 1.1-1.7 1.6-0.7 0.4-1.4 0.6-2.1 0.6s-1.4-0.2-2-0.6c-0.7-0.4-1.3-0.9-2-1.7-0.6-0.7-1.3-1.6-1.9-2.7-0.6-1-1.1-2-1.4-2.9s-0.5-1.8-0.5-2.5c0-0.8 0.2-1.4 0.5-2 0.4-0.6 0.9-1.1 1.6-1.5s1.4-0.6 2.1-0.6 1.4 0.2 2 0.6c0.7 0.4 1.3 0.9 2 1.7 0.8 0.5 1.4 1.4 2 2.5zm-6.7 3.8c0.5 0.9 1 1.6 1.5 2.3 0.5 0.6 0.9 1.1 1.4 1.4 0.4 0.3 0.9 0.5 1.3 0.6 0.4 0 0.9-0.1 1.4-0.3 0.5-0.3 0.8-0.6 1-1s0.3-0.9 0.2-1.4-0.2-1.2-0.5-1.9-0.7-1.5-1.2-2.4-1-1.6-1.5-2.3c-0.5-0.6-0.9-1.1-1.4-1.4s-0.9-0.5-1.4-0.5c-0.4 0-0.9 0.1-1.4 0.3-0.5 0.3-0.8 0.6-1 1s-0.3 0.9-0.2 1.4c0.1 0.6 0.2 1.2 0.5 1.9 0.4 0.6 0.8 1.4 1.3 2.3z"
     id="path58" />
  <path
     class="st9"
     d="m184.8 92.5c0.6 1 1.1 2 1.4 2.9s0.5 1.8 0.5 2.5c0 0.8-0.2 1.5-0.5 2.1-0.4 0.6-0.9 1.1-1.7 1.6-0.7 0.4-1.4 0.6-2.1 0.6s-1.4-0.2-2-0.6c-0.7-0.4-1.3-0.9-2-1.7-0.6-0.7-1.3-1.6-1.9-2.7-0.6-1-1.1-2-1.4-2.9s-0.5-1.8-0.5-2.5c0-0.8 0.2-1.4 0.5-2 0.4-0.6 0.9-1.1 1.6-1.5s1.4-0.6 2.1-0.6 1.4 0.2 2 0.6c0.7 0.4 1.3 0.9 2 1.7 0.8 0.6 1.4 1.5 2 2.5zm-6.6 3.8c0.5 0.9 1 1.6 1.5 2.3s0.9 1.1 1.4 1.4 0.9 0.5 1.3 0.6c0.4 0 0.9-0.1 1.4-0.3 0.5-0.3 0.8-0.6 1-1s0.3-0.9 0.2-1.4c0-0.6-0.2-1.2-0.5-1.9s-0.7-1.5-1.2-2.4-1-1.6-1.5-2.3c-0.5-0.6-0.9-1.1-1.4-1.4s-0.9-0.5-1.4-0.5c-0.4 0-0.9 0.1-1.4 0.3-0.5 0.3-0.8 0.6-1 1s-0.3 0.9-0.2 1.4 0.2 1.2 0.5 1.9c0.4 0.7 0.8 1.5 1.3 2.3z"
     id="path60" />
  <path
     class="st9"
     d="m94.7 177.6c0.3-0.6 0.7-1.1 1.2-1.5s1-0.7 1.5-0.9 1.1-0.3 1.7-0.2 1.2 0.3 1.8 0.6c0.7 0.4 1.2 0.8 1.6 1.3s0.7 1.1 0.9 1.7c0.1 0.6 0.1 1.3 0 2s-0.4 1.4-0.9 2.2l-0.6 0.9c-0.2 0.3-0.4 0.5-0.6 0.8-0.2 0.2-0.4 0.5-0.7 0.6-0.2 0.2-0.5 0.4-0.7 0.5l-1.5-0.9c0.2-0.1 0.5-0.3 0.8-0.5s0.5-0.4 0.7-0.7c0.2-0.2 0.5-0.5 0.7-0.8s0.4-0.5 0.5-0.8c0.3-0.5 0.5-0.9 0.6-1.3s0.1-0.8 0-1.2-0.3-0.8-0.5-1.1-0.6-0.6-1.1-0.9c-0.8-0.5-1.6-0.6-2.4-0.3-0.7 0.3-1.4 0.9-2 1.9-0.1 0.2-0.2 0.3-0.3 0.5s-0.2 0.4-0.3 0.6-0.2 0.4-0.2 0.6c-0.1 0.2-0.1 0.3-0.2 0.5l-1 0.5-5.8-4 3.5-6.1 1.5 0.8-2.7 4.7 3.5 2.5c0.1-0.2 0.2-0.5 0.3-0.8s0.5-0.8 0.7-1.2z"
     id="path62" />
  <path
     class="st9"
     d="m104.4 164.1c1 0.6 1.9 1.2 2.7 1.8 0.7 0.6 1.3 1.3 1.7 1.9 0.4 0.7 0.6 1.3 0.6 2s-0.2 1.4-0.6 2.2c-0.4 0.7-0.9 1.2-1.5 1.6-0.6 0.3-1.3 0.5-2.1 0.5s-1.6-0.1-2.5-0.4-1.9-0.8-3-1.4c-1-0.6-1.9-1.2-2.7-1.8-0.7-0.6-1.3-1.3-1.7-1.9-0.4-0.7-0.6-1.3-0.6-2s0.2-1.4 0.6-2.2c0.4-0.7 0.9-1.2 1.5-1.6s1.3-0.5 2.1-0.5 1.6 0.1 2.5 0.4c1 0.3 2 0.8 3 1.4zm-3.8 6.7c0.9 0.5 1.7 0.9 2.4 1.2s1.3 0.5 1.9 0.5c0.6 0.1 1 0 1.4-0.2s0.7-0.5 1-1 0.4-0.9 0.3-1.4-0.2-0.9-0.5-1.4-0.8-0.9-1.4-1.4-1.4-1-2.3-1.5-1.7-0.9-2.4-1.2-1.4-0.5-1.9-0.5c-0.6 0-1 0-1.4 0.2s-0.7 0.5-1 1-0.4 0.9-0.3 1.3c0 0.4 0.2 0.9 0.5 1.3s0.8 0.9 1.4 1.4 1.4 1.1 2.3 1.7z"
     id="path64" />
  <path
     style="fill:#ff7e00;fill-opacity:1;stroke-width:18.30508423;stroke-linecap:round;stroke-miterlimit:4;stroke-dasharray:none"
     d="m 154.68204,66.83569 -6.30953,-11.592692 19.72841,-9.245045 c 23.35348,-10.94381 54.73201,-19.335042 80.80824,-21.609702 l 18.8027,-1.640181 v 13.708664 13.708664 l -17.17195,1.556081 c -27.57962,2.4992 -48.22718,8.57553 -87.09921,25.632249 -1.34702,0.59106 -5.28841,-4.142056 -8.75866,-10.518038 z"
     id="path879"
     inkscape:connector-curvature="0" />
  <path
     style="fill:#7e0023;fill-opacity:1;stroke-width:18.30508423;stroke-linecap:round;stroke-miterlimit:4;stroke-dasharray:none"
     d="m 488.95293,251.58051 c -1.7341,-23.58724 -8.7096,-50.26466 -18.92317,-72.37059 -4.32505,-9.36101 -7.59791,-17.1884 -7.27302,-17.3942 14.39983,-9.12147 22.10388,-12.22183 24.16191,-9.72354 12.21024,14.82223 30.19999,79.376 30.19999,108.36856 v 9.99689 h -13.38895 -13.38895 z"
     id="path881"
     inkscape:connector-curvature="0" />
</svg>
