<?xml version="1.0" encoding="UTF-8"?>
<svg version="1.1" viewBox="0 0 540 540" xmlns="http://www.w3.org/2000/svg">
<style type="text/css">
	.st10{fill:#FFFFFF;}
	.st11{fill:none;stroke:#FFFFFF;stroke-width:3.6963;stroke-miterlimit:10;}
	.st12{fill:#ff7e00;}
</style>
<path class="st11" d="M420.8,270.7c0-83-67.3-150.4-150.4-150.4S120,187.7,120,270.7H420.8z"/>
<path class="st12" d="M420.8,270.7c0-83-67.3-150.4-150.4-150.4S120,187.7,120,270.7H420.8z" fill="#ff7e00"/>
<path class="st10" d="m205.9 183.4v12c0 1-0.1 1.9-0.4 2.7s-0.7 1.5-1.3 2.2-1.3 1.1-2.1 1.4-1.9 0.5-3 0.5-2-0.2-2.9-0.5-1.5-0.8-2.1-1.4-1-1.3-1.3-2.2-0.4-1.8-0.4-2.8v-12h2.4v12.1c0 1.5 0.4 2.6 1.1 3.4s1.8 1.2 3.3 1.2c0.8 0 1.4-0.1 1.9-0.3s1-0.6 1.3-1 0.6-0.9 0.8-1.5 0.3-1.2 0.3-1.9v-12.1h2.4z"/>
<path class="st10" d="m219.1 202v-9c0-1.1-0.2-1.9-0.7-2.5s-1.1-0.8-2.1-0.8c-0.7 0-1.3 0.1-1.7 0.3s-0.8 0.5-1.1 1-0.5 1-0.6 1.6-0.2 1.3-0.2 2.2v7.2h-2.3v-13.9h1.9l0.3 1.9h0.1c0.2-0.4 0.5-0.7 0.8-0.9s0.6-0.5 1-0.7 0.7-0.3 1.1-0.4 0.8-0.1 1.2-0.1c1.5 0 2.7 0.4 3.5 1.2s1.2 2.1 1.2 3.9v9.1h-2.4z"/>
<path class="st10" d="m234.4 202v-9c0-1.1-0.2-1.9-0.7-2.5s-1.1-0.8-2.1-0.8c-0.7 0-1.3 0.1-1.7 0.3s-0.8 0.5-1.1 1-0.5 1-0.6 1.6-0.2 1.3-0.2 2.2v7.2h-2.3v-19.8h2.3v5.9l-0.1 1.8h0.1c0.2-0.4 0.5-0.7 0.8-0.9s0.6-0.5 1-0.7 0.7-0.3 1.1-0.4 0.8-0.1 1.2-0.1c1.5 0 2.7 0.4 3.5 1.2s1.2 2.1 1.2 3.9v9.1h-2.4z"/>
<path class="st10" d="m246.5 202.3c-0.9 0-1.8-0.2-2.6-0.5s-1.4-0.8-2-1.4-1-1.3-1.3-2.2-0.5-1.9-0.5-3c0-1.2 0.1-2.2 0.4-3.1s0.7-1.7 1.2-2.3 1.1-1.1 1.8-1.4 1.5-0.5 2.3-0.5 1.6 0.2 2.3 0.5 1.2 0.7 1.7 1.3c0.5 0.5 0.8 1.2 1.1 2 0.2 0.8 0.4 1.6 0.4 2.5v1.4h-8.8c0 1.6 0.4 2.8 1 3.6s1.6 1.2 2.9 1.2c0.4 0 0.8 0 1.2-0.1 0.4 0 0.7-0.1 1.1-0.2 0.3-0.1 0.7-0.2 1-0.3s0.6-0.3 1-0.4v2.1c-0.3 0.2-0.7 0.3-1 0.4s-0.7 0.2-1 0.3-0.7 0.1-1.1 0.2c-0.2-0.2-0.6-0.1-1.1-0.1zm-0.5-12.6c-1 0-1.7 0.3-2.3 1s-0.9 1.6-1 2.9h6.2c0-0.6-0.1-1.1-0.2-1.6s-0.3-0.9-0.5-1.2-0.5-0.6-0.9-0.8-0.8-0.3-1.3-0.3z"/>
<path class="st10" d="m262.8 202l-0.5-1.9h-0.1c-0.3 0.4-0.6 0.7-0.8 1s-0.6 0.5-0.9 0.7-0.7 0.3-1.1 0.4-0.9 0.1-1.4 0.1c-0.6 0-1.1-0.1-1.6-0.2s-0.9-0.4-1.3-0.8c-0.4-0.3-0.6-0.8-0.8-1.3s-0.3-1.1-0.3-1.8c0-1.4 0.5-2.5 1.5-3.2s2.5-1.2 4.5-1.2l2.3-0.1v-0.9c0-0.6-0.1-1-0.2-1.4s-0.3-0.7-0.5-0.9-0.5-0.4-0.9-0.5c-0.3-0.1-0.7-0.2-1.2-0.2-0.7 0-1.4 0.1-2 0.3s-1.2 0.4-1.7 0.7l-0.8-1.7c0.6-0.3 1.3-0.6 2.1-0.9s1.6-0.4 2.4-0.4c0.9 0 1.6 0.1 2.2 0.3s1.2 0.4 1.6 0.8 0.7 0.9 0.9 1.4 0.3 1.3 0.3 2.1v9.5h-1.7zm-4.2-1.6c0.5 0 1-0.1 1.4-0.2s0.8-0.4 1.1-0.7 0.6-0.7 0.8-1.2 0.3-1.1 0.3-1.7v-1.3l-1.8 0.1c-0.8 0-1.4 0.1-1.9 0.3s-0.9 0.3-1.2 0.6c-0.3 0.2-0.5 0.5-0.7 0.9s-0.2 0.7-0.2 1.2c0 0.8 0.2 1.4 0.6 1.7 0.4 0.1 0.9 0.3 1.6 0.3z"/>
<path class="st10" d="M271.1,202h-2.3v-19.8h2.3V202z"/>
<path class="st10" d="m279.7 200.4h0.5c0.2 0 0.4 0 0.6-0.1s0.3-0.1 0.5-0.1c0.1 0 0.3-0.1 0.3-0.1v1.8c-0.1 0.1-0.3 0.1-0.4 0.2s-0.4 0.1-0.6 0.1-0.4 0.1-0.6 0.1-0.4 0-0.6 0c-0.5 0-1-0.1-1.5-0.2s-0.8-0.4-1.2-0.7c-0.3-0.3-0.6-0.8-0.8-1.3s-0.3-1.3-0.3-2.1v-8.1h-2v-1l2-1 1-2.9h1.3v3.2h3.5v1.7h-3.4v8.1c0 0.8 0.1 1.4 0.4 1.9 0.2 0.3 0.7 0.5 1.3 0.5z"/>
<path class="st10" d="m293 202v-9c0-1.1-0.2-1.9-0.7-2.5-0.4-0.6-1.1-0.8-2.1-0.8-0.7 0-1.3 0.1-1.7 0.3s-0.8 0.5-1.1 1c-0.3 0.4-0.5 1-0.6 1.6s-0.2 1.3-0.2 2.2v7.2h-2.3v-19.8h2.3v5.9l-0.1 1.8h0.1c0.2-0.4 0.5-0.7 0.8-0.9 0.3-0.3 0.6-0.5 1-0.7s0.7-0.3 1.1-0.4 0.8-0.1 1.2-0.1c1.5 0 2.7 0.4 3.5 1.2s1.2 2.1 1.2 3.9v9.1h-2.4z"/>
<path class="st10" d="m297.5 188.1h2.4l2.7 7.8c0.1 0.3 0.2 0.7 0.4 1.1 0.1 0.4 0.2 0.7 0.3 1.1s0.2 0.7 0.3 1.1 0.1 0.7 0.2 1h0.1c0-0.2 0.1-0.5 0.2-0.9s0.2-0.8 0.3-1.2 0.2-0.8 0.4-1.2c0.1-0.4 0.2-0.7 0.3-1l2.5-7.8h2.4l-5.5 15.8c-0.2 0.7-0.5 1.3-0.8 1.8s-0.6 1-1 1.4-0.8 0.7-1.3 0.9-1.1 0.3-1.8 0.3c-0.4 0-0.8 0-1.1-0.1s-0.6-0.1-0.8-0.1v-1.8c0.2 0 0.4 0.1 0.7 0.1s0.6 0 0.9 0c0.4 0 0.8 0 1.1-0.1s0.6-0.2 0.8-0.4 0.4-0.4 0.6-0.7 0.3-0.6 0.4-0.9l0.7-2-5.4-14.2z"/>
<path class="st10" d="m325.1 189.8h-3.1v12.2h-2.3v-12.2h-2.5v-1l2.5-0.9v-1.2c0-0.9 0.1-1.7 0.3-2.3s0.5-1.1 0.8-1.4c0.4-0.4 0.8-0.6 1.3-0.8s1.1-0.2 1.8-0.2c0.5 0 1 0 1.4 0.1s0.8 0.2 1.1 0.3l-0.6 1.8c-0.3-0.1-0.5-0.2-0.9-0.2-0.3-0.1-0.6-0.1-1-0.1s-0.6 0-0.9 0.1-0.4 0.2-0.6 0.4-0.3 0.5-0.4 0.8c-0.1 0.4-0.1 0.8-0.1 1.4v1.3h3.1v1.9z"/>
<path class="st10" d="m339 195c0 1.2-0.1 2.2-0.4 3.1s-0.7 1.7-1.2 2.3-1.2 1.1-1.9 1.4-1.6 0.5-2.5 0.5-1.7-0.2-2.4-0.5-1.4-0.8-1.9-1.4-1-1.4-1.3-2.3-0.5-1.9-0.5-3.1 0.1-2.2 0.4-3.1 0.7-1.6 1.2-2.3 1.2-1.1 1.9-1.4c0.8-0.3 1.6-0.5 2.5-0.5s1.7 0.2 2.4 0.5 1.4 0.8 1.9 1.4 1 1.4 1.3 2.3 0.5 2 0.5 3.1zm-9.8 0c0 1.8 0.3 3.1 0.9 4s1.5 1.3 2.8 1.3 2.2-0.4 2.8-1.3 0.9-2.2 0.9-4-0.3-3.1-0.9-4-1.5-1.3-2.8-1.3-2.2 0.4-2.8 1.3-0.9 2.2-0.9 4z"/>
<path class="st10" d="m348.7 187.8h0.8s0.6 0.1 0.8 0.1l-0.3 2.1c-0.2 0-0.5-0.1-0.7-0.1h-0.7c-0.5 0-1 0.1-1.5 0.3s-0.8 0.5-1.1 0.9-0.6 0.9-0.7 1.4c-0.2 0.6-0.3 1.2-0.3 1.9v7.5h-2.3v-13.9h1.9l0.3 2.6h0.1c0.2-0.4 0.4-0.7 0.7-1.1 0.2-0.3 0.5-0.6 0.8-0.9s0.6-0.5 1-0.6 0.7-0.2 1.2-0.2z"/>
<path class="st10" d="m185 224.2c0 0.8-0.1 1.6-0.4 2.2s-0.7 1.2-1.3 1.6-1.2 0.8-2 1-1.7 0.3-2.6 0.3-1.8-0.1-2.6-0.2-1.5-0.4-2.1-0.7v-2.3c0.3 0.1 0.6 0.3 1 0.4s0.8 0.2 1.2 0.3 0.8 0.2 1.3 0.2 0.9 0.1 1.3 0.1c1.4 0 2.4-0.3 3-0.8s1-1.2 1-2.2c0-0.5-0.1-0.9-0.2-1.2s-0.3-0.6-0.6-0.9-0.7-0.6-1.2-0.8-1.2-0.6-2-0.9-1.4-0.6-2-1-1-0.7-1.4-1.2-0.6-0.9-0.8-1.5-0.3-1.2-0.3-1.9 0.1-1.4 0.4-2 0.7-1.1 1.1-1.5 1.1-0.7 1.8-0.9 1.4-0.3 2.3-0.3c1 0 1.9 0.1 2.7 0.3s1.5 0.4 2.1 0.7l-0.9 2c-0.6-0.2-1.2-0.5-1.9-0.6s-1.4-0.3-2.2-0.3c-1 0-1.8 0.2-2.4 0.7s-0.9 1.1-0.9 1.9c0 0.5 0.1 0.9 0.2 1.3s0.3 0.7 0.6 1 0.7 0.6 1.2 0.8 1.1 0.5 1.8 0.8c0.8 0.3 1.4 0.6 2 0.9s1.1 0.7 1.5 1.1 0.7 0.9 0.9 1.4 0.4 1.5 0.4 2.2z"/>
<path class="st10" d="m193.9 229.5c-0.9 0-1.8-0.2-2.6-0.5s-1.4-0.8-2-1.4-1-1.3-1.3-2.2-0.5-1.9-0.5-3c0-1.2 0.1-2.2 0.4-3.1s0.7-1.7 1.2-2.3 1.1-1.1 1.8-1.4 1.5-0.5 2.3-0.5 1.6 0.2 2.3 0.5 1.2 0.7 1.7 1.3 0.8 1.2 1.1 2 0.4 1.6 0.4 2.5v1.4h-8.7c0 1.6 0.4 2.8 1 3.6s1.6 1.2 2.9 1.2c0.4 0 0.8 0 1.2-0.1s0.7-0.1 1.1-0.2 0.7-0.2 1-0.3 0.6-0.3 1-0.4v2.1c-0.3 0.2-0.7 0.3-1 0.4s-0.7 0.2-1 0.3-0.7 0.1-1.1 0.2-0.8-0.1-1.2-0.1zm-0.6-12.6c-1 0-1.7 0.3-2.3 1s-0.9 1.6-1 2.9h6.2c0-0.6-0.1-1.1-0.2-1.6s-0.3-0.9-0.5-1.2-0.5-0.6-0.9-0.8-0.7-0.3-1.3-0.3z"/>
<path class="st10" d="m211 229.2v-9c0-1.1-0.2-1.9-0.7-2.5s-1.1-0.8-2.1-0.8c-0.7 0-1.3 0.1-1.7 0.3s-0.8 0.5-1.1 1-0.5 1-0.6 1.6-0.2 1.3-0.2 2.2v7.2h-2.3v-13.9h1.9l0.3 1.9h0.1c0.2-0.4 0.5-0.7 0.8-0.9s0.6-0.5 1-0.7 0.7-0.3 1.1-0.4 0.8-0.1 1.2-0.1c1.5 0 2.7 0.4 3.5 1.2s1.2 2.1 1.2 3.9v9.1h-2.4z"/>
<path class="st10" d="m226 225.4c0 0.7-0.1 1.3-0.4 1.8s-0.6 0.9-1.1 1.3-1 0.6-1.7 0.8-1.4 0.3-2.2 0.3c-0.9 0-1.7-0.1-2.4-0.2s-1.2-0.4-1.7-0.7v-2.1c0.3 0.1 0.6 0.3 0.9 0.4s0.7 0.2 1 0.3 0.7 0.2 1.1 0.2 0.8 0.1 1.1 0.1c0.6 0 1 0 1.4-0.1s0.7-0.2 0.9-0.4 0.4-0.4 0.5-0.6 0.2-0.5 0.2-0.8 0-0.5-0.1-0.7-0.2-0.4-0.5-0.6-0.5-0.4-0.9-0.6-0.9-0.4-1.5-0.7-1.2-0.5-1.6-0.8-0.9-0.5-1.2-0.9-0.6-0.7-0.8-1.1-0.3-0.9-0.3-1.5 0.1-1.1 0.3-1.6 0.6-0.8 1-1.2 0.9-0.6 1.5-0.7 1.3-0.2 2-0.2c0.8 0 1.6 0.1 2.3 0.3s1.3 0.4 1.9 0.7l-0.8 1.9c-0.6-0.2-1.1-0.5-1.7-0.6s-1.2-0.3-1.8-0.3c-0.9 0-1.5 0.1-1.9 0.4s-0.6 0.7-0.6 1.2c0 0.3 0 0.6 0.1 0.8s0.3 0.4 0.5 0.6 0.6 0.4 1 0.6 0.9 0.4 1.5 0.7 1.2 0.5 1.6 0.8 0.9 0.5 1.2 0.9 0.6 0.7 0.8 1.1 0.4 0.6 0.4 1.2z"/>
<path class="st10" d="m229.2 211.5c0-0.5 0.1-0.9 0.4-1.1s0.6-0.3 1-0.3c0.2 0 0.4 0 0.5 0.1s0.3 0.1 0.4 0.3 0.2 0.3 0.3 0.5 0.1 0.4 0.1 0.7c0 0.5-0.1 0.9-0.4 1.1s-0.6 0.4-1 0.4-0.7-0.1-1-0.4-0.3-0.8-0.3-1.3zm2.5 17.7h-2.3v-13.9h2.3v13.9z"/>
<path class="st10" d="m240.3 227.6h0.5s0.4 0 0.6-0.1 0.3-0.1 0.5-0.1c0.1 0 0.3-0.1 0.3-0.1v1.8c-0.1 0.1-0.2 0.1-0.4 0.2s-0.4 0.1-0.6 0.1-0.4 0.1-0.6 0.1h-0.6c-0.5 0-1-0.1-1.5-0.2s-0.8-0.4-1.2-0.7-0.6-0.8-0.8-1.3-0.3-1.3-0.3-2.1v-8.2h-2v-1l2-1 1-2.9h1.3v3.2h3.5v1.7h-3.5v8.1c0 0.8 0.1 1.4 0.4 1.9s0.8 0.6 1.4 0.6z"/>
<path class="st10" d="m244.7 211.5c0-0.5 0.1-0.9 0.4-1.1s0.6-0.3 1-0.3c0.2 0 0.4 0 0.5 0.1 0.2 0.1 0.3 0.1 0.4 0.3 0.1 0.1 0.2 0.3 0.3 0.5s0.1 0.4 0.1 0.7c0 0.5-0.1 0.9-0.4 1.1s-0.6 0.4-1 0.4-0.7-0.1-1-0.4c-0.2-0.4-0.3-0.8-0.3-1.3zm2.5 17.7h-2.3v-13.9h2.3v13.9z"/>
<path class="st10" d="m254.2 229.2l-4.8-13.9h2.4l2.5 7.8c0.1 0.3 0.2 0.6 0.3 1.1s0.3 0.9 0.4 1.3 0.2 0.9 0.3 1.3 0.2 0.7 0.2 0.9h0.1c0-0.2 0.1-0.5 0.2-0.9s0.2-0.8 0.3-1.3 0.3-0.9 0.4-1.3 0.2-0.8 0.3-1.1l2.5-7.8h2.4l-4.8 13.9h-2.7z"/>
<path class="st10" d="m269.6 229.5c-0.9 0-1.8-0.2-2.6-0.5s-1.4-0.8-2-1.4-1-1.3-1.3-2.2-0.5-1.9-0.5-3c0-1.2 0.1-2.2 0.4-3.1s0.7-1.7 1.2-2.3 1.1-1.1 1.8-1.4 1.5-0.5 2.3-0.5 1.6 0.2 2.3 0.5 1.2 0.7 1.7 1.3 0.8 1.2 1.1 2c0.2 0.8 0.4 1.6 0.4 2.5v1.4h-8.8c0 1.6 0.4 2.8 1 3.6s1.6 1.2 2.9 1.2c0.4 0 0.8 0 1.2-0.1 0.4 0 0.7-0.1 1.1-0.2 0.3-0.1 0.7-0.2 1-0.3s0.6-0.3 1-0.4v2.1c-0.3 0.2-0.7 0.3-1 0.4s-0.7 0.2-1 0.3-0.7 0.1-1.1 0.2c-0.3-0.2-0.7-0.1-1.1-0.1zm-0.6-12.6c-1 0-1.7 0.3-2.3 1s-0.9 1.6-1 2.9h6.2c0-0.6-0.1-1.1-0.2-1.6s-0.3-0.9-0.5-1.2-0.5-0.6-0.9-0.8-0.8-0.3-1.3-0.3z"/>
<path class="st10" d="m292.5 219.4h6.1v9.1c-0.5 0.2-0.9 0.3-1.4 0.4s-1 0.2-1.5 0.3-1 0.1-1.6 0.2-1.1 0.1-1.8 0.1c-1.3 0-2.5-0.2-3.5-0.7s-1.9-1.1-2.6-1.9-1.2-1.8-1.6-3-0.5-2.5-0.5-4 0.2-2.8 0.6-3.9c0.4-1.2 1-2.2 1.8-3s1.7-1.5 2.9-1.9c1.1-0.4 2.4-0.7 3.9-0.7 0.9 0 1.8 0.1 2.7 0.3s1.7 0.5 2.4 0.8l-0.9 2.1c-0.3-0.1-0.6-0.3-1-0.4s-0.7-0.2-1.1-0.3-0.8-0.2-1.1-0.2c-0.4-0.1-0.8-0.1-1.2-0.1-1 0-1.9 0.2-2.7 0.5s-1.5 0.8-2 1.5c-0.5 0.6-0.9 1.4-1.2 2.3s-0.4 2-0.4 3.1 0.1 2.1 0.3 3 0.6 1.7 1.1 2.4 1.2 1.2 2 1.5 1.8 0.5 2.9 0.5h1c0.3 0 0.6 0 0.9-0.1s0.5-0.1 0.7-0.1 0.5-0.1 0.7-0.1v-5.5h-3.8v-2.2z"/>
<path class="st10" d="m308.7 215h0.8s0.6 0.1 0.8 0.1l-0.3 2.1c-0.2 0-0.5-0.1-0.7-0.1h-0.7c-0.5 0-1 0.1-1.5 0.3s-0.8 0.5-1.1 0.9-0.6 0.9-0.7 1.4c-0.2 0.6-0.3 1.2-0.3 1.9v7.5h-2.3v-13.9h1.9l0.3 2.6h0.1c0.2-0.4 0.4-0.7 0.7-1.1 0.2-0.3 0.5-0.6 0.8-0.9s0.6-0.5 1-0.6 0.7-0.2 1.2-0.2z"/>
<path class="st10" d="m324.4 222.2c0 1.2-0.1 2.2-0.4 3.1s-0.7 1.7-1.2 2.3-1.2 1.1-1.9 1.4-1.6 0.5-2.5 0.5-1.7-0.2-2.4-0.5-1.4-0.8-1.9-1.4-1-1.4-1.3-2.3-0.5-1.9-0.5-3.1 0.1-2.2 0.4-3.1 0.7-1.6 1.2-2.3 1.2-1.1 1.9-1.4c0.8-0.3 1.6-0.5 2.5-0.5s1.7 0.2 2.4 0.5 1.4 0.8 1.9 1.4 1 1.4 1.3 2.3c0.4 0.9 0.5 2 0.5 3.1zm-9.7 0c0 1.8 0.3 3.1 0.9 4s1.5 1.3 2.8 1.3 2.2-0.4 2.8-1.3 0.9-2.2 0.9-4-0.3-3.1-0.9-4-1.5-1.3-2.8-1.3-2.2 0.4-2.8 1.3-0.9 2.2-0.9 4z"/>
<path class="st10" d="m337.1 229.2l-0.3-1.9h-0.1c-0.2 0.4-0.5 0.7-0.8 0.9-0.3 0.3-0.6 0.5-1 0.7s-0.7 0.3-1.1 0.4-0.8 0.1-1.2 0.1c-0.8 0-1.4-0.1-2-0.3s-1.1-0.5-1.5-0.9-0.7-0.9-0.9-1.6c-0.2-0.6-0.3-1.4-0.3-2.3v-9.1h2.3v9c0 1.1 0.2 1.9 0.7 2.5s1.1 0.8 2.1 0.8c0.7 0 1.3-0.1 1.7-0.3s0.8-0.5 1.1-1c0.3-0.4 0.5-1 0.6-1.6s0.2-1.3 0.2-2.2v-7.2h2.3v13.9h-1.8z"/>
<path class="st10" d="m349.7 229.5c-0.5 0-1-0.1-1.4-0.2s-0.8-0.3-1.1-0.4l-0.9-0.6c-0.2-0.2-0.5-0.5-0.7-0.8h-0.2c0 0.3 0.1 0.6 0.1 0.8s0 0.4 0.1 0.7 0 0.4 0 0.6v6h-2.3v-20.2h1.9l0.3 1.9h0.1c0.2-0.3 0.4-0.6 0.7-0.8s0.5-0.5 0.9-0.7c0.3-0.2 0.7-0.3 1.1-0.5s0.9-0.2 1.4-0.2c0.8 0 1.5 0.2 2.2 0.5s1.2 0.8 1.7 1.4 0.8 1.4 1.1 2.3 0.4 1.9 0.4 3.1-0.1 2.2-0.4 3.1-0.6 1.7-1.1 2.3-1 1.1-1.7 1.4-1.4 0.3-2.2 0.3zm-0.5-12.6c-0.6 0-1.2 0.1-1.6 0.3s-0.8 0.5-1.1 0.9-0.5 0.9-0.6 1.5-0.2 1.3-0.2 2.1v0.5c0 0.9 0.1 1.6 0.2 2.3s0.3 1.2 0.6 1.7 0.6 0.8 1.1 1 1 0.3 1.7 0.3c1.1 0 2-0.5 2.5-1.4s0.8-2.2 0.8-4-0.3-3.1-0.8-3.9c-0.6-0.8-1.4-1.3-2.6-1.3z"/>
<path class="st10" d="m367 225.4c0 0.7-0.1 1.3-0.4 1.8s-0.6 0.9-1.1 1.3c-0.5 0.3-1 0.6-1.7 0.8s-1.4 0.3-2.2 0.3c-0.9 0-1.7-0.1-2.4-0.2s-1.2-0.4-1.7-0.7v-2.1c0.3 0.1 0.6 0.3 0.9 0.4s0.7 0.2 1 0.3 0.7 0.2 1.1 0.2c0.4 0.1 0.8 0.1 1.1 0.1 0.5 0 1 0 1.4-0.1s0.7-0.2 0.9-0.4 0.4-0.4 0.5-0.6 0.2-0.5 0.2-0.8 0-0.5-0.1-0.7-0.2-0.4-0.5-0.6c-0.2-0.2-0.5-0.4-0.9-0.6s-0.9-0.4-1.5-0.7-1.2-0.5-1.6-0.8c-0.5-0.3-0.9-0.5-1.2-0.9s-0.6-0.7-0.8-1.1-0.3-0.9-0.3-1.5 0.1-1.1 0.3-1.6 0.6-0.8 1-1.2 0.9-0.6 1.5-0.7 1.3-0.2 2-0.2c0.8 0 1.6 0.1 2.3 0.3s1.3 0.4 1.9 0.7l-0.8 1.9c-0.5-0.2-1.1-0.5-1.7-0.6-0.6-0.2-1.2-0.3-1.8-0.3-0.9 0-1.5 0.1-1.9 0.4s-0.6 0.7-0.6 1.2c0 0.3 0 0.6 0.1 0.8s0.3 0.4 0.5 0.6 0.6 0.4 1 0.6 0.9 0.4 1.5 0.7 1.2 0.5 1.6 0.8c0.5 0.3 0.9 0.5 1.2 0.9s0.6 0.7 0.8 1.1 0.4 0.6 0.4 1.2z"/>
</svg>
