<?xml version="1.0" encoding="UTF-8"?>
<svg version="1.1" viewBox="0 0 540 540" xmlns="http://www.w3.org/2000/svg">
<style type="text/css">
	.st11{fill:none;stroke:#FFFFFF;stroke-width:3.6963;stroke-miterlimit:10;}
	.st12{fill:#FFFF00;}
</style>
<path class="st11" d="M420.8,270.7c0-83-67.3-150.4-150.4-150.4S120,187.7,120,270.7H420.8z"/>
<path class="st12" d="M420.8,270.7c0-83-67.3-150.4-150.4-150.4S120,187.7,120,270.7H420.8z"/>
<path d="m206 220.8l-7.8-22.5h-0.1c0.1 0.9 0.1 1.7 0.2 2.6 0 0.7 0.1 1.5 0.1 2.3s0 1.6 0 2.2v15.4h-3v-25.7h4.9l7.2 21h0.1l7.3-21h4.9v25.7h-3.3v-15.6-2.1s0.1-1.5 0.1-2.3 0.1-1.7 0.1-2.5h-0.1l-7.9 22.5h-2.7z"/>
<path d="m242 211.1c0 1.6-0.2 3-0.6 4.3s-1 2.3-1.7 3.1-1.6 1.5-2.7 1.9-2.2 0.7-3.5 0.7c-1.2 0-2.3-0.2-3.3-0.7s-1.9-1.1-2.6-1.9-1.3-1.9-1.7-3.1-0.6-2.7-0.6-4.3 0.2-3 0.6-4.2 1-2.3 1.7-3.1 1.6-1.5 2.7-1.9 2.2-0.7 3.5-0.7c1.2 0 2.3 0.2 3.3 0.7s1.9 1.1 2.6 1.9 1.3 1.9 1.7 3.1 0.6 2.6 0.6 4.2zm-13.5 0c0 2.4 0.4 4.3 1.2 5.5s2.1 1.9 3.9 1.9 3.1-0.6 3.9-1.9 1.2-3.1 1.2-5.5-0.4-4.3-1.2-5.5-2.1-1.8-3.9-1.8-3.1 0.6-3.9 1.8-1.2 3-1.2 5.5z"/>
<path d="m259 218.2h-0.1c-0.3 0.4-0.6 0.8-0.9 1.1s-0.7 0.7-1.2 0.9-1 0.5-1.5 0.6-1.2 0.2-1.9 0.2c-1.1 0-2.1-0.2-3-0.6s-1.7-1.1-2.3-1.9-1.1-1.9-1.5-3.1-0.5-2.7-0.5-4.3c0-1.7 0.2-3.1 0.5-4.4s0.8-2.3 1.5-3.1 1.4-1.5 2.3-1.9 1.9-0.6 3-0.6c0.7 0 1.3 0.1 1.9 0.2s1.1 0.4 1.5 0.6 0.9 0.6 1.2 0.9 0.7 0.7 0.9 1.1h0.2c0-0.4-0.1-0.8-0.1-1.1s0-0.6-0.1-0.9 0-0.6 0-0.8v-7.7h3.2v27.4h-2.6l-0.5-2.6zm-5.1 0.2c0.9 0 1.6-0.1 2.3-0.4s1.1-0.7 1.5-1.2 0.7-1.2 0.8-2.1 0.3-1.8 0.3-2.9v-0.7c0-1.2-0.1-2.2-0.2-3.2s-0.4-1.7-0.8-2.3-0.9-1.1-1.5-1.4-1.4-0.5-2.4-0.5c-1.6 0-2.7 0.6-3.5 1.9s-1.1 3.1-1.1 5.5 0.4 4.3 1.1 5.5 1.9 1.8 3.5 1.8z"/>
<path d="m275.8 221.1c-1.3 0-2.5-0.2-3.5-0.7s-2-1.1-2.8-1.9-1.4-1.9-1.8-3.1-0.6-2.6-0.6-4.2 0.2-3 0.6-4.3 0.9-2.3 1.6-3.2 1.5-1.5 2.5-2 2.1-0.7 3.2-0.7c1.2 0 2.2 0.2 3.1 0.6s1.7 1 2.4 1.8 1.1 1.7 1.5 2.7 0.5 2.2 0.5 3.5v2h-12.2c0.1 2.3 0.5 3.9 1.4 5s2.2 1.6 4 1.6c0.6 0 1.2 0 1.7-0.1s1-0.1 1.5-0.3 0.9-0.3 1.4-0.4 0.9-0.4 1.4-0.6v2.8c-0.5 0.2-0.9 0.4-1.4 0.6s-0.9 0.3-1.4 0.4-1 0.2-1.5 0.2-1 0.3-1.6 0.3zm-0.8-17.3c-1.3 0-2.4 0.5-3.2 1.4s-1.2 2.2-1.4 4h8.6c0-0.8-0.1-1.5-0.2-2.2s-0.4-1.2-0.7-1.7-0.8-0.8-1.3-1.1-1.1-0.4-1.8-0.4z"/>
<path d="m295.8 201.1h1.1s0.8 0.1 1.1 0.1l-0.4 3c-0.3-0.1-0.7-0.1-1-0.1s-0.7-0.1-1-0.1c-0.7 0-1.4 0.1-2 0.4s-1.1 0.7-1.6 1.3-0.8 1.2-1 2-0.4 1.6-0.4 2.6v10.4h-3.2v-19.3h2.6l0.4 3.5h0.1c0.3-0.5 0.6-1 0.9-1.5s0.7-0.9 1.1-1.2 0.9-0.6 1.4-0.9 1.2-0.2 1.9-0.2z"/>
<path d="m312.3 220.8l-0.7-2.7h-0.1c-0.4 0.5-0.8 1-1.2 1.4s-0.8 0.7-1.3 0.9-1 0.4-1.5 0.5-1.2 0.2-2 0.2-1.6-0.1-2.2-0.3-1.3-0.6-1.8-1.1-0.9-1.1-1.2-1.8-0.4-1.6-0.4-2.6c0-1.9 0.7-3.4 2-4.4s3.4-1.6 6.2-1.7l3.2-0.1v-1.2c0-0.8-0.1-1.4-0.3-2s-0.4-1-0.7-1.3-0.7-0.6-1.2-0.7-1-0.2-1.6-0.2c-1 0-1.9 0.1-2.7 0.4s-1.6 0.6-2.4 1l-1.1-2.4c0.9-0.5 1.8-0.9 2.9-1.2s2.2-0.5 3.4-0.5 2.2 0.1 3.1 0.4 1.6 0.6 2.2 1.1 1 1.2 1.3 2 0.4 1.8 0.4 2.9v13.2h-2.3zm-5.9-2.3c0.7 0 1.4-0.1 2-0.3s1.1-0.6 1.6-1 0.8-1 1-1.7 0.4-1.5 0.4-2.4v-1.7l-2.5 0.1c-1.1 0-1.9 0.2-2.7 0.4s-1.3 0.4-1.7 0.8-0.7 0.7-0.9 1.2-0.3 1-0.3 1.6c0 1.1 0.3 1.9 0.9 2.4s1.3 0.6 2.2 0.6z"/>
<path d="m326.4 218.5h0.7s0.5-0.1 0.8-0.1 0.5-0.1 0.7-0.1 0.4-0.1 0.5-0.1v2.4c-0.2 0.1-0.3 0.1-0.6 0.2s-0.5 0.1-0.8 0.2-0.6 0.1-0.9 0.1-0.6 0-0.9 0c-0.7 0-1.4-0.1-2-0.3s-1.2-0.5-1.6-1-0.8-1.1-1.1-1.9-0.4-1.8-0.4-2.9v-11.2h-2.7v-1.4l2.7-1.4 1.4-4h1.8v4.4h4.9v2.4h-4.9v11.2c0 1.1 0.2 2 0.6 2.6s0.9 0.9 1.8 0.9z"/>
<path d="m340.4 221.1c-1.3 0-2.5-0.2-3.5-0.7s-2-1.1-2.8-1.9-1.4-1.9-1.8-3.1-0.6-2.6-0.6-4.2 0.2-3 0.6-4.3 0.9-2.3 1.6-3.2 1.5-1.5 2.5-2 2.1-0.7 3.2-0.7c1.2 0 2.2 0.2 3.1 0.6s1.7 1 2.4 1.8 1.1 1.7 1.5 2.7 0.5 2.2 0.5 3.5v2h-12.1c0.1 2.3 0.5 3.9 1.4 5s2.2 1.6 4 1.6c0.6 0 1.2 0 1.7-0.1s1-0.1 1.5-0.3 0.9-0.3 1.4-0.4 0.9-0.4 1.4-0.6v2.8c-0.5 0.2-0.9 0.4-1.4 0.6s-0.9 0.3-1.4 0.4-1 0.2-1.5 0.2-1.1 0.3-1.7 0.3zm-0.8-17.3c-1.3 0-2.4 0.5-3.2 1.4s-1.2 2.2-1.4 4h8.6c0-0.8-0.1-1.5-0.2-2.2s-0.4-1.2-0.7-1.7-0.8-0.8-1.3-1.1-1.1-0.4-1.8-0.4z"/>
</svg>
