<?xml version="1.0" encoding="UTF-8"?>
<svg version="1.1" viewBox="0 0 540 540" xmlns="http://www.w3.org/2000/svg">
<style type="text/css">
	.st10{fill:#FFFFFF;}
	.st11{display:inline;fill:#666666;}
	.st12{fill:none;}
</style>
<circle class="st12" transform="rotate(-90)" cx="-270.8" cy="270.4" r="268" fill="none"/>
<polygon class="st10" transform="rotate(-90,270.4,270.8)" points="255.5 126 283.5 126 270.5 89" fill="#fff"/>
<path d="m125.95 285.71c-6.1486-0.90468-10.939-6.4998-11.261-13.153-0.13303-2.746 0.26719-4.6713 1.5073-7.2513 0.77594-1.6143 1.1901-2.1814 2.6641-3.6476 1.3168-1.3099 2.1178-1.9185 3.2622-2.4788 7.5786-3.7107 16.184 0.44356 18.536 8.948 0.26565 0.96062 0.35967 1.9953 0.34919 3.8426-0.0123 2.1675-0.0907 2.7588-0.54971 4.146-1.2954 3.9148-3.624 6.6689-7.1112 8.4103-2.3682 1.1826-4.7796 1.5684-7.3964 1.1834z" fill="#fff" stroke-width=".20224"/>
<path d="m124.75 285.34c-2.1117-0.57027-4.1512-1.7624-5.7524-3.3624-1.6548-1.6535-2.5729-3.1159-3.407-5.4266-0.50214-1.3911-0.61212-2.05-0.69765-4.1795-0.12197-3.037 0.13396-4.2668 1.4649-7.0391 0.74958-1.5614 1.1901-2.1685 2.5867-3.5651 1.3598-1.3598 2.0114-1.839 3.3909-2.4939 2.1998-1.0443 3.2456-1.2817 5.6334-1.2789 3.5004 4e-3 6.3272 1.2213 8.9207 3.841 1.0747 1.0856 1.7643 2.0106 2.3512 3.154 1.4387 2.8026 1.5895 3.4579 1.5824 6.8763-6e-3 2.9764-0.0197 3.0681-0.71252 4.8539-1.4304 3.6869-3.5968 6.0803-7.0581 7.7977-2.4251 1.2032-5.6939 1.5271-8.3026 0.8226z" fill="#fff" stroke-width=".20224"/>
</svg>
