<?xml version="1.0" encoding="utf-8"?>
<!-- Generator: Adobe Illustrator 21.0.0, SVG Export Plug-In . SVG Version: 6.00 Build 0)  -->
<svg version="1.1" id="Layer_1" xmlns="http://www.w3.org/2000/svg" xmlns:xlink="http://www.w3.org/1999/xlink" x="0px" y="0px"
	 viewBox="0 0 46 34" style="enable-background:new 0 0 46 34;" xml:space="preserve">
<style type="text/css">
	.st0{fill:#504F53;}
</style>
<path class="st0" d="M35.8,3.5v-3.6h-3.2v3.6c0.5-0.1,1-0.2,1.6-0.2C34.8,3.3,35.3,3.4,35.8,3.5z M30.4,11.2
	c0.3-1.9,1.9-3.3,3.8-3.3c2.1,0,3.8,1.7,3.8,3.8c0,1.6-1,3-2.4,3.6c0.8,0.6,1.5,1.2,2.1,2c1.8-1.2,3-3.2,3-5.5
	c0-3.6-2.9-6.6-6.6-6.6c-2.6,0-4.8,1.5-5.9,3.7C29.1,9.5,29.8,10.3,30.4,11.2z M41.1,7l2.5-2.5l-2.2-2.2l-2.5,2.5
	C39.8,5.3,40.5,6.1,41.1,7z M38.9,18.6l2.5,2.5l2.2-2.2l-2.5-2.5C40.5,17.2,39.8,18,38.9,18.6z M42.4,10.1c0.1,0.5,0.2,1,0.2,1.6
	c0,0.5-0.1,1.1-0.2,1.6H46v-3.2H42.4z M29.5,4.8L27,2.2l-2.2,2.2L27.3,7C27.9,6.1,28.6,5.3,29.5,4.8z M30.1,15.4
	c-1.6-4.5-5.9-7.6-10.8-7.6c-4.3,0-8.2,2.4-10.1,6.2C4.1,14.4,0,18.8,0,24.1c0,5.7,4.6,10.3,10.3,10.3h18.4c5.3,0,9.6-4.3,9.6-9.6
	C38.3,20,34.7,16,30.1,15.4z M28.7,30.8H10.3c-3.7,0-6.7-3-6.7-6.7c0-3.7,3-6.7,6.7-6.7l1.3,0l0.5-1.1c1.2-3,4-4.9,7.3-4.9
	c3.6,0,6.8,2.6,7.6,6.1l0.3,1.4l1.5,0c3.3,0,5.9,2.7,5.9,6C34.7,28.1,32,30.8,28.7,30.8z"/>
</svg>
