<?xml version="1.0" encoding="utf-8"?>
<!-- Generator: Adobe Illustrator 21.0.0, SVG Export Plug-In . SVG Version: 6.00 Build 0)  -->
<svg version="1.1" id="Layer_1" xmlns="http://www.w3.org/2000/svg" xmlns:xlink="http://www.w3.org/1999/xlink" x="0px" y="0px"
	 viewBox="0 0 140.7 100.2" style="enable-background:new 0 0 140.7 100.2;" xml:space="preserve">
<style type="text/css">
	.st0{fill:#FFFFFF;}
</style>
<path class="st0" d="M117.4,21.7C112.9,8.9,100.5,0,86.7,0C76,0,66.3,5.1,60.3,13.5c4.2,0.2,8.4,1.2,12.2,2.6
	c3.9-3.3,8.9-5.3,14.2-5.3c10.2,0,19.1,7.2,21.3,17.1l0.9,4.3l4.4,0c9.1,0,16.5,7.5,16.5,16.6c0,6.5-3.8,12.1-9.2,14.8
	c0.6,2.5,0.9,5.2,0.9,7.9c0,1.2-0.1,2.3-0.2,3.5c11.2-3.5,19.4-13.9,19.4-26.2C140.7,35.1,130.6,23.7,117.4,21.7z M90.2,43.1
	c-4.8-13.5-17.7-22.9-32.3-22.9c-13,0-24.5,7.1-30.4,18.5C12.1,40.3,0,53.5,0,69.3c0,17,13.9,30.9,30.9,30.9H86
	c15.8,0,28.7-12.9,28.7-28.7C114.7,57.1,104,45.2,90.2,43.1z M86,89.4H30.9c-11,0-20-9-20-20c0-11,9-20,20-20l3.9,0l1.4-3.4
	c3.5-9,12.1-14.8,21.8-14.8c10.9,0,20.5,7.7,22.8,18.4l0.9,4.3l4.4,0c9.8,0,17.8,8,17.8,17.9C103.9,81.4,95.8,89.4,86,89.4z"/>
</svg>
