<?xml version="1.0" encoding="utf-8"?>
<!-- Generator: Adobe Illustrator 21.0.0, SVG Export Plug-In . SVG Version: 6.00 Build 0)  -->
<svg version="1.1" id="Layer_1" xmlns="http://www.w3.org/2000/svg" xmlns:xlink="http://www.w3.org/1999/xlink" x="0px" y="0px"
	 viewBox="0 0 20.6 59.6" style="enable-background:new 0 0 20.6 59.6;" xml:space="preserve">
<style type="text/css">
	.st0{fill:#FFFFFF;}
</style>
<path class="st0" d="M19.8,29.5H2.1c-0.5,0-0.8,0.4-0.8,0.8v28.5c0,0.5,0.4,0.8,0.8,0.8h4.2c0.5,0,0.8-0.4,0.8-0.8V47.6h10.7
	c0.5,0,0.8-0.4,0.8-0.8v-3.9c0-0.5-0.4-0.8-0.8-0.8H7.1v-7h12.7c0.5,0,0.8-0.4,0.8-0.8v-3.9C20.6,29.8,20.2,29.5,19.8,29.5z"/>
<path class="st0" d="M10,5.3c2.7,0,4.9,2.3,4.9,5.1s-2.2,5.1-4.9,5.1s-4.9-2.3-4.9-5.1S7.3,5.3,10,5.3 M10,0C4.5,0,0,4.6,0,10.3
	s4.5,10.3,10,10.3s10-4.6,10-10.3S15.6,0,10,0L10,0z"/>
</svg>
