<?xml version="1.0" encoding="utf-8"?>
<!-- Generator: Adobe Illustrator 21.0.0, SVG Export Plug-In . SVG Version: 6.00 Build 0)  -->
<svg version="1.1" id="Layer_1" xmlns="http://www.w3.org/2000/svg" xmlns:xlink="http://www.w3.org/1999/xlink" x="0px" y="0px"
	 viewBox="0 0 114.7 103.6" style="enable-background:new 0 0 114.7 103.6;" xml:space="preserve">
<style type="text/css">
	.st0{fill:#FFFFFF;}
</style>
<g>
	<path class="st0" d="M67.3,73.3h-6.6L65,60.6c0.2-0.6,0.1-1.3-0.3-1.8c-0.4-0.5-1-0.8-1.7-0.8H53c-0.9,0-1.8,0.6-2,1.6l-5.6,23.7
		c-0.1,0.6,0,1.2,0.4,1.7c0.4,0.5,1,0.8,1.6,0.8h5l-4,15.4c-0.3,1,0.2,2,1.1,2.4c0.3,0.1,0.5,0.2,0.8,0.2c0.7,0,1.3-0.3,1.7-0.9
		L69,76.4c0.4-0.6,0.4-1.4,0.1-2.1C68.8,73.7,68.1,73.3,67.3,73.3z"/>
	<path class="st0" d="M90.2,22.9C85.5,9.4,72.5,0,57.9,0c-13,0-24.6,7.1-30.4,18.5C12.1,20.2,0,33.3,0,49.2C0,66.2,13.9,80,30.9,80
		h5.2V69.2h-5.2c-11,0-20-9-20-20c0-11,9-20,20-20l3.9,0l1.4-3.4c3.5-9,12.1-14.8,21.8-14.8c10.9,0,20.5,7.7,22.8,18.4l0.9,4.3
		l4.4,0c9.8,0,17.8,8,17.8,17.9c0,9.8-8,17.9-17.9,17.9h-7.4V80H86c15.8,0,28.7-12.9,28.7-28.7C114.7,36.9,104,25,90.2,22.9z"/>
</g>
</svg>
