<?xml version="1.0" encoding="utf-8"?>
<!-- Generator: Adobe Illustrator 21.0.0, SVG Export Plug-In . SVG Version: 6.00 Build 0)  -->
<svg version="1.1" id="Layer_1" xmlns="http://www.w3.org/2000/svg" xmlns:xlink="http://www.w3.org/1999/xlink" x="0px" y="0px"
	 viewBox="0 0 129.2 109.2" style="enable-background:new 0 0 129.2 109.2;" xml:space="preserve">
<style type="text/css">
	.st0{fill:#FFFFFF;}
</style>
<path class="st0" d="M120.1,91.4l-9.7-5.1c12.8-24.4,9.9-46.5-8-62.4c-10.2-9-23.1-13.7-35.4-12.8c-9.6,0.7-17.8,4.8-23.7,11.8
	c-14.3,17-15,34.9-2,48c5.9,5.9,15.1,7.3,22.4,3.3c7.8-4.2,11-13,8.7-24l10.8-2.3c3.9,18.7-4.8,30.8-14.2,35.9
	c-11.5,6.2-26.1,4.1-35.4-5.2c-17.3-17.3-16.8-41.3,1.3-62.8C42.6,6.6,53.7,1,66.2,0.1c15.2-1.1,31,4.6,43.4,15.6
	C131.4,35,135.2,62.6,120.1,91.4z"/>
<path class="st0" d="M57.2,109.2c-13.9,0-27.9-4.9-37.6-13C-2,78.2-3.6,47.3,4.4,24.8l10.4,3.7c-6.7,19-5.7,44.6,11.8,59.3
	c14.8,12.4,42.5,15.2,57.3,0.3c9-9,14.4-21.2,13.9-31.8c-0.3-6.9-3-12.5-8-16.8C81,32.1,70.2,32.8,64,37.2
	c-6.1,4.5-7.5,12.3-3.7,21.3l-10.2,4.2c-6.8-16.4-0.6-28.5,7.4-34.4c11.2-8.2,27.7-7,39.3,2.7c7.4,6.2,11.5,14.7,12,24.7
	c0.6,13.6-6,28.9-17.1,40.1C82.5,105.2,69.9,109.2,57.2,109.2z"/>
</svg>
