<?xml version="1.0" encoding="utf-8"?>
<!-- Generator: Adobe Illustrator 21.0.0, SVG Export Plug-In . SVG Version: 6.00 Build 0)  -->
<svg version="1.1" id="Layer_1" xmlns="http://www.w3.org/2000/svg" xmlns:xlink="http://www.w3.org/1999/xlink" x="0px" y="0px"
	 viewBox="0 0 114.7 103.6" style="enable-background:new 0 0 114.7 103.6;" xml:space="preserve">
<style type="text/css">
	.st0{fill:#FFFFFF;}
</style>
<path class="st0" d="M90.2,22.9C85.5,9.4,72.5,0,57.9,0c-13,0-24.5,7.1-30.4,18.5C12.1,20.2,0,33.3,0,49.2
	c0,13.9,9.2,25.7,21.9,29.5V67c-6.5-3.3-11-10.1-11-17.9c0-11,9-20,20-20l3.9,0l1.4-3.4c3.5-9,12.1-14.8,21.8-14.8
	c10.9,0,20.5,7.7,22.8,18.4l0.9,4.3l4.4,0c9.8,0,17.8,8,17.8,17.9c0,7.4-4.6,13.8-11,16.5v11.4c12.5-3.1,21.9-14.4,21.9-27.8
	C114.7,36.9,104,25,90.2,22.9z M35.9,55.5c-2.6,0-4.7,2.1-4.7,4.7v31.9c0,2.6,2.1,4.7,4.7,4.7c2.6,0,4.7-2.1,4.7-4.7V60.2
	C40.6,57.6,38.5,55.5,35.9,55.5z M52.2,62.3c-2.6,0-4.7,2.1-4.7,4.7v31.9c0,2.6,2.1,4.7,4.7,4.7c2.6,0,4.7-2.1,4.7-4.7V67
	C56.9,64.4,54.8,62.3,52.2,62.3z M83.2,69.3h-5.6l3.7-11.1c0.2-0.6,0.1-1.3-0.3-1.8c-0.4-0.5-1-0.8-1.6-0.8h-9.1
	c-0.9,0-1.8,0.7-2,1.6l-5,21.4c-0.1,0.6,0,1.2,0.4,1.7c0.4,0.5,1,0.8,1.6,0.8h4.3L66,94.5c-0.3,1,0.2,2,1.1,2.4
	c0.3,0.1,0.5,0.2,0.8,0.2c0.7,0,1.3-0.3,1.7-0.9l15.3-23.7c0.4-0.6,0.4-1.4,0.1-2.1C84.6,69.7,84,69.3,83.2,69.3z"/>
</svg>
