<?xml version="1.0" encoding="utf-8"?>
<!-- Generator: Adobe Illustrator 21.0.0, SVG Export Plug-In . SVG Version: 6.00 Build 0)  -->
<svg version="1.1" id="Layer_1" xmlns="http://www.w3.org/2000/svg" xmlns:xlink="http://www.w3.org/1999/xlink" x="0px" y="0px"
	 viewBox="0 0 117.2 101.2" style="enable-background:new 0 0 117.2 101.2;" xml:space="preserve">
<style type="text/css">
	.st0{fill:#FFFFFF;}
</style>
<path class="st0" d="M61.1,37.9c10-0.5,18-8.8,18-18.9c0-10.5-8.5-19-19-19c-10.5,0-19,8.5-19,19h10.8c0-4.5,3.7-8.1,8.1-8.1
	c4.5,0,8.1,3.7,8.1,8.1s-3.7,8.1-8.1,8.1H11.4V38L61.1,37.9L61.1,37.9z M98.2,18c-10.5,0-19,8.5-19,19h10.8c0-4.5,3.7-8.1,8.1-8.1
	c4.5,0,8.1,3.7,8.1,8.1s-3.7,8.1-8.1,8.1l0,0H0V56h98.2v0c10.5,0,19-8.5,19-19S108.7,18,98.2,18z M85.4,63.3L85.4,63.3l-58.3,0v10.8
	h57.3c4.5,0,8.1,3.7,8.1,8.1c0,4.5-3.7,8.1-8.1,8.1c-4.5,0-8.1-3.7-8.1-8.1H65.4c0,10.5,8.5,19,19,19s19-8.5,19-19
	C103.4,72,95.4,63.8,85.4,63.3z"/>
</svg>
