<?xml version="1.0" encoding="utf-8"?>
<!-- Generator: Adobe Illustrator 21.0.0, SVG Export Plug-In . SVG Version: 6.00 Build 0)  -->
<svg version="1.1" id="Layer_1" xmlns="http://www.w3.org/2000/svg" xmlns:xlink="http://www.w3.org/1999/xlink" x="0px" y="0px"
	 viewBox="0 0 114.7 103.6" style="enable-background:new 0 0 114.7 103.6;" xml:space="preserve">
<style type="text/css">
	.st0{fill:#FFFFFF;}
</style>
<path class="st0" d="M90.2,22.9C85.5,9.4,72.5,0,57.9,0c-13,0-24.6,7.1-30.4,18.5C12.1,20.2,0,33.3,0,49.2
	c0,15.4,11.4,28.2,26.2,30.5V68.6c-8.8-2.1-15.3-10-15.3-19.4c0-11,9-20,20-20l3.9,0l1.4-3.4c3.5-9,12.1-14.8,21.8-14.8
	c10.9,0,20.5,7.7,22.9,18.4l0.9,4.3l4.4,0c9.8,0,17.8,8,17.8,17.9c0,9-6.7,16.4-15.3,17.7v10.9c14.6-1.3,26.2-13.6,26.2-28.6
	C114.7,36.9,104,25,90.2,22.9z M40.4,55.5c-2.6,0-4.7,2.1-4.7,4.7v31.9c0,2.6,2.1,4.7,4.7,4.7c2.6,0,4.7-2.1,4.7-4.7V60.2
	C45.1,57.6,43,55.5,40.4,55.5z M56.7,62.3c-2.6,0-4.7,2.1-4.7,4.7v31.9c0,2.6,2.1,4.7,4.7,4.7c2.6,0,4.7-2.1,4.7-4.7V67
	C61.4,64.4,59.3,62.3,56.7,62.3z M74.3,71.4c-2.6,0-4.7,2.1-4.7,4.7c0,2.6,2.1,4.7,4.7,4.7c2.6,0,4.7-2.1,4.7-4.7
	C79,73.5,76.9,71.4,74.3,71.4z M74.3,55.5c-2.6,0-4.7,2.1-4.7,4.7c0,2.6,2.1,4.7,4.7,4.7c2.6,0,4.7-2.1,4.7-4.7
	C79,57.6,76.9,55.5,74.3,55.5z M74.3,87.3c-2.6,0-4.7,2.1-4.7,4.7c0,2.6,2.1,4.7,4.7,4.7c2.6,0,4.7-2.1,4.7-4.7
	C79,89.5,76.9,87.3,74.3,87.3z"/>
</svg>
