<?xml version="1.0" encoding="utf-8"?>
<!-- Generator: Adobe Illustrator 21.0.0, SVG Export Plug-In . SVG Version: 6.00 Build 0)  -->
<svg version="1.1" id="Layer_1" xmlns="http://www.w3.org/2000/svg" xmlns:xlink="http://www.w3.org/1999/xlink" x="0px" y="0px"
	 viewBox="0 0 114.7 98.2" style="enable-background:new 0 0 114.7 98.2;" xml:space="preserve">
<style type="text/css">
	.st0{fill:#FFFFFF;}
</style>
<path class="st0" d="M90.2,22.9C85.5,9.4,72.5,0,57.9,0c-13,0-24.5,7.1-30.4,18.5C12.1,20.2,0,33.3,0,49.2
	c0,15.4,11.4,28.2,26.2,30.5V68.6c-8.8-2.1-15.3-10-15.3-19.4c0-11,9-20,20-20l3.9,0l1.4-3.4c3.5-9,12.1-14.8,21.8-14.8
	c10.9,0,20.5,7.7,22.9,18.3l0.9,4.3l4.4,0c9.8,0,17.8,8,17.8,17.9c0,9-6.7,16.4-15.3,17.7v10.9c14.6-1.3,26.2-13.6,26.2-28.6
	C114.7,36.9,104,25,90.2,22.9z M40.4,66.3c-2.6,0-4.7,2.1-4.7,4.7v15.6c0,2.6,2.1,4.7,4.7,4.7c2.6,0,4.7-2.1,4.7-4.7V71.1
	C45.1,68.4,43,66.3,40.4,66.3z M56.7,73.1c-2.6,0-4.7,2.1-4.7,4.7v15.6c0,2.6,2.1,4.7,4.7,4.7c2.6,0,4.7-2.1,4.7-4.7V77.8
	C61.4,75.2,59.3,73.1,56.7,73.1z M74.3,66.3c-2.6,0-4.7,2.1-4.7,4.7v15.6c0,2.6,2.1,4.7,4.7,4.7c2.6,0,4.7-2.1,4.7-4.7V71.1
	C79.1,68.4,76.9,66.3,74.3,66.3z"/>
</svg>
