<?xml version="1.0" encoding="utf-8"?>
<!-- Generator: Adobe Illustrator 21.0.0, SVG Export Plug-In . SVG Version: 6.00 Build 0)  -->
<svg version="1.1" id="Layer_1" xmlns="http://www.w3.org/2000/svg" xmlns:xlink="http://www.w3.org/1999/xlink" x="0px" y="0px"
	 viewBox="0 0 66.9 106.5" style="enable-background:new 0 0 66.9 106.5;" xml:space="preserve">
<style type="text/css">
	.st0{fill:#FFFFFF;}
</style>
<g>
	<path class="st0" d="M49.3,38.8c1.7-9.2,12.8-27.3,14-29c2.5-3.8,4.5-5.7,2.7-7.9c-0.8-1-2-1.7-3.3-1.7L4.3,0.3c-1.9,0-4,1.5-4,3.1
		c0.1,4.4,21.1,40.2,24.8,56.6c3.2,14.2-5,41.1-5,41.1c-0.5,1.9,0.5,4,2.3,4.8c0.5,0.2,1.1,0.3,1.6,0.3c1.4,0,2.7-0.7,3.4-1.9
		l15.8-21.4c1.3-1.9,9.9-12.9,8.6-22.6C51.2,54.9,47.8,46.6,49.3,38.8z"/>
</g>
</svg>
