<?xml version="1.0" encoding="utf-8"?>
<!-- Generator: Adobe Illustrator 21.0.0, SVG Export Plug-In . SVG Version: 6.00 Build 0)  -->
<svg version="1.1" id="Layer_1" xmlns="http://www.w3.org/2000/svg" xmlns:xlink="http://www.w3.org/1999/xlink" x="0px" y="0px"
	 viewBox="0 0 102.8 93.7" style="enable-background:new 0 0 102.8 93.7;" xml:space="preserve">
<style type="text/css">
	.st0{fill:#FFFFFF;}
</style>
<path class="st0" d="M102.5,11.1C102.5,5.5,98,1,92.5,1c-5.6,0-10.1,4.5-10.1,10.1s4.5,10.1,10.1,10.1
	C98,21.1,102.5,16.6,102.5,11.1z M20.6,45.6c0-5.6-4.5-10.1-10.1-10.1C4.9,35.5,0.4,40,0.4,45.6c0,5.6,4.5,10.1,10.1,10.1
	C16.1,55.6,20.6,51.1,20.6,45.6z M68.7,11.1C68.7,5.5,64.2,1,58.7,1c-5.6,0-10.1,4.5-10.1,10.1s4.5,10.1,10.1,10.1
	C64.2,21.1,68.7,16.6,68.7,11.1z M34.9,11.1C34.9,5.5,30.4,1,24.9,1c-5.6,0-10.1,4.5-10.1,10.1s4.5,10.1,10.1,10.1
	C30.4,21.1,34.9,16.6,34.9,11.1z M54.4,45.6c0-5.6-4.5-10.1-10.1-10.1c-5.6,0-10.1,4.5-10.1,10.1c0,5.6,4.5,10.1,10.1,10.1
	C49.8,55.6,54.4,51.1,54.4,45.6z M88.1,45.6c0-5.6-4.5-10.1-10.1-10.1C72.5,35.5,68,40,68,45.6c0,5.6,4.5,10.1,10.1,10.1
	C83.6,55.6,88.1,51.1,88.1,45.6z M68.7,83c0-5.6-4.5-10.1-10.1-10.1c-5.6,0-10.1,4.5-10.1,10.1c0,5.6,4.5,10.1,10.1,10.1
	C64.2,93,68.7,88.5,68.7,83z M102.5,83c0-5.6-4.5-10.1-10.1-10.1c-5.6,0-10.1,4.5-10.1,10.1c0,5.6,4.5,10.1,10.1,10.1
	C98,93,102.5,88.5,102.5,83z M34.9,83c0-5.6-4.5-10.1-10.1-10.1c-5.6,0-10.1,4.5-10.1,10.1c0,5.6,4.5,10.1,10.1,10.1
	C30.4,93,34.9,88.5,34.9,83z"/>
</svg>
