<?xml version="1.0" encoding="utf-8"?>
<!-- Generator: Adobe Illustrator 21.0.0, SVG Export Plug-In . SVG Version: 6.00 Build 0)  -->
<svg version="1.1" id="Layer_1" xmlns="http://www.w3.org/2000/svg" xmlns:xlink="http://www.w3.org/1999/xlink" x="0px" y="0px"
	 viewBox="0 0 137.9 127.1" style="enable-background:new 0 0 137.9 127.1;" xml:space="preserve">
<style type="text/css">
	.st0{fill:#FFFFFF;}
</style>
<path class="st0" d="M88.5,14.6L80.9,7l-6.7,6.7l7.6,7.6C83.6,18.6,85.8,16.4,88.5,14.6z M107.3,10.7V0h-9.5v10.7
	c1.5-0.3,3.1-0.5,4.7-0.5C104.2,10.3,105.7,10.4,107.3,10.7z M91.1,33.8c0.8-5.6,5.6-10,11.4-10c6.4,0,11.5,5.2,11.5,11.5
	c0,4.9-3,9-7.3,10.7c2.3,1.7,4.5,3.7,6.3,5.9c5.5-3.5,9.1-9.6,9.1-16.6c0-10.8-8.8-19.7-19.7-19.7c-7.8,0-14.5,4.6-17.7,11.2
	C87.2,28.9,89.3,31.2,91.1,33.8z M123.3,21.3l7.6-7.6L124.2,7l-7.6,7.6C119.2,16.4,121.5,18.6,123.3,21.3z M127.2,30.6
	c0.3,1.5,0.5,3.1,0.5,4.7c0,1.6-0.2,3.2-0.5,4.7h10.7v-9.5H127.2z M116.6,56.1l7.6,7.6l6.7-6.7l-7.6-7.6
	C121.5,52.1,119.2,54.3,116.6,56.1z M90.2,46.4c-4.8-13.5-17.7-22.9-32.3-22.9c-13,0-24.5,7.1-30.4,18.5C12.1,43.6,0,56.7,0,72.6
	c0,15.4,11.4,28.2,26.2,30.5V92.1c-8.8-2.1-15.3-10-15.3-19.4c0-11,9-20,20-20l3.9,0l1.4-3.4c3.5-9,12.1-14.8,21.8-14.8
	c10.9,0,20.5,7.7,22.8,18.4l0.9,4.3l4.4,0c9.8,0,17.8,8,17.8,17.9c0,9-6.7,16.4-15.3,17.7v10.9c14.6-1.3,26.2-13.6,26.2-28.6
	C114.7,60.4,104,48.4,90.2,46.4z M56.7,85.7c-2.6,0-4.7,2.1-4.7,4.7v31.9c0,2.6,2.1,4.7,4.7,4.7c2.6,0,4.7-2.1,4.7-4.7V90.5
	C61.4,87.8,59.3,85.7,56.7,85.7z M74.3,78.9c-2.6,0-4.7,2.1-4.7,4.7v31.9c0,2.6,2.1,4.7,4.7,4.7c2.6,0,4.7-2.1,4.7-4.7V83.7
	C79,81.1,76.9,78.9,74.3,78.9z M40.4,78.9c-2.6,0-4.7,2.1-4.7,4.7v31.9c0,2.6,2.1,4.7,4.7,4.7c2.6,0,4.7-2.1,4.7-4.7V83.7
	C45.1,81.1,43,78.9,40.4,78.9z"/>
</svg>
