<?xml version="1.0" encoding="utf-8"?>
<!-- Generator: Adobe Illustrator 21.0.0, SVG Export Plug-In . SVG Version: 6.00 Build 0)  -->
<svg version="1.1" id="Layer_1" xmlns="http://www.w3.org/2000/svg" xmlns:xlink="http://www.w3.org/1999/xlink" x="0px" y="0px"
	 viewBox="0 0 103.8 103.5" style="enable-background:new 0 0 103.8 103.5;" xml:space="preserve">
<style type="text/css">
	.st0{fill:#FFFFFF;}
</style>
<path class="st0" d="M80.2,31.1l12.2-12.2l-7.7-7.7L72.6,23.4C75.5,25.5,78.1,28.1,80.2,31.1z M57.3,17.1V-0.1H46.5v17.2
	c1.8-0.3,3.6-0.4,5.4-0.4C53.7,16.6,55.5,16.8,57.3,17.1z M16.8,51.8c0-1.8,0.1-3.7,0.4-5.4H0v10.8h17.2
	C16.9,55.4,16.8,53.6,16.8,51.8z M31.2,23.4L19,11.2l-7.7,7.7l12.2,12.2C25.7,28.1,28.3,25.5,31.2,23.4z M23.5,72.4L11.4,84.6
	l7.7,7.7l12.2-12.2C28.3,78,25.7,75.4,23.5,72.4z M46.5,86.4l0,17.2h10.8l0-17.2c-1.8,0.3-3.6,0.4-5.4,0.4
	C50,86.9,48.2,86.7,46.5,86.4z M72.6,80.1l12.2,12.2l7.7-7.7L80.2,72.4C78.1,75.4,75.5,78,72.6,80.1z M86.6,46.3
	c0.3,1.8,0.4,3.6,0.4,5.4c0,1.8-0.1,3.7-0.4,5.4h17.2V46.3H86.6z M51.9,23.4c-15.6,0-28.3,12.7-28.3,28.3
	c0,15.6,12.7,28.3,28.3,28.3c15.6,0,28.3-12.7,28.3-28.3C80.2,36.1,67.5,23.4,51.9,23.4z M51.9,69.2c-9.6,0-17.5-7.8-17.5-17.5
	s7.8-17.5,17.5-17.5c9.6,0,17.5,7.8,17.5,17.5S61.5,69.2,51.9,69.2z"/>
</svg>
