<?xml version="1.0" encoding="utf-8"?>
<!-- Generator: Adobe Illustrator 21.0.0, SVG Export Plug-In . SVG Version: 6.00 Build 0)  -->
<svg version="1.1" id="Layer_1" xmlns="http://www.w3.org/2000/svg" xmlns:xlink="http://www.w3.org/1999/xlink" x="0px" y="0px"
	 viewBox="0 0 103.9 80.2" style="enable-background:new 0 0 103.9 80.2;" xml:space="preserve">
<style type="text/css">
	.st0{fill:#FFFFFF;}
</style>
<path class="st0" d="M31.2,23.5L19,11.4L11.4,19l12.2,12.2C25.7,28.3,28.3,25.7,31.2,23.5z M25.7,62.6h12.4c-2.3-3-3.7-6.7-3.7-10.7
	c0-9.6,7.8-17.5,17.5-17.5c9.6,0,17.5,7.8,17.5,17.5c0,4-1.4,7.7-3.7,10.7h12.4c1.4-3.3,2.1-6.9,2.1-10.7
	c0-15.6-12.7-28.3-28.3-28.3c-15.6,0-28.3,12.7-28.3,28.3C23.6,55.7,24.3,59.3,25.7,62.6z M80.2,31.2L92.4,19l-7.7-7.7L72.6,23.5
	C75.5,25.7,78.1,28.3,80.2,31.2z M57.3,17.2V0H46.5v17.2c1.8-0.3,3.6-0.4,5.4-0.4C53.7,16.8,55.5,16.9,57.3,17.2z M16.8,51.9
	c0-1.8,0.1-3.7,0.4-5.4H0v10.8h17.2C16.9,55.5,16.8,53.7,16.8,51.9z M86.6,46.5c0.3,1.8,0.4,3.6,0.4,5.4s-0.1,3.7-0.4,5.4h17.2V46.5
	H86.6z M0,80.2h103.8V69.4H0V80.2z"/>
</svg>
