<?xml version="1.0" encoding="utf-8"?>
<!-- Generator: Adobe Illustrator 21.0.0, SVG Export Plug-In . SVG Version: 6.00 Build 0)  -->
<svg version="1.1" id="Layer_1" xmlns="http://www.w3.org/2000/svg" xmlns:xlink="http://www.w3.org/1999/xlink" x="0px" y="0px"
	 viewBox="0 0 119.9 113.6" style="enable-background:new 0 0 119.9 113.6;" xml:space="preserve">
<style type="text/css">
	.st0{fill:#FFFFFF;}
</style>
<path class="st0" d="M82.4,23.3C80.1,11.2,70.2,1.6,57.3,0.2C43-1.4,30,7.9,26.5,21.5C12.5,24.7,1.8,36.7,0.2,51.1
	C-1.2,64,4.7,76.3,15.3,83.3c0,10.5,5.4,20.8,14.6,26.3l6.4-9c-6.7-3.8-11-11.4-10.1-19.6l0.4-3.9l-3.3-1.7
	C14.8,71.1,9.9,61.9,11,52.3c1.2-10.8,9.9-19.6,20.7-20.7l4.3-0.5l0.5-4.3C37.6,17,46.4,9.9,56.2,11c8.3,0.9,14.6,7.3,15.8,15.2"/>
<path class="st0" d="M52.8,33.1c-11.5,4.4-18.3,15.8-17.5,27.5c1-0.5,2.1-1,3.2-1.4c2.5-1,5.1-1.6,7.7-2c0.6-6.1,4.5-11.6,10.5-14
	c8.5-3.3,18.1,1,21.4,9.5l1.6,4.1l4.3-0.7c10-1.5,19.9,4.3,23.6,13.7c1.9,5,1.9,10.4,0.2,15.2c2.8,3.1,5.1,6.6,6.8,10.5
	c5.7-8.6,7-19.5,3.1-29.5C112.7,53,100,44.7,86.4,45C79.8,33.5,65.6,28.2,52.8,33.1z"/>
<path class="st0" d="M51.6,113.6c-4.3-5.1-6.7-11.7-6.7-18.4c0-15.8,12.9-28.7,28.7-28.7c15.8,0,28.7,12.9,28.7,28.7
	c0,5.7-1.7,11.3-4.9,16l-9.1-6.2c2-2.9,3-6.3,3-9.9c0-9.7-7.9-17.7-17.7-17.7c-9.7,0-17.7,7.9-17.7,17.7c0,4.1,1.5,8.2,4.1,11.4
	L51.6,113.6z"/>
</svg>
