<?xml version="1.0" encoding="utf-8"?>
<!-- Generator: Adobe Illustrator 21.0.0, SVG Export Plug-In . SVG Version: 6.00 Build 0)  -->
<svg version="1.1" id="Layer_1" xmlns="http://www.w3.org/2000/svg" xmlns:xlink="http://www.w3.org/1999/xlink" x="0px" y="0px"
	 viewBox="0 0 144 144" style="enable-background:new 0 0 144 144;" xml:space="preserve">
<style type="text/css">
	.st0{fill:#5E5E5E;}
	.st1{fill-rule:evenodd;clip-rule:evenodd;fill:#FFFFFF;}
</style>
<circle class="st0" cx="71.3" cy="72.5" r="26"/>
<path class="st1" d="M59.8,77.1c0,5.7,4.1,10.5,9.5,11.5c-5-4.2-5.3-10.2,0.7-18.1c-0.4,1.9-0.6,6.5,0.7,9.5c0.9,2.1,2.5,3,3.5,2.5
	c0.8-0.4,1.2-1.7,0.3-3.7c5.4,2.1,3.3,7.5,0.5,9.5c4.7-1.5,8.1-5.9,8.1-11.1c0-1.2-0.1-2.3-0.4-3.3c-0.5-1.7-1.6-3.5-2.9-4.6
	c-0.6,2.8-3.5,3.3-4.1,1.2c-0.3-1.2,0.4-2.8,0.6-4c0.7-4.7-2.3-7.6-6.1-9.6C72.9,62.7,59.8,68.3,59.8,77.1L59.8,77.1z"/>
</svg>
