<?xml version="1.0" encoding="UTF-8" standalone="no"?>
<!-- Created with Inkscape (http://www.inkscape.org/) -->

<svg
   xmlns:dc="http://purl.org/dc/elements/1.1/"
   xmlns:cc="http://creativecommons.org/ns#"
   xmlns:rdf="http://www.w3.org/1999/02/22-rdf-syntax-ns#"
   xmlns:svg="http://www.w3.org/2000/svg"
   xmlns="http://www.w3.org/2000/svg"
   xmlns:sodipodi="http://sodipodi.sourceforge.net/DTD/sodipodi-0.dtd"
   xmlns:inkscape="http://www.inkscape.org/namespaces/inkscape"
   width="64"
   height="64"
   viewBox="0 0 16.933333 16.933334"
   version="1.1"
   id="svg8"
   inkscape:version="0.92.2 (5c3e80d, 2017-08-06)"
   sodipodi:docname="gps.svg">
  <defs
     id="defs2" />
  <sodipodi:namedview
     id="base"
     pagecolor="#ffffff"
     bordercolor="#666666"
     borderopacity="1.0"
     inkscape:pageopacity="0.0"
     inkscape:pageshadow="2"
     inkscape:zoom="11.2"
     inkscape:cx="19.387761"
     inkscape:cy="36.060037"
     inkscape:document-units="mm"
     inkscape:current-layer="layer3"
     showgrid="true"
     units="px"
     inkscape:snap-bbox="true"
     inkscape:snap-global="true"
     inkscape:object-nodes="false"
     inkscape:window-width="1920"
     inkscape:window-height="1028"
     inkscape:window-x="1272"
     inkscape:window-y="-8"
     inkscape:window-maximized="1">
    <inkscape:grid
       type="xygrid"
       id="grid815"
       empspacing="8"
       dotted="false" />
  </sodipodi:namedview>
  <metadata
     id="metadata5">
    <rdf:RDF>
      <cc:Work
         rdf:about="">
        <dc:format>image/svg+xml</dc:format>
        <dc:type
           rdf:resource="http://purl.org/dc/dcmitype/StillImage" />
        <dc:title></dc:title>
      </cc:Work>
    </rdf:RDF>
  </metadata>
  <g
     inkscape:groupmode="layer"
     id="layer3"
     inkscape:label="gps crosshair">
    <path
       style="fill:none;stroke:#000000;stroke-width:0;stroke-linecap:round;stroke-linejoin:miter;stroke-opacity:1;stroke-miterlimit:4;stroke-dasharray:none"
       d="m 2.1166666,8.4666666 c 12.6999994,0 12.6999994,0 12.6999994,0"
       id="path856"
       inkscape:connector-curvature="0" />
    <path
       style="color:#000000;font-style:normal;font-variant:normal;font-weight:normal;font-stretch:normal;font-size:medium;line-height:normal;font-family:sans-serif;font-variant-ligatures:normal;font-variant-position:normal;font-variant-caps:normal;font-variant-numeric:normal;font-variant-alternates:normal;font-feature-settings:normal;text-indent:0;text-align:start;text-decoration:none;text-decoration-line:none;text-decoration-style:solid;text-decoration-color:#000000;letter-spacing:normal;word-spacing:normal;text-transform:none;writing-mode:lr-tb;direction:ltr;text-orientation:mixed;dominant-baseline:auto;baseline-shift:baseline;text-anchor:start;white-space:normal;shape-padding:0;clip-rule:nonzero;display:inline;overflow:visible;visibility:visible;opacity:1;isolation:auto;mix-blend-mode:normal;color-interpolation:sRGB;color-interpolation-filters:linearRGB;solid-color:#000000;solid-opacity:1;vector-effect:none;fill:#000000;fill-opacity:1;fill-rule:nonzero;stroke:none;stroke-width:7.99999952;stroke-linecap:round;stroke-linejoin:miter;stroke-miterlimit:4;stroke-dasharray:none;stroke-dashoffset:0;stroke-opacity:1;color-rendering:auto;image-rendering:auto;shape-rendering:auto;text-rendering:auto;enable-background:accumulate"
       d="M 31.941406 -0.05859375 A 4.0003996 4.0003996 0 0 0 28 4.0019531 L 28 8.3613281 A 24 24 0 0 0 8.3398438 28 L 4.0019531 28 A 4.0009842 4.0009842 0 0 0 4.0019531 36.001953 L 8.3632812 36.001953 A 24 24 0 0 0 28 55.660156 L 28 60 A 4.0009842 4.0009842 0 0 0 36.001953 60 L 36.001953 55.636719 A 24 24 0 0 0 55.660156 36.001953 L 60 36.001953 A 4.0009842 4.0009842 0 0 0 60 28 L 55.638672 28 A 24 24 0 0 0 36.001953 8.3398438 L 36.001953 4.0019531 A 4.0003996 4.0003996 0 0 0 31.941406 -0.05859375 z M 32 16 A 15.999999 15.999999 0 0 1 36.001953 16.529297 A 15.999999 15.999999 0 0 1 47.478516 28 A 15.999999 15.999999 0 0 1 47.794922 29.513672 A 15.999999 15.999999 0 0 1 47.839844 29.880859 A 15.999999 15.999999 0 0 1 47.966797 31.082031 A 15.999999 15.999999 0 0 1 48 32 A 15.999999 15.999999 0 0 1 47.470703 36.001953 A 15.999999 15.999999 0 0 1 36.001953 47.478516 A 15.999999 15.999999 0 0 1 36 47.478516 A 15.999999 15.999999 0 0 1 34.490234 47.794922 A 15.999999 15.999999 0 0 1 34.105469 47.841797 A 15.999999 15.999999 0 0 1 32.921875 47.966797 A 15.999999 15.999999 0 0 1 32 48 A 15.999999 15.999999 0 0 1 28 47.470703 A 15.999999 15.999999 0 0 1 16.521484 36 A 15.999999 15.999999 0 0 1 16.205078 34.490234 A 15.999999 15.999999 0 0 1 16.158203 34.105469 A 15.999999 15.999999 0 0 1 16.033203 32.921875 A 15.999999 15.999999 0 0 1 16 32 A 15.999999 15.999999 0 0 1 16.529297 28 A 15.999999 15.999999 0 0 1 28 16.521484 A 15.999999 15.999999 0 0 1 29.513672 16.205078 A 15.999999 15.999999 0 0 1 29.880859 16.160156 A 15.999999 15.999999 0 0 1 31.082031 16.033203 A 15.999999 15.999999 0 0 1 32 16 z M 32 20 A 12 12 0 0 0 20 32 A 12 12 0 0 0 32 44 A 12 12 0 0 0 44 32 A 12 12 0 0 0 32 20 z "
       id="path858"
       transform="scale(0.26458333)" />
  </g>
</svg>
