<?xml version="1.0" encoding="UTF-8" standalone="no"?>
<svg
   xmlns:dc="http://purl.org/dc/elements/1.1/"
   xmlns:cc="http://creativecommons.org/ns#"
   xmlns:rdf="http://www.w3.org/1999/02/22-rdf-syntax-ns#"
   xmlns:svg="http://www.w3.org/2000/svg"
   xmlns="http://www.w3.org/2000/svg"
   xmlns:sodipodi="http://sodipodi.sourceforge.net/DTD/sodipodi-0.dtd"
   xmlns:inkscape="http://www.inkscape.org/namespaces/inkscape"
   version="1.1"
   width="100.6"
   height="30.9"
   viewBox="-179 380.3 100.6 30.9"
   xml:space="preserve"
   id="svg12"
   sodipodi:docname="epa-logo.svg"
   inkscape:version="0.92.2 (5c3e80d, 2017-08-06)"><metadata
     id="metadata18"><rdf:RDF><cc:Work
         rdf:about=""><dc:format>image/svg+xml</dc:format><dc:type
           rdf:resource="http://purl.org/dc/dcmitype/StillImage" /></cc:Work></rdf:RDF></metadata><defs
     id="defs16" /><sodipodi:namedview
     pagecolor="#ffffff"
     bordercolor="#666666"
     borderopacity="1"
     objecttolerance="10"
     gridtolerance="10"
     guidetolerance="10"
     inkscape:pageopacity="0"
     inkscape:pageshadow="2"
     inkscape:window-width="1280"
     inkscape:window-height="1002"
     id="namedview14"
     showgrid="false"
     inkscape:zoom="8"
     inkscape:cx="60.196528"
     inkscape:cy="1.5834219"
     inkscape:window-x="-8"
     inkscape:window-y="-8"
     inkscape:window-maximized="1"
     inkscape:current-layer="svg12" /><style
     type="text/css"
     id="style2">.st0{fill:#0071bc;}</style><path
     class="st0"
     d="M-154 392.1c-1.2 4.3-5 7.3-9.5 7.4 -4.5-0.1-8.3-3.1-9.5-7.4l0 0c0 0 2.2 2.3 0 0 0.6 0.7 1.5 1 2.4 1 0.9 0 1.8-0.3 2.4-1 0.6 0.7 1.5 1 2.4 1 0.9 0 1.8-0.3 2.4-1 0.6 0.7 1.5 1 2.4 1 0.9 0 1.8-0.3 2.4-1 0.6 0.7 1.5 1 2.4 1 0.9 0 1.8-0.3 2.4-1M-153.9 389.9c0-5.3-4.3-9.6-9.6-9.6s-9.6 4.3-9.6 9.6h8.6c-1.1-0.4-1.8-1.4-1.8-2.6 0-1.5 1.3-2.8 2.8-2.8 1.5 0 2.8 1.3 2.8 2.8 0 1.1-0.7 2.2-1.7 2.6H-153.9M-162.9 411.2c0.2-8.2 6.6-15.3 14.8-15.6C-148.1 403.9-154.6 410.7-162.9 411.2M-164.1 411.2c-0.2-8.2-6.6-15.3-14.9-15.6C-178.9 403.9-172.4 410.7-164.1 411.2"
     id="path4"
     style="fill:#ffffff;fill-opacity:1" /><polyline
     class="st0"
     points="-125.8 381 -145.3 381 -145.3 410.5 -125.8 410.5 -125.8 405.9 -139.2 405.9 -139.2 398 -125.8 398 -125.8 393.3 -139.2 393.3 -139.2 385.5 -125.8 385.5 -125.8 381 "
     id="polyline6"
     style="fill:#ffffff;fill-opacity:1" /><path
     class="st0"
     d="M-118.5 393.3h6c2 0 3.4-1.9 3.4-3.9 0.1-2-1.4-3.6-3.3-3.8h-5.6v24.9h-6.3V381h13.8c4.5 0 7.8 3.9 7.8 8.4s-3.3 8.6-7.8 8.6h-8V393.3"
     id="path8"
     style="fill:#ffffff;fill-opacity:1" /><polyline
     class="st0"
     points="-109 410.5 -102.4 410.5 -99.5 402.7 -87.5 402.7 -89.3 397.8 -97.8 397.8 -93.6 386.6 -84.9 410.5 -78.4 410.5 -90.1 381 -97.6 381 -109 410.5 "
     id="polyline10"
     style="fill:#ffffff;fill-opacity:1" /></svg>